<svg xmlns="http://www.w3.org/2000/svg" style="color: transparent; fill: #28282A;" viewBox="0 0 18 18"><path clip-rule="evenodd" d="M3 9a6 6 0 0111.575-2.222l1.394-.556A7.502 7.502 0 001.5 9a7.5 7.5 0 0011.39 6.414l-.78-1.282A6 6 0 013 9zm7 4v-2H8v2h2zM6 7.25A2.25 2.25 0 018.25 5h1.788a1.962 1.962 0 01.797 3.755l-.64.284a.75.75 0 00-.445.686V10h-1.5v-.275c0-.89.524-1.695 1.336-2.056l.64-.284a.462.462 0 00-.188-.885H8.25a.75.75 0 00-.75.75v.25H6v-.25zM14 15a1 1 0 102 0 1 1 0 00-2 0zm1-2a1 1 0 110-2 1 1 0 010 2zm-1-4a1 1 0 102 0 1 1 0 00-2 0z" fill-rule="evenodd"></path></svg>