<svg xmlns="http://www.w3.org/2000/svg" style="color: transparent; fill: #28282A;" viewBox="0 0 18 18"><path clip-rule="evenodd" d="M12.142 4.452A3.25 3.25 0 0114.44 3.5h.06v.06a3.25 3.25 0 01-.952 2.298l-.617.617-.88.88L9.455 9.95l-.434.434-1.745 1.745-.299.299.101.41.272 1.11a.75.75 0 01-.131.632l-.244.322-1.328-2.28-.1-.17-.17-.1-2.28-1.328.322-.244a.75.75 0 01.632-.131l1.11.272.41.1.3-.298 6.27-6.271zM9.87 11.657l-1.234 1.234.172.7a2.25 2.25 0 01-.394 1.897l-.924 1.216-.68.894-.565-.97-1.793-3.08-3.08-1.793-.97-.565.894-.68 1.216-.924a2.25 2.25 0 011.898-.394l.7.172L6.342 8.13 2.584 5.624l-1.186-.79 1.324-.53 1.844-.738a2.75 2.75 0 011.83-.075L9.903 4.57l1.179-1.179A4.75 4.75 0 0114.44 2H16v1.56c0 1.26-.5 2.468-1.391 3.359L13.43 8.097l1.08 3.507a2.75 2.75 0 01-.076 1.83l-.737 1.845-.53 1.323-.79-1.186-2.507-3.759zm1.082-1.081l1.278-1.279.846 2.748a1.25 1.25 0 01-.035.832l-.208.52-1.881-2.821zm-5.83-5.617a1.25 1.25 0 01.833-.034l2.748.845-1.278 1.278-2.823-1.881.52-.208z" fill-rule="evenodd"></path></svg>