<svg xmlns="http://www.w3.org/2000/svg" style="color: transparent; fill: #28282A;" viewBox="0 0 18 18"><path clip-rule="evenodd" d="M5.25 2H4.5v2H2v2.75a3.25 3.25 0 002.742 3.21 4.514 4.514 0 002.103 2.491l-1.156 1.3-.189.214V16h7v-2.035l-.19-.213-1.155-1.3a4.514 4.514 0 002.103-2.491A3.25 3.25 0 0016 6.75V4h-2.5V2H5.25zM9.6 12.96a4.536 4.536 0 01-1.2 0L7.03 14.5h3.938L9.6 12.96zM3.5 5.5h1v2.832a1.75 1.75 0 01-1-1.582V5.5zm10 0v2.832c.591-.281 1-.884 1-1.582V5.5h-1zM6 8.5v-5h6v5a3 3 0 11-6 0z" fill-rule="evenodd"></path></svg>