<svg xmlns="http://www.w3.org/2000/svg" style="color: transparent; fill: #28282A;" viewBox="0 0 18 18"><path d="M9.929 7.179l.53.53.855-.855-1.146-.386-.24.71zm-1.425 2.838l-.53.53.53-.53zm.472.471l.53-.53-.53.53zm2.838-1.424l.71-.24-.385-1.145-.855.855.53.53zM7.85 12.793l.282-.695-.46-.188-.353.352.53.53zM5.332 15.31l-.53.53.53.53.53-.53-.53-.53zm-1.65-1.65l-.53-.53-.53.53.53.53.53-.53zM6.2 11.143l.53.53.352-.352-.188-.46-.694.282zm3.968-4.675a3.742 3.742 0 00-3.845.898l1.061 1.06a2.242 2.242 0 012.305-.537l.48-1.421zM9.035 9.133l1.424-1.424-1.06-1.06-1.425 1.423 1.06 1.061zm0 .354a.25.25 0 010-.354l-1.061-1.06a1.75 1.75 0 000 2.474l1.06-1.06zm.47.471l-.47-.471-1.061 1.06.471.472 1.06-1.06zm.354 0a.25.25 0 01-.353 0l-1.06 1.06a1.75 1.75 0 002.474 0l-1.06-1.06zm1.425-1.424L9.859 9.958l1.061 1.06 1.425-1.424-1.061-1.06zm.343 4.135a3.742 3.742 0 00.898-3.844l-1.422.479a2.242 2.242 0 01-.537 2.305l1.06 1.06zm-4.06.819c1.352.55 2.961.28 4.06-.819l-1.061-1.06c-.656.655-1.62.82-2.434.49l-.565 1.389zm-.248-1.226L4.802 14.78l1.06 1.06 2.518-2.517-1.06-1.06zM5.863 14.78l-1.65-1.65-1.06 1.06 1.649 1.65 1.06-1.06zm-1.65-.59l2.517-2.517-1.06-1.06-2.518 2.517 1.06 1.06zm2.11-6.824a3.744 3.744 0 00-.818 4.06l1.39-.566a2.244 2.244 0 01.489-2.433l-1.06-1.061z"></path><path clip-rule="evenodd" d="M11.25 5.5H15v6.75c0 .69-.56 1.25-1.25 1.25h-.681a5.35 5.35 0 01-.289.31A5.256 5.256 0 0110.963 15h2.787a2.75 2.75 0 002.75-2.75V4H12v-.75A2.25 2.25 0 009.75 1h-1.5A2.25 2.25 0 006 3.25V4H1.5v8.25c0 .181.018.359.051.53L3 11.338V5.5h8.25zM7.5 3.25V4h3v-.75a.75.75 0 00-.75-.75h-1.5a.75.75 0 00-.75.75z" fill-rule="evenodd"></path></svg>