<svg xmlns="http://www.w3.org/2000/svg" style="color: transparent; fill: #28282A;" viewBox="0 0 18 18"><path clip-rule="evenodd" d="M4.5 4.75a1.25 1.25 0 11-2.5 0 1.25 1.25 0 012.5 0zM3.25 10a1.25 1.25 0 100-2.5 1.25 1.25 0 000 2.5zm0 4a1.25 1.25 0 100-2.5 1.25 1.25 0 000 2.5zM6 5.5h10V4H6v1.5zm10 4H6V8h10v1.5zM6 12h3.815l1.252 1.251-.249.249H6V12zm8.249.19l-2.091-2.09-1.06 1.06 2.09 2.091-2.09 2.091 1.06 1.061 2.09-2.091 2.092 2.091 1.06-1.06-2.09-2.092 2.09-2.09-1.06-1.061-2.091 2.09z" fill-rule="evenodd"></path></svg>