<svg xmlns="http://www.w3.org/2000/svg" style="color: transparent; fill: #28282A;" viewBox="0 0 18 18"><path clip-rule="evenodd" d="M2.505 7.517A5.75 5.75 0 018.25 2h1.5a5.75 5.75 0 015.745 5.517c.85.12 1.505.85 1.505 1.733v1.5a1.75 1.75 0 01-1.5 1.732v.768A2.75 2.75 0 0112.75 16h-7.5a2.75 2.75 0 01-2.75-2.75v-.768A1.75 1.75 0 011 10.75v-1.5a1.75 1.75 0 011.505-1.733zM4.007 7.5h9.986a4.25 4.25 0 00-4.243-4h-1.5a4.25 4.25 0 00-4.243 4zM2.75 9a.25.25 0 00-.25.25v1.5c0 .138.112.25.25.25h12.5a.25.25 0 00.25-.25v-1.5a.25.25 0 00-.25-.25H2.75zM4 12.5v.75c0 .69.56 1.25 1.25 1.25h7.5c.69 0 1.25-.56 1.25-1.25v-.75H4z" fill-rule="evenodd"></path></svg>