<svg xmlns="http://www.w3.org/2000/svg" style="color: transparent; fill: #28282A;" viewBox="0 0 18 18"><path clip-rule="evenodd" d="M8 2a1 1 0 012 0v1a.996.996 0 01-.25.661V4.5h2A2.25 2.25 0 0114 6.75v1.354c1.154.326 2 1.387 2 2.646v3.75h1V16H1v-1.5h1v-3.75c0-1.259.846-2.32 2-2.646V6.75A2.25 2.25 0 016.25 4.5h2v-.839A.996.996 0 018 3V2zm6.5 8.975v-.225c0-.69-.56-1.25-1.25-1.25h-8.5c-.69 0-1.25.56-1.25 1.25v.225a1.797 1.797 0 012.02.552.297.297 0 00.46 0 1.797 1.797 0 012.79 0 .297.297 0 00.46 0 1.797 1.797 0 012.79 0 .297.297 0 00.46 0 1.797 1.797 0 012.02-.552zm0 1.984l-.395-.486a.297.297 0 00-.46 0c-.72.885-2.07.885-2.79 0a.297.297 0 00-.46 0c-.72.885-2.07.885-2.79 0a.297.297 0 00-.46 0c-.72.885-2.07.885-2.79 0a.297.297 0 00-.46 0l-.395.486V14.5h11v-1.541zM12.5 8V6.75a.75.75 0 00-.75-.75h-5.5a.75.75 0 00-.75.75V8h7z" fill-rule="evenodd"></path></svg>