<svg xmlns="http://www.w3.org/2000/svg" style="color: transparent; fill: #28282A;" viewBox="0 0 18 18"><path clip-rule="evenodd" d="M2 2h14v5.127a3.484 3.484 0 00-2-.627c-.954 0-1.818.381-2.45 1H3.5v5.75c0 .69.56 1.25 1.25 1.25h3.825c-.05.242-.075.493-.075.75V16H4.75A2.75 2.75 0 012 13.25V2zm1.5 1.5V6h11V3.5H13V5h-1.5V3.5h-5V5H5V3.5H3.5zm10.5 6a.5.5 0 100 1 .5.5 0 000-1zm-2 .5a2 2 0 114 0 2 2 0 01-4 0zm-.5 5.25a.75.75 0 01.75-.75h3.5a.75.75 0 01.75.75v.25h-5v-.25zm.75-2.25A2.25 2.25 0 0010 15.25V17h8v-1.75A2.25 2.25 0 0015.75 13h-3.5z" fill-rule="evenodd"></path></svg>