<svg xmlns="http://www.w3.org/2000/svg" style="color: transparent; fill: #28282A;" viewBox="0 0 18 18"><path clip-rule="evenodd" d="M2.75 2H2v11.25A2.75 2.75 0 004.75 16h.75v-.75c0-.257.026-.508.075-.75H4.75c-.69 0-1.25-.56-1.25-1.25V7.5h9.764A2.992 2.992 0 0116 6.541V2H2.75zm.75 4V3.5H5V5h1.5V3.5h5V5H13V3.5h1.5V6h-11zm12 5a1.5 1.5 0 100-3 1.5 1.5 0 000 3zm2.5 2.5V15h-2.508a3.747 3.747 0 00-1.638-2.854c.196-.094.415-.146.646-.146h2a1.5 1.5 0 011.5 1.5zm-8.75 1a.75.75 0 00-.75.75v.25h4v-.25a.75.75 0 00-.75-.75h-2.5zM7 15.25A2.25 2.25 0 019.25 13h2.5A2.25 2.25 0 0114 15.25V17H7v-1.75zm3-4.75a.5.5 0 111 0 .5.5 0 01-1 0zm.5-2a2 2 0 100 4 2 2 0 000-4z" fill-rule="evenodd"></path></svg>