<svg xmlns="http://www.w3.org/2000/svg" style="color: transparent; fill: #28282A;" viewBox="0 0 18 18"><path clip-rule="evenodd" d="M11.68 2.554l-.197-.724-.724.196L7.157 3H5v.583l-2.446.662-.724.195.196.724 2.61 9.654a2.25 2.25 0 002.76 1.584L8.884 16h3.866A2.25 2.25 0 0015 13.75V3h-3.2l-.12-.446zM5 10.416V5.137l-1.33.36L5 10.417zM8.785 14.5h3.965a.75.75 0 00.75-.75V4.5h-7v9.25c0 .414.336.75.75.75h1.535zM7.25 6.75l1.25-1.5 1.25 1.5-1.25 1.5-1.25-1.5zm4.25 4l-1.25 1.5 1.25 1.5 1.25-1.5-1.25-1.5z" fill-rule="evenodd"></path></svg>