<svg xmlns="http://www.w3.org/2000/svg" style="color: transparent; fill: #28282A;" viewBox="0 0 18 18"><path clip-rule="evenodd" d="M7 2h9v6.25a2.75 2.75 0 01-2.51 2.74 2.75 2.75 0 01-2.5 2.5A2.75 2.75 0 018.25 16h-3.5A2.75 2.75 0 012 13.25V7h2.5V4.5H7V2zm7.5 6.25c0 .605-.43 1.11-1 1.225V6h1v2.25zm0-3.75v-1h-6v1h6zM11 11.975c.57-.116 1-.62 1-1.225V8.5h-1v3.475zM12 6v1H6V6h6zM3.5 9.5v-1h6v1h-6zm0 1.5v2.25c0 .69.56 1.25 1.25 1.25h3.5c.69 0 1.25-.56 1.25-1.25V11h-6z" fill-rule="evenodd"></path></svg>