<svg xmlns="http://www.w3.org/2000/svg" style="color: transparent; fill: #28282A;" viewBox="0 0 18 18"><path clip-rule="evenodd" d="M12.5 5.5H3v2h7.182A6.033 6.033 0 008.626 9H3v3.25c0 .69.56 1.25 1.25 1.25h3.333c.088.526.245 1.03.461 1.5H4.25a2.75 2.75 0 01-2.75-2.75V4h4v-.75A2.25 2.25 0 017.75 1h2.5a2.25 2.25 0 012.25 2.25V4h4v2.5H15v-1h-2.5zM11 4v-.75a.75.75 0 00-.75-.75h-2.5a.75.75 0 00-.75.75V4h4zm2.5 5.5a3 3 0 102.892 3.8l1.446.4A4.502 4.502 0 019 12.5a4.5 4.5 0 017.5-3.354V8H18v4h-4v-1.5h1.736c-.55-.614-1.348-1-2.236-1z" fill-rule="evenodd"></path></svg>