<svg xmlns="http://www.w3.org/2000/svg" style="color: transparent; fill: #28282A;" viewBox="0 0 18 18"><path clip-rule="evenodd" d="M5 5.5a2 2 0 114 0 2 2 0 01-4 0zM7 2a3.5 3.5 0 100 7 3.5 3.5 0 000-7zm-2.25 8h3.294c-.216.47-.373.974-.461 1.5H4.75a2.25 2.25 0 00-2.25 2.25v.75h5.341c.191.54.457 1.044.785 1.5H1v-2.25A3.75 3.75 0 014.75 10zm8.75-.5a3 3 0 102.892 3.8l1.446.4A4.502 4.502 0 019 12.5a4.5 4.5 0 017.5-3.354V8H18v4h-4v-1.5h1.736c-.55-.614-1.348-1-2.236-1z" fill-rule="evenodd"></path></svg>