<svg xmlns="http://www.w3.org/2000/svg" style="color: transparent; fill: #28282A;" viewBox="0 0 18 18"><path clip-rule="evenodd" d="M9 3a3.002 3.002 0 00-2.83 2l-.07.198.008.002a3.004 3.004 0 00.141 2l-1.374.6a4.487 4.487 0 01-.365-2.096 2.5 2.5 0 00.412 4.73l.578.136V12h7v-1.43l.578-.137a2.501 2.501 0 00.412-4.73 4.543 4.543 0 01-.365 2.097l-1.374-.6a3.004 3.004 0 00.142-2l.006-.002L11.83 5A3.001 3.001 0 009 3zm5 9v4H4v-4.291a4 4 0 01.95-7.671 4.5 4.5 0 018.1 0 4 4 0 01.95 7.671V12zm-8.5 1.5v1h7v-1h-7z" fill-rule="evenodd"></path></svg>