<svg xmlns="http://www.w3.org/2000/svg" style="color: transparent; fill: #28282A;" viewBox="0 0 18 18"><path clip-rule="evenodd" d="M11.102 1.5H6.898l-.46 2.073c-.3.142-.586.308-.855.495L3.556 3.43 1.454 7.07 3.02 8.507a6.071 6.071 0 000 .986L1.454 10.93l2.102 3.64 2.027-.638c.27.187.555.353.855.495l.46 2.073h4.204l.46-2.073c.3-.142.586-.308.856-.495l2.027.638 2.101-3.64-1.566-1.437a6.108 6.108 0 000-.986l1.566-1.437-2.101-3.64-2.027.638a5.997 5.997 0 00-.855-.495L11.101 1.5zM9 11.25a2.25 2.25 0 100-4.5 2.25 2.25 0 000 4.5z" fill-rule="evenodd"></path></svg>