<svg xmlns="http://www.w3.org/2000/svg" style="color: transparent; fill: #28282A;" viewBox="0 0 18 18"><path d="M10.5 2.25l.732-.163-.13-.587H10.5v.75zm-3 0V1.5h-.602l-.13.587.732.163zm3.413 1.86l-.732.162.087.39.372.146.273-.698zm1.364.788l-.468.586.312.25.381-.12-.225-.716zm1.819-.572l.65-.375-.302-.521-.574.18.226.716zm1.5 2.598l.507.553.443-.407-.3-.521-.65.375zM14.19 8.212l-.507-.552-.294.27.06.394.741-.112zm0 1.576l-.741-.112-.06.395.294.27.507-.553zm1.405 1.288l.65.375.3-.521-.443-.407-.507.553zm-1.5 2.598l-.226.715.574.181.301-.521-.65-.375zm-1.819-.572l.225-.716-.381-.12-.312.25.468.586zm-1.364.788l-.273-.698-.372.146-.087.39.732.162zm-.413 1.86v.75h.602l.13-.587-.732-.163zm-3 0l-.732.163.13.587H7.5v-.75zm-.413-1.86l.732-.162-.087-.39-.372-.146-.273.698zm-1.364-.788l.468-.586-.312-.25-.381.12.225.716zm-1.819.572l-.65.375.302.521.573-.18-.225-.716zm-1.5-2.598l-.507-.553-.443.407.3.521.65-.375zM3.81 9.788l.507.553.294-.27-.06-.395-.741.112zm0-1.576l.741.112.06-.395-.294-.27-.507.553zM2.404 6.924l-.65-.375-.3.521.443.407.507-.553zm1.5-2.598l.225-.715-.573-.181-.301.521.65.375zm1.819.572l-.225.716.381.12.312-.25-.468-.586zm1.364-.788l.273.698.372-.146.087-.39-.732-.162zM10.5 1.5h-3V3h3V1.5zm1.145 2.447l-.413-1.86-1.464.326.413 1.86 1.464-.326zm1.1.366a5.994 5.994 0 00-1.558-.902l-.547 1.397c.424.166.818.395 1.169.676l.937-1.171zm1.126-.702l-1.819.572.45 1.43 1.819-.572-.45-1.43zm2.374 2.938l-1.5-2.598-1.299.75 1.5 2.598 1.3-.75zm-1.547 2.216l1.405-1.288-1.014-1.106-1.405 1.289 1.014 1.105zM15 9c0-.305-.023-.606-.067-.9l-1.483.224c.033.22.05.446.05.676H15zm-.067.9c.044-.294.067-.595.067-.9h-1.5c0 .23-.017.456-.05.676l1.483.223zm1.17.623l-1.405-1.288-1.014 1.106 1.405 1.288 1.014-1.106zm-1.358 3.526l1.5-2.598-1.299-.75-1.5 2.598 1.3.75zm-2.693-.232l1.819.572.45-1.43-1.819-.573-.45 1.431zm-.865.772a5.995 5.995 0 001.559-.902l-.937-1.17c-.351.28-.745.509-1.17.675l.548 1.397zm.045 1.324l.413-1.86-1.464-.325-.413 1.86 1.464.325zM7.5 16.5h3V15h-3v1.5zm-1.145-2.447l.413 1.86 1.464-.326-.413-1.86-1.464.326zm-1.1-.366c.466.374.991.68 1.558.902l.547-1.397a4.494 4.494 0 01-1.169-.676l-.937 1.171zm-1.126.702l1.819-.572-.45-1.43-1.819.572.45 1.43zm-2.374-2.938l1.5 2.598 1.299-.75-1.5-2.598-1.3.75zm1.547-2.216l-1.405 1.288 1.014 1.106 1.405-1.288-1.014-1.106zM3 9c0 .305.023.606.067.9l1.483-.224A4.541 4.541 0 014.5 9H3zm.067-.9A6.042 6.042 0 003 9h1.5c0-.23.017-.456.05-.676L3.067 8.1zm-1.17-.623l1.405 1.288L4.316 7.66 2.91 6.37 1.897 7.477zM3.255 3.95l-1.5 2.598 1.299.75 1.5-2.598-1.3-.75zm2.693.232L4.129 3.61l-.45 1.43 1.819.573.45-1.431zm.865-.772a5.994 5.994 0 00-1.559.902l.937 1.17c.351-.28.745-.509 1.17-.675L6.812 3.41zm-.045-1.324l-.413 1.86 1.464.325.413-1.86-1.464-.325zM10.5 9A1.5 1.5 0 019 10.5V12a3 3 0 003-3h-1.5zM9 7.5A1.5 1.5 0 0110.5 9H12a3 3 0 00-3-3v1.5zM7.5 9A1.5 1.5 0 019 7.5V6a3 3 0 00-3 3h1.5zM9 10.5A1.5 1.5 0 017.5 9H6a3 3 0 003 3v-1.5z"></path></svg>