<svg xmlns="http://www.w3.org/2000/svg" style="color: transparent; fill: #28282A;" viewBox="0 0 18 18"><path d="M15.75 6.25h-9.5v5.5a2 2 0 002 2h4.375l2.279 2.188a.5.5 0 00.846-.361V6.25z" opacity=".15"></path><path clip-rule="evenodd" d="M1.5 2.5h11v3h4v10.077c0 1.101-1.321 1.664-2.116.902l-2.06-1.979H8.25a2.75 2.75 0 01-2.75-2.75V10.5h-.399l-1.39 1.67c-.75.897-2.211.368-2.211-.801V2.5zm4 6.5V5.5H11V4H3v6.678L4.174 9.27 4.399 9H5.5zm9.5 4.75V7H7v4.75c0 .69.56 1.25 1.25 1.25h4.677l.217.209L15 14.99v-1.24z" fill-rule="evenodd"></path></svg>