<svg xmlns="http://www.w3.org/2000/svg" style="color: transparent; fill: #28282A;" viewBox="0 0 18 18"><path clip-rule="evenodd" d="M7.5 5a1.5 1.5 0 113 0 1.5 1.5 0 01-3 0zM6.333 6.375A4.496 4.496 0 004.527 9.5a3 3 0 012.535 4.563c.587.28 1.244.437 1.938.437s1.351-.157 1.938-.438A3 3 0 0113.473 9.5a4.496 4.496 0 00-1.805-3.125 3 3 0 01-5.334 0zm5.66-1.576a3 3 0 00-5.986 0A5.998 5.998 0 003 9.902a3 3 0 002.913 5.244A5.972 5.972 0 009 16a5.972 5.972 0 003.087-.854A3 3 0 0015 9.902a5.998 5.998 0 00-3.007-5.103zM3.75 11.2a1.5 1.5 0 111.5 2.598 1.5 1.5 0 01-1.5-2.598zm10.5 0a1.5 1.5 0 10-1.5 2.598 1.5 1.5 0 001.5-2.598z" fill-rule="evenodd"></path></svg>