<svg xmlns="http://www.w3.org/2000/svg" style="color: transparent; fill: #28282A;" viewBox="0 0 18 18"><path clip-rule="evenodd" d="M8.25 3.604V4.5h1.5v-.896c.916.259 1.637.98 1.896 1.896H6.354A2.756 2.756 0 018.25 3.604zm0-1.538A4.254 4.254 0 004.816 5.5H4V7h1.536a3.5 3.5 0 106.929 0H14V5.5h-.816A4.254 4.254 0 009.75 2.066V1.5h-1.5v.566zM7 7.5c0-.173.022-.34.063-.5h3.874A2.005 2.005 0 019 9.5a2 2 0 01-2-2zm-2.5 8.25c0-.98.626-1.813 1.5-2.122V16h1.5v-2.5h3V16H12v-2.372a2.251 2.251 0 011.5 2.122V16H15v-.25A3.75 3.75 0 0011.25 12h-4.5A3.75 3.75 0 003 15.75V16h1.5v-.25z" fill-rule="evenodd"></path></svg>