<svg xmlns="http://www.w3.org/2000/svg" style="color: transparent; fill: #28282A;" viewBox="0 0 18 18"><path clip-rule="evenodd" d="M8.25 3.046A5.97 5.97 0 005.32 4.26l.852.85L5.11 6.173l-.85-.851A5.97 5.97 0 003.045 8.25H4.25v1.5H3.046a6.001 6.001 0 0011.908 0H13.75v-1.5h1.204a5.97 5.97 0 00-1.214-2.93l-.85.852-1.061-1.061.85-.85A5.97 5.97 0 009.75 3.045V4.25h-1.5V3.046zM9 1.5a7.5 7.5 0 100 15 7.5 7.5 0 000-15zm-.177 8.738l-.793.792-1.06-1.06.792-.793a1.25 1.25 0 011.415-1.415L10.97 5.97l1.06 1.06-1.792 1.793a1.25 1.25 0 01-1.415 1.415z" fill-rule="evenodd"></path></svg>