<svg xmlns="http://www.w3.org/2000/svg" style="color: transparent; fill: #28282A;" viewBox="0 0 18 18"><path clip-rule="evenodd" d="M7.226 4.075c.688.145 1.3.492 1.774.976a3.498 3.498 0 011.774-.976 2 2 0 00-3.548 0zm-1.613.038a3.501 3.501 0 016.773 0A3.504 3.504 0 0114.966 7h.285v.75a6.251 6.251 0 01-5.5 6.206V15.5H13V17H5v-1.5h3.25v-1.544a6.251 6.251 0 01-5.5-6.206V7h.285a3.504 3.504 0 012.578-2.887zM6.5 5.5A2 2 0 004.563 7h3.472c.03-.204.077-.403.14-.594A1.998 1.998 0 006.5 5.5zm4.85.006A2.001 2.001 0 009.563 7h3.874a2 2 0 00-2.087-1.494zM4.31 8.5a4.751 4.751 0 009.382 0H4.31z" fill-rule="evenodd"></path></svg>