<svg xmlns="http://www.w3.org/2000/svg" style="color: transparent; fill: #28282A;" viewBox="0 0 18 18"><path clip-rule="evenodd" d="M9 7.75a2.5 2.5 0 100-5 2.5 2.5 0 000 5zm-1.75 5a2.5 2.5 0 11-5 0 2.5 2.5 0 015 0zm8.5 0a2.5 2.5 0 11-5 0 2.5 2.5 0 015 0z" fill-rule="evenodd"></path><path d="M10.75 5.25A1.75 1.75 0 019 7v1.5a3.25 3.25 0 003.25-3.25h-1.5zM9 3.5c.966 0 1.75.784 1.75 1.75h1.5A3.25 3.25 0 009 2v1.5zM7.25 5.25c0-.966.784-1.75 1.75-1.75V2a3.25 3.25 0 00-3.25 3.25h1.5zM9 7a1.75 1.75 0 01-1.75-1.75h-1.5A3.25 3.25 0 009 8.5V7zm-4.25 9A3.25 3.25 0 008 12.75H6.5a1.75 1.75 0 01-1.75 1.75V16zM1.5 12.75A3.25 3.25 0 004.75 16v-1.5A1.75 1.75 0 013 12.75H1.5zM4.75 9.5a3.25 3.25 0 00-3.25 3.25H3c0-.966.784-1.75 1.75-1.75V9.5zM8 12.75A3.25 3.25 0 004.75 9.5V11c.966 0 1.75.784 1.75 1.75H8zM13.25 16a3.25 3.25 0 003.25-3.25H15a1.75 1.75 0 01-1.75 1.75V16zM10 12.75A3.25 3.25 0 0013.25 16v-1.5a1.75 1.75 0 01-1.75-1.75H10zm3.25-3.25A3.25 3.25 0 0010 12.75h1.5c0-.966.784-1.75 1.75-1.75V9.5zm3.25 3.25a3.25 3.25 0 00-3.25-3.25V11c.966 0 1.75.784 1.75 1.75h1.5z"></path></svg>