<svg xmlns="http://www.w3.org/2000/svg" style="color: transparent; fill: #28282A;" viewBox="0 0 18 18"><path clip-rule="evenodd" d="M9.75 3.81l1.22 1.22 1.06-1.06-2.5-2.5L9 .94l-.53.53-2.5 2.5 1.06 1.06 1.22-1.22V7.5H2V9h14V7.5H9.75V3.81zM1 10l1.875 3L1 16h1.769l.99-1.585L4.75 16h1.769l-1.875-3 1.875-3H4.75l-.99 1.585L2.768 10H1zm7.5 2.63V16H7v-4.957c0-.977 1.259-1.374 1.82-.573l.68.972.68-.972c.561-.801 1.82-.405 1.82.573V16h-1.5v-3.37l-.386.55-.614.878-.614-.878-.386-.55zM13.75 16H13v-6h1.5v4.5h2V16h-2.75z" fill-rule="evenodd"></path></svg>