<svg xmlns="http://www.w3.org/2000/svg" style="color: transparent; fill: #28282A;" viewBox="0 0 18 18"><path clip-rule="evenodd" d="M3 9a6 6 0 1112 0A6 6 0 013 9zm6-7.5a7.5 7.5 0 100 15 7.5 7.5 0 000-15zM7 8a1 1 0 100-2 1 1 0 000 2zm5-1a1 1 0 11-2 0 1 1 0 012 0zm-5.85 4.5l.675.328-.001.002v.001l-.001.002.002-.005.018-.033a2.905 2.905 0 01.498-.625c.363-.343.9-.67 1.66-.67.76 0 1.296.327 1.659.67a2.902 2.902 0 01.516.658l.002.005v-.002l-.002-.001v-.001l.674-.329.674-.328v-.002l-.002-.004-.005-.009-.013-.025a3.708 3.708 0 00-.197-.326 4.396 4.396 0 00-.617-.726A3.851 3.851 0 009 9c-1.24 0-2.128.548-2.69 1.08a4.398 4.398 0 00-.772.975 2.634 2.634 0 00-.042.077l-.013.025-.004.01-.002.003v.001h-.001l.674.329z" fill-rule="evenodd"></path></svg>