<svg xmlns="http://www.w3.org/2000/svg" style="color: transparent; fill: #28282A;" viewBox="0 0 18 18"><path clip-rule="evenodd" d="M3 9a6 6 0 1112 0A6 6 0 013 9zm6-7.5a7.5 7.5 0 100 15 7.5 7.5 0 000-15zM7 8a1 1 0 100-2 1 1 0 000 2zm5-1a1 1 0 11-2 0 1 1 0 012 0zM6.15 9.5l-.674.328.001.002.002.004.004.009.013.025.042.077a4.398 4.398 0 00.771.975A3.852 3.852 0 009 12c1.24 0 2.128-.548 2.69-1.08a4.396 4.396 0 00.772-.975l.042-.077.013-.025.005-.01.001-.003.001-.001-.674-.329-.674-.328V9.17l.001-.001v-.002l-.001.005-.019.033a2.898 2.898 0 01-.497.625c-.363.343-.9.67-1.66.67-.76 0-1.296-.327-1.66-.67a2.901 2.901 0 01-.515-.658l-.002-.004.001.002v.001M6.15 9.5l.675-.328-.675.328zm.675-.328z" fill-rule="evenodd"></path></svg>