<svg xmlns="http://www.w3.org/2000/svg" style="color: transparent; fill: #28282A;" viewBox="0 0 18 18"><path clip-rule="evenodd" d="M7.079 1.774l-.58-.706-.579.706L1.848 6.73c-.884 1.078-.407 2.604.737 3.104l-.737.896C.776 12.037 1.705 14 3.394 14h2.354v3h1.5v-3h2.357c.126 0 .248-.011.365-.032.118.021.238.032.362.032h1.416v3h1.5v-3h1.416c1.672 0 2.606-1.93 1.568-3.242l-.516-.651c.864-.65 1.129-1.972.315-2.914L13.066 3.76l-.568-.658-.567.658-1.65 1.91-3.202-3.896zM9.605 8.5a.5.5 0 00.386-.817L6.5 3.432l-3.492 4.25a.5.5 0 00.386.818H5.622L4.615 9.726l-1.607 1.957a.5.5 0 00.386.817h6.211a.498.498 0 00.386-.817L8.384 9.726 7.377 8.5H9.605zm1.316 1.95l.23.28a1.96 1.96 0 01.392 1.77h3.12a.5.5 0 00.393-.81l-1.167-1.474L12.927 9h1.59a.5.5 0 00.379-.827l-2.398-2.776-1.255 1.454A1.98 1.98 0 0111.338 9h.73l-.961 1.216-.186.234z" fill-rule="evenodd"></path></svg>