<svg xmlns="http://www.w3.org/2000/svg" style="color: transparent; fill: #28282A;" viewBox="0 0 18 18"><path clip-rule="evenodd" d="M9 3.75C9 2.784 9.784 2 10.75 2h2.5c.967 0 1.75.784 1.75 1.75v9.5A2.75 2.75 0 0112.25 16h-6.5A2.75 2.75 0 013 13.25V8.94l.22-.22.22-.22-.97-.97L1.94 7l.53-.53 2.5-2.5.53-.53.53.53.97.97.22-.22.22-.22H9v-.75zM5.94 6l-.44-.44L4.06 7l.44.44L5.94 6zm7.56-2.25v.75h-3v-.75a.25.25 0 01.25-.25h2.5a.25.25 0 01.25.25zM9.75 6h3.75v7.25c0 .69-.56 1.25-1.25 1.25h-6.5c-.69 0-1.25-.56-1.25-1.25V9.56L8.06 6h1.69z" fill-rule="evenodd"></path></svg>