<svg xmlns="http://www.w3.org/2000/svg" style="color: transparent; fill: #28282A;" viewBox="0 0 18 18"><path clip-rule="evenodd" d="M7.5 1.5h-.602l-.13.587-.33 1.486c-.3.142-.586.308-.856.495L4.13 3.61l-.573-.181-.301.521-1.5 2.598-.301.521.443.407 1.123 1.03C3.007 8.669 3 8.834 3 9h1.5c0-.23.017-.456.05-.676l.06-.395-.294-.27-.961-.881.898-1.556 1.245.392.381.12.312-.25c.351-.28.745-.51 1.17-.676l.371-.146.087-.39L8.102 3h1.796l.283 1.272.087.39.372.146c.424.166.818.395 1.169.676l.312.25.381-.12 1.245-.392.898 1.556-.96.882-.295.27.06.394a4.545 4.545 0 010 1.352l-.06.395.294.27.961.881-.898 1.556-1.245-.392-.381-.12-.312.25c-.351.28-.745.51-1.17.676l-.371.146-.087.39L9.898 15H8.102v-.002L6.9 16.5h4.202l.13-.587.33-1.486c.3-.142.586-.308.856-.495l1.453.457.573.181.301-.521 1.5-2.598.301-.521-.443-.407-1.123-1.03a6.062 6.062 0 000-.986l1.123-1.03.443-.407-.3-.521-1.5-2.598-.302-.521-.574.18-1.452.458a5.986 5.986 0 00-.856-.495l-.33-1.486-.13-.587H7.5z" fill-rule="evenodd"></path><path d="M9.929 6.179l.53.53.855-.855-1.146-.386-.24.71zm.46 3.31l-.53-.53.53.53zm1.425-1.425l.71-.24-.385-1.145-.855.855.53.53zM7.85 11.793l.282-.695-.46-.188-.353.352.53.53zM5.332 14.31l-.53.53.53.53.53-.53-.53-.53zm-1.65-1.65l-.53-.53-.53.53.53.53.53-.53zM6.2 10.143l.53.53.352-.352-.188-.46-.694.282zm3.968-4.675a3.742 3.742 0 00-3.845.898l1.061 1.06a2.242 2.242 0 012.305-.537l.48-1.421zM9.035 8.133l1.424-1.424-1.06-1.06-1.425 1.423 1.06 1.061zm0 .354a.25.25 0 010-.354l-1.061-1.06a1.75 1.75 0 000 2.474l1.06-1.06zm.47.471l-.47-.471-1.061 1.06.471.472 1.06-1.06zm.354 0a.25.25 0 01-.353 0l-1.06 1.06a1.75 1.75 0 002.474 0l-1.06-1.06zm1.425-1.424L9.859 8.958l1.061 1.06 1.425-1.424-1.061-1.06zm.343 4.135a3.742 3.742 0 00.898-3.844l-1.422.479a2.242 2.242 0 01-.537 2.305l1.06 1.06zm-4.06.819c1.352.55 2.961.28 4.06-.819l-1.061-1.06c-.656.655-1.62.82-2.434.49l-.565 1.389zm-.248-1.226L4.802 13.78l1.06 1.06 2.518-2.517-1.06-1.06zM5.863 13.78l-1.65-1.65-1.06 1.06 1.649 1.65 1.06-1.06zm-1.65-.59l2.517-2.517-1.06-1.06-2.518 2.517 1.06 1.06zm2.11-6.824a3.744 3.744 0 00-.818 4.06l1.39-.566a2.244 2.244 0 01.489-2.433l-1.06-1.061z"></path></svg>