<svg xmlns="http://www.w3.org/2000/svg" style="color: transparent; fill: #28282A;" viewBox="0 0 18 18"><path clip-rule="evenodd" d="M12 4.5a1 1 0 112 0 1 1 0 01-2 0zM13 2a2.5 2.5 0 100 5 2.5 2.5 0 000-5zm-1.25 7.5a1.25 1.25 0 00-.35.05 5.235 5.235 0 00-1.54-.798A2.74 2.74 0 0111.75 8h2.5A2.75 2.75 0 0117 10.75V13h-3.553a5.212 5.212 0 00-.452-1.5H15.5v-.75c0-.69-.56-1.25-1.25-1.25h-2.5zm-7 2a2.25 2.25 0 00-2.25 2.25v.75h8v-.75a2.25 2.25 0 00-2.25-2.25h-3.5zM1 13.75A3.75 3.75 0 014.75 10h3.5A3.75 3.75 0 0112 13.75V16H1v-2.25zM5 6a1.5 1.5 0 113 0 1.5 1.5 0 01-3 0zm1.5-3a3 3 0 100 6 3 3 0 000-6z" fill-rule="evenodd"></path></svg>