<svg xmlns="http://www.w3.org/2000/svg" style="color: transparent; fill: #28282A;" viewBox="0 0 18 18"><path clip-rule="evenodd" d="M6.75 11.25h-2a2 2 0 01-2-2v-6.5h8.5v4h4v6.5a2 2 0 01-2 2h-4.5a2 2 0 01-2-2v-2z" fill-rule="evenodd"></path><path d="M6.75 11.25h.75v-.75h-.75v.75zm-4-8.5V2H2v.75h.75zm8.5 0H12V2h-.75v.75zm0 4h-.75v.75h.75v-.75zm4 0H16V6h-.75v.75zM4.75 12h2v-1.5h-2V12zM2 9.25A2.75 2.75 0 004.75 12v-1.5c-.69 0-1.25-.56-1.25-1.25H2zm0-6.5v6.5h1.5v-6.5H2zM11.25 2h-8.5v1.5h8.5V2zM12 6.75v-4h-1.5v4H12zM15.25 6h-4v1.5h4V6zm.75 7.25v-6.5h-1.5v6.5H16zM13.25 16A2.75 2.75 0 0016 13.25h-1.5c0 .69-.56 1.25-1.25 1.25V16zm-4.5 0h4.5v-1.5h-4.5V16zM6 13.25A2.75 2.75 0 008.75 16v-1.5c-.69 0-1.25-.56-1.25-1.25H6zm0-2v2h1.5v-2H6z"></path></svg>