<svg xmlns="http://www.w3.org/2000/svg" style="color: transparent; fill: #28282A;" viewBox="0 0 18 18"><path d="M6.75 2.75V2H6v.75h.75zm4.5 0H12V2h-.75v.75zm-4.5 4v.75h.75v-.75h-.75zm-4 0V6H2v.75h.75zm0 4.5H2V12h.75v-.75zm4 0h.75v-.75h-.75v.75zm0 4H6V16h.75v-.75zm4.5 0V16H12v-.75h-.75zm0-4v-.75h-.75v.75h.75zm4 0V12H16v-.75h-.75zm0-4.5H16V6h-.75v.75zm-4 0h-.75v.75h.75v-.75zM6.75 3.5h4.5V2h-4.5v1.5zm.75 3.25v-4H6v4h1.5zm-4.75.75h4V6h-4v1.5zm.75 3.75v-4.5H2v4.5h1.5zm3.25-.75h-4V12h4v-1.5zm.75 4.75v-4H6v4h1.5zm3.75-.75h-4.5V16h4.5v-1.5zm-.75-3.25v4H12v-4h-1.5zm4.75-.75h-4V12h4v-1.5zm-.75-3.75v4.5H16v-4.5h-1.5zm-3.25.75h4V6h-4v1.5zm-.75-4.75v4H12v-4h-1.5z"></path></svg>