<svg xmlns="http://www.w3.org/2000/svg" style="color: transparent; fill: #28282A;" viewBox="0 0 18 18"><path clip-rule="evenodd" d="M3.323 4.33a3.65 3.65 0 015.182 0L9 4.826l.495-.498a3.65 3.65 0 015.182 0 3.7 3.7 0 010 5.212L9 15.25 3.323 9.54a3.7 3.7 0 010-5.21z" fill-rule="evenodd"></path><path d="M8.505 4.33l.532-.53-.532.53zm-5.182 0l-.532-.53.532.53zM9 4.826l-.532.529L9 5.89l.532-.535L9 4.826zm.495-.498l.532.53-.532-.53zm5.182 0l-.532.53.532-.53zm0 5.212l-.532-.529.532.529zM9 15.25l-.532.529.532.535.532-.535L9 15.25zM3.323 9.54l-.532.53.532-.53zM9.037 3.8a4.4 4.4 0 00-6.246 0l1.064 1.058a2.9 2.9 0 014.118 0l1.064-1.057zm.495.498l-.495-.497-1.064 1.057.495.498 1.064-1.058zm-.57-.497l-.494.497 1.064 1.058.495-.498-1.064-1.057zm6.247 0a4.4 4.4 0 00-6.246 0l1.064 1.057a2.9 2.9 0 014.118 0l1.064-1.057zm0 6.269a4.45 4.45 0 000-6.27l-1.064 1.058a2.95 2.95 0 010 4.154l1.064 1.058zM2.79 3.8a4.45 4.45 0 000 6.27l1.064-1.058a2.95 2.95 0 010-4.154L2.791 3.801zm6.74 11.979l5.678-5.71-1.064-1.057-5.677 5.71 1.064 1.057zm-6.74-5.71l5.677 5.71 1.064-1.058-5.677-5.709-1.064 1.058z"></path></svg>