<svg xmlns="http://www.w3.org/2000/svg" style="color: transparent; fill: #28282A;" viewBox="0 0 18 18"><path clip-rule="evenodd" d="M2.47 3.53l12 12 1.06-1.06-1.355-1.356c1.208-.989 2.174-2.312 2.794-3.83L17.085 9l-.116-.283C15.61 5.385 12.583 3 9 3a7.988 7.988 0 00-3.914 1.026L3.53 2.47 2.47 3.53zM6.2 5.14A6.48 6.48 0 019 4.5c2.778 0 5.242 1.792 6.459 4.5-.554 1.233-1.367 2.277-2.351 3.047l-1.523-1.523a3 3 0 00-4.109-4.109L6.2 5.14zm4.25 4.249A1.5 1.5 0 009 7.5c-.134 0-.265.018-.389.05L10.45 9.39zm-7.703-3.46a9.879 9.879 0 00-1.716 2.788L.915 9l.116.283C2.39 12.615 5.417 15 9.001 15a7.93 7.93 0 002.435-.382l-1.232-1.232A6.41 6.41 0 019 13.5c-2.778 0-5.242-1.792-6.459-4.5A8.333 8.333 0 013.81 6.991L2.747 5.93zm6.065 6.065a3 3 0 01-2.806-2.806l2.806 2.806z" fill-rule="evenodd"></path></svg>