<svg xmlns="http://www.w3.org/2000/svg" style="color: transparent; fill: #28282A;" viewBox="0 0 18 18"><path clip-rule="evenodd" d="M6.25 3.5a.25.25 0 00-.25.25V14.5h6V3.75a.25.25 0 00-.25-.25h-5.5zm-1.75.25V6H3.25A1.75 1.75 0 001.5 7.75V16h15V7.75A1.75 1.75 0 0014.75 6H13.5V3.75A1.75 1.75 0 0011.75 2h-5.5A1.75 1.75 0 004.5 3.75zM3.25 7.5H4.5v7H3V7.75a.25.25 0 01.25-.25zm11.75 7h-1.5v-7h1.25a.25.25 0 01.25.25v6.75zm-7.5-8h3V5h-3v1.5zm3 3h-3V8h3v1.5zm-3 3h3V11h-3v1.5z" fill-rule="evenodd"></path></svg>