<svg xmlns="http://www.w3.org/2000/svg" style="color: transparent; fill: #28282A;" viewBox="0 0 18 18"><path clip-rule="evenodd" d="M3 3.5h1.5v1.7a3.75 3.75 0 001.985 3.309L7.406 9l-.92.491A3.75 3.75 0 004.5 12.8v1.7H3V16h12v-1.5h-1.5v-1.7a3.75 3.75 0 00-1.985-3.309L10.594 9l.92-.491A3.75 3.75 0 0013.5 5.2V3.5H15V2H3v1.5zm9 0H6v1.7c0 .83.458 1.594 1.191 1.985L9 8.15l1.809-.965A2.25 2.25 0 0012 5.2V3.5zM9 9.85l-1.809.965A2.25 2.25 0 006 12.8v1.7h6v-1.7a2.25 2.25 0 00-1.191-1.985L9 9.85z" fill-rule="evenodd"></path></svg>