<svg xmlns="http://www.w3.org/2000/svg" style="color: transparent; fill: #28282A;" viewBox="0 0 18 18"><path clip-rule="evenodd" d="M2.094 10.151l1.48-.247a5.494 5.494 0 001.93 3.342l-.953 1.158a6.993 6.993 0 01-2.457-4.253zm1.48-2.055A5.501 5.501 0 0113.611 6h-2.36v1.5H16V2.75h-1.5v1.92A7.002 7.002 0 002.094 7.85l1.48.246zm3.496 6.056l-.527 1.405A6.986 6.986 0 009 16c.865 0 1.692-.157 2.457-.443l-.527-1.405c-.6.225-1.25.348-1.93.348-.68 0-1.33-.123-1.93-.348zm5.426-.906l.953 1.158a7.02 7.02 0 002.065-2.836l-1.396-.55a5.512 5.512 0 01-1.622 2.228z" fill-rule="evenodd"></path></svg>