<svg xmlns="http://www.w3.org/2000/svg" style="color: transparent; fill: #28282A;" viewBox="0 0 18 18"><path clip-rule="evenodd" d="M15.276 7.229a2.432 2.432 0 00-3.473 0l-4.54 4.596a3.932 3.932 0 01-5.606 0 4.029 4.029 0 010-5.65 3.932 3.932 0 015.607 0l.788.798-1.067 1.054-.789-.798a2.432 2.432 0 00-3.472 0 2.529 2.529 0 000 3.542c.96.972 2.512.972 3.472 0l4.54-4.596a3.932 3.932 0 015.607 0 4.029 4.029 0 010 5.65 3.932 3.932 0 01-5.607 0l-.788-.798 1.067-1.054.788.798c.96.972 2.513.972 3.473 0a2.529 2.529 0 000-3.542z" fill-rule="evenodd"></path></svg>