<svg xmlns="http://www.w3.org/2000/svg" style="color: transparent; fill: #28282A;" viewBox="0 0 18 18"><path clip-rule="evenodd" d="M3.5 8c0-2.368 2.335-4.5 5.5-4.5s5.5 2.132 5.5 4.5-2.335 4.5-5.5 4.5c-.06 0-.118 0-.176-.002.113-.258.176-.54.176-.828a2 2 0 00-3.93-.526C4.086 10.314 3.5 9.187 3.5 8zm2.785 5.53C7.13 13.833 8.05 14 9 14c3.738 0 7-2.57 7-6s-3.262-6-7-6-7 2.57-7 6c0 2.052 1.167 3.795 2.904 4.866-.041.204-.1.411-.186.606-.13.302-.311.548-.558.721-.243.17-.603.307-1.16.307V16c.818 0 1.49-.207 2.02-.578a3.15 3.15 0 001.074-1.352c.078-.179.14-.36.191-.54zm.212-1.52c.003-.126.003-.234.003-.318v-.022a.5.5 0 011 0c0 .288-.219.51-.439.545a6.022 6.022 0 01-.564-.205z" fill-rule="evenodd"></path></svg>