<svg xmlns="http://www.w3.org/2000/svg" style="color: transparent; fill: #28282A;" viewBox="0 0 18 18"><path clip-rule="evenodd" d="M14.838 3.162a3.967 3.967 0 00-5.61 0L7.71 4.68l1.061 1.06 1.517-1.516a2.467 2.467 0 113.488 3.489l-1.516 1.516 1.06 1.06 1.517-1.516a3.967 3.967 0 000-5.61zM4.222 10.29L5.74 8.772l-1.06-1.06-1.517 1.516a3.967 3.967 0 005.61 5.61l1.517-1.516-1.061-1.06-1.517 1.516a2.467 2.467 0 01-3.489-3.49zm2.48 2.07l5.657-5.657-1.061-1.06-5.657 5.656 1.06 1.061z" fill-rule="evenodd"></path></svg>