<svg xmlns="http://www.w3.org/2000/svg" style="color: transparent; fill: #28282A;" viewBox="0 0 18 18"><path d="M10.75 2.75h.75V2h-.75v.75zm-3.5 0V2H6.5v.75h.75zm3.5 3.219H10v1.299l1.125-.65-.375-.65zm2.788-1.61l.65-.375-.376-.65-.65.376.376.65zm1.75 3.032l.375.649.65-.375-.376-.65-.65.376zM12.5 9l-.375-.65L11 9l1.125.65L12.5 9zm2.788 1.61l.65.375.374-.65-.65-.375-.374.65zm-1.75 3.03l-.375.65.65.375.374-.65-.65-.374zm-2.788-1.609l.375-.65L10 10.733v1.3h.75zm0 3.219V16h.75v-.75h-.75zm-3.5 0H6.5V16h.75v-.75zm0-3.219H8v-1.299l-1.125.65.375.649zm-2.788 1.61l-.65.374.376.65.65-.375-.376-.65zm-1.75-3.032l-.375-.65-.65.376.376.65.65-.376zM5.5 9l.375.65L7 9l-1.125-.65L5.5 9zM2.713 7.39l-.65-.374-.375.65.65.374.375-.65zm1.75-3.03l.375-.65-.65-.375-.375.65.65.374zM7.25 5.968l-.375.65L8 7.267v-1.3h-.75zM10.75 2h-3.5v1.5h3.5V2zm.75 3.969V2.75H10v3.219h1.5zm-.375.65l2.788-1.61-.75-1.3-2.788 1.61.75 1.3zm1.763-1.885l1.75 3.032 1.3-.75-1.75-3.032-1.3.75zm2.025 2.007l-2.788 1.61.75 1.298 2.788-1.609-.75-1.299zm.75 3.219l-2.788-1.61-.75 1.3 2.788 1.609.75-1.299zm-1.476 4.056l1.75-3.031-1.299-.75-1.75 3.03 1.3.75zm-3.812-1.335l2.788 1.61.75-1.3-2.788-1.61-.75 1.3zM11.5 15.25v-3.219H10v3.219h1.5zM7.25 16h3.5v-1.5h-3.5V16zm-.75-3.969v3.219H8v-3.219H6.5zm.375-.65l-2.788 1.61.75 1.299 2.788-1.61-.75-1.298zm-1.763 1.884l-1.75-3.03-1.3.75 1.75 3.03 1.3-.75zM3.087 11.26l2.788-1.61-.75-1.299-2.788 1.61.75 1.299zm-.75-3.219l2.788 1.61.75-1.3-2.787-1.609-.75 1.3zm1.476-4.056l-1.75 3.032 1.299.75 1.75-3.032-1.299-.75zM7.625 5.32L4.838 3.71l-.75 1.299 2.787 1.61.75-1.3zM6.5 2.75v3.219H8V2.75H6.5z"></path></svg>