<svg xmlns="http://www.w3.org/2000/svg" style="color: transparent; fill: #28282A;" viewBox="0 0 18 18"><path d="M7 3.25l.682-.312L7 1.45l-.682 1.488L7 3.25zm3.608 7.873l-.681.312.608 1.328.725-1.268-.652-.372zM1.5 15.25l-.682-.313L.331 16H1.5v-.75zm14.75 0V16h1.292l-.64-1.122-.652.372zm-4-7l.651-.372-.651-1.14-.651 1.14.651.372zM6.318 3.562l3.609 7.873 1.363-.625-3.608-7.872-1.364.624zm-4.136 12l5.5-12-1.364-.624-5.5 12 1.364.624zM8.25 14.5H1.5V16h6.75v-1.5zm4.25 0H8.25V16h4.25v-1.5zm3.75 0H12.5V16h3.75v-1.5zm-4.651-5.878l4 7 1.302-.744-4-7-1.302.744zm-.34 2.873l1.642-2.873-1.302-.744-1.642 2.873 1.303.744z"></path></svg>