<svg xmlns="http://www.w3.org/2000/svg" style="color: transparent; fill: #28282A;" viewBox="0 0 18 18"><path clip-rule="evenodd" d="M2.541 9c1.217 2.708 3.681 4.5 6.46 4.5 1.063 0 2.08-.263 2.999-.739v1.652A7.938 7.938 0 019 15c-3.583 0-6.61-2.385-7.969-5.717L.916 9l.115-.283C2.391 5.385 5.417 3 9.001 3c2.502 0 4.733 1.163 6.314 3h-2.147C11.98 5.05 10.538 4.5 9 4.5 6.222 4.5 3.758 6.292 2.541 9zm6.46-1.5a1.5 1.5 0 100 3 1.5 1.5 0 000-3zM6 9a3 3 0 116 0 3 3 0 01-6 0zM14 14h2v2h-2v-2zm2-6h-2l.25 5h1.5L16 8z" fill-rule="evenodd"></path></svg>