<svg xmlns="http://www.w3.org/2000/svg" style="color: transparent; fill: #28282A;" viewBox="0 0 18 18"><path clip-rule="evenodd" d="M8.5 4a.5.5 0 111 0 .5.5 0 01-1 0zM9 2a2 2 0 00-.75 3.855V7.25A.75.75 0 017.5 8H5.25A2.25 2.25 0 003 10.25v1.518A2 2 0 004 15.5a2 2 0 00.5-3.937V10.25a.75.75 0 01.75-.75H7.5c.263 0 .515-.045.75-.128v2.273a2 2 0 101.5 0V9.372c.235.083.487.128.75.128h2.25a.75.75 0 01.75.75v1.313a2 2 0 101.5.205V10.25A2.25 2.25 0 0012.75 8H10.5a.75.75 0 01-.75-.75V5.855A2 2 0 009 2zM4 13a.5.5 0 100 1 .5.5 0 000-1zm5 0a.5.5 0 100 1 .5.5 0 000-1zm5 0a.5.5 0 100 1 .5.5 0 000-1z" fill-rule="evenodd"></path></svg>