<svg xmlns="http://www.w3.org/2000/svg" style="color: transparent; fill: #28282A;" viewBox="0 0 18 18"><path clip-rule="evenodd" d="M12.177 3.909l.794-1.273a7.54 7.54 0 012.393 2.393l-1.273.794a6.031 6.031 0 00-1.914-1.914zm2.67 3.737l1.461-.338a7.525 7.525 0 010 3.385l-1.461-.339a6.017 6.017 0 000-2.708zm-.756 4.53l1.273.795a7.539 7.539 0 01-2.393 2.393l-.795-1.273a6.031 6.031 0 001.915-1.914zM9 3c.466 0 .919.053 1.354.153l.338-1.461a7.523 7.523 0 00-3.385 0l.339 1.461C8.08 3.053 8.534 3 9 3zM2.636 5.03a7.54 7.54 0 012.393-2.394l.794 1.273A6.031 6.031 0 003.91 5.824L2.636 5.03zm-.944 2.278a7.523 7.523 0 000 3.384l1.461-.338a6.019 6.019 0 010-2.708l-1.461-.338zm.944 5.663a7.54 7.54 0 002.393 2.393l.794-1.273a6.032 6.032 0 01-1.914-1.914l-1.273.794zm4.672 3.337a7.526 7.526 0 003.384 0l-.338-1.461a6.019 6.019 0 01-2.708 0l-.338 1.461zM13.03 7.28l-4.5 4.5-.53.53-.53-.53-2.5-2.5 1.06-1.06L8 10.19l3.97-3.97 1.06 1.06z" fill-rule="evenodd"></path></svg>