<svg xmlns="http://www.w3.org/2000/svg" style="color: transparent; fill: #28282A;" viewBox="0 0 18 18"><path clip-rule="evenodd" d="M7.25 3.75h-3.5v9.5a1 1 0 001 1h1.5a1 1 0 001-1v-9.5zm7 0h-3.5v9.5a1 1 0 001 1h1.5a1 1 0 001-1v-9.5z" fill-rule="evenodd"></path><path d="M3.75 3.75V3H3v.75h.75zm3.5 0H8V3h-.75v.75zm3.5 0V3H10v.75h.75zm3.5 0H15V3h-.75v.75zm-10.5.75h3.5V3h-3.5v1.5zm.75 8.75v-9.5H3v9.5h1.5zm.25.25a.25.25 0 01-.25-.25H3c0 .966.784 1.75 1.75 1.75v-1.5zm1.5 0h-1.5V15h1.5v-1.5zm.25-.25a.25.25 0 01-.25.25V15A1.75 1.75 0 008 13.25H6.5zm0-9.5v9.5H8v-9.5H6.5zm4.25.75h3.5V3h-3.5v1.5zm.75 8.75v-9.5H10v9.5h1.5zm.25.25a.25.25 0 01-.25-.25H10c0 .966.784 1.75 1.75 1.75v-1.5zm1.5 0h-1.5V15h1.5v-1.5zm.25-.25a.25.25 0 01-.25.25V15A1.75 1.75 0 0015 13.25h-1.5zm0-9.5v9.5H15v-9.5h-1.5z"></path></svg>