<svg xmlns="http://www.w3.org/2000/svg" style="color: transparent; fill: #28282A;" viewBox="0 0 18 18"><path clip-rule="evenodd" d="M8.25 15v1h1.5v-1h.34A2.909 2.909 0 0013 12.09v-.93a2.91 2.91 0 00-2.91-2.91h-.34V4.5h.5c.69 0 1.25.56 1.25 1.25v.487H13V5.75A2.75 2.75 0 0010.25 3h-.5V2h-1.5v1h-.34A2.91 2.91 0 005 5.91v.93a2.91 2.91 0 002.91 2.91h.34v3.75h-.5c-.69 0-1.25-.56-1.25-1.25v-.487H5v.487A2.75 2.75 0 007.75 15h.5zm1.5-1.5h.34c.78 0 1.41-.63 1.41-1.41v-.93c0-.78-.63-1.41-1.41-1.41h-.34v3.75zm-1.5-5.25V4.5h-.34c-.78 0-1.41.63-1.41 1.41v.93c0 .78.63 1.41 1.41 1.41h.34z" fill-rule="evenodd"></path></svg>