<svg xmlns="http://www.w3.org/2000/svg" style="color: transparent; fill: #28282A;" viewBox="0 0 18 18"><path clip-rule="evenodd" d="M6.228 1.47L8.979 6.1 7.377 7.703c.021.057.047.12.078.191.162.365.483.91 1.112 1.54.629.628 1.174.949 1.539 1.111.07.031.134.057.191.078l1.602-1.602 4.632 2.751-1.732 2.886c-.545.909-1.522 1.641-2.732 1.58-1.667-.084-4.46-.668-7.049-3.256-2.588-2.588-3.172-5.383-3.256-7.049-.061-1.21.671-2.187 1.58-2.732l2.886-1.732zm1.278 9.024C6.562 9.55 5.89 8.49 5.764 7.195l1.33-1.33L5.708 3.53l-1.595.956c-.571.343-.879.858-.853 1.37.07 1.4.559 3.804 2.819 6.064 2.26 2.26 4.665 2.749 6.063 2.82.513.025 1.028-.283 1.37-.854l.957-1.595-2.334-1.386-1.33 1.33c-1.29-.123-2.374-.818-3.299-1.742z" fill-rule="evenodd"></path></svg>