<svg xmlns="http://www.w3.org/2000/svg" style="color: transparent; fill: #28282A;" viewBox="0 0 18 18"><path clip-rule="evenodd" d="M3.019 8.504l.872.501a11.243 11.243 0 018.605-4.98V3.023c-3.96.239-7.413 2.359-9.477 5.481zm2.175 1.251l7.302 4.199V5.529a9.742 9.742 0 00-7.302 4.226zM1.6 9.42l1.52.874.65.374 9.102 5.233 1.124.647V1.5h-.75A13.745 13.745 0 001.325 8.394l-.375.65.65.375zM11 9a1 1 0 100-2 1 1 0 000 2zm-1.5.5a1 1 0 11-2 0 1 1 0 012 0zM11 12a1 1 0 100-2 1 1 0 000 2z" fill-rule="evenodd"></path></svg>