<svg xmlns="http://www.w3.org/2000/svg" style="color: transparent; fill: #28282A;" viewBox="0 0 18 18"><path clip-rule="evenodd" d="M6.25 3.5a.75.75 0 00-.75.75V7H11V4.25a2.25 2.25 0 114.5 0V5H14v-.75a.75.75 0 00-1.5 0V14.5a1.797 1.797 0 012.765.025c.122.15.348.147.466.002l.407-.5 1.164.946-.407.5a1.801 1.801 0 01-2.792 0 .297.297 0 00-.46-.002 1.796 1.796 0 01-2.79.002.297.297 0 00-.46 0 1.797 1.797 0 01-2.789 0 .297.297 0 00-.46 0c-.72.885-2.07.885-2.79 0a.297.297 0 00-.46 0c-.72.885-2.07.885-2.79 0l-.406-.5 1.164-.946.406.5a.297.297 0 00.461 0c.33-.407.796-.627 1.271-.66V4.25a2.25 2.25 0 014.5 0V5H7v-.75a.75.75 0 00-.75-.75zm-.75 7v-2H11v2H5.5zm0 1.5v2.505l.018.022a.297.297 0 00.461 0 1.797 1.797 0 012.79 0 .297.297 0 00.46 0A1.794 1.794 0 0111 13.903V12H5.5z" fill-rule="evenodd"></path></svg>