<svg xmlns="http://www.w3.org/2000/svg" style="color: transparent; fill: #28282A;" viewBox="0 0 18 18"><path clip-rule="evenodd" d="M3 1.5h6.81l.22.22 4.75 4.75.22.22v7.06a2.75 2.75 0 01-2.75 2.75H9.558c.422-.45.783-.956 1.072-1.5h1.62c.69 0 1.25-.56 1.25-1.25V8h-5V3h-4v5.524a5.978 5.978 0 00-1.5.33V1.5zm7 2.31l2.69 2.69H10V3.81zM2.052 13.5c.61 1.227 1.745 2 2.989 2 1.243 0 2.379-.773 2.988-2-.61-1.227-1.745-2-2.988-2-1.244 0-2.38.773-2.989 2zm-1.516-.283C1.293 11.36 2.995 10 5.04 10c2.045 0 3.747 1.36 4.504 3.217l.116.283-.116.283C8.788 15.64 7.086 17 5.041 17c-2.046 0-3.748-1.36-4.505-3.217L.42 13.5l.116-.283zM5 14.75a1.25 1.25 0 100-2.5 1.25 1.25 0 000 2.5z" fill-rule="evenodd"></path></svg>