<svg xmlns="http://www.w3.org/2000/svg" style="color: transparent; fill: #28282A;" viewBox="0 0 18 18"><path clip-rule="evenodd" d="M3.5 8c0-.952.146-1.832.564-2.458C4.444 4.973 5.124 4.5 6.5 4.5V3c-1.783 0-2.977.652-3.683 1.708C2.15 5.708 2 6.952 2 8v3.75A2.25 2.25 0 004.25 14h1.5A2.25 2.25 0 008 11.75V8H3.5zm8 0c0-.952.146-1.832.564-2.458.38-.569 1.06-1.042 2.436-1.042V3c-1.783 0-2.977.652-3.683 1.708C10.149 5.708 10 6.952 10 8v3.75A2.25 2.25 0 0012.25 14h1.5A2.25 2.25 0 0016 11.75V8h-4.5zm-8 1.5v2.25c0 .414.336.75.75.75h1.5a.75.75 0 00.75-.75V9.5h-3zm8 2.25V9.5h3v2.25a.75.75 0 01-.75.75h-1.5a.75.75 0 01-.75-.75z" fill-rule="evenodd"></path></svg>