<svg xmlns="http://www.w3.org/2000/svg" style="color: transparent; fill: #28282A;" viewBox="0 0 18 18"><path clip-rule="evenodd" d="M16 2H2v11.25A2.75 2.75 0 004.75 16h3.568l1.5-1.5H4.75c-.69 0-1.25-.56-1.25-1.25V3.5h3v2.75C6.5 7.216 7.284 8 8.25 8h1.5a1.75 1.75 0 001.75-1.75V3.5h3v6.318l1.5-1.5V2zM8 3.5h2v2.75a.25.25 0 01-.25.25h-1.5A.25.25 0 018 6.25V3.5zm6.249 8.69l-2.091-2.09-1.06 1.06 2.09 2.091-2.09 2.091 1.06 1.061 2.09-2.091 2.092 2.091 1.06-1.06-2.09-2.092 2.09-2.09-1.06-1.061-2.091 2.09z" fill-rule="evenodd"></path></svg>