<svg xmlns="http://www.w3.org/2000/svg" style="color: transparent; fill: #28282A;" viewBox="0 0 18 18"><path clip-rule="evenodd" d="M5.5 2.5a.5.5 0 100 1 .5.5 0 000-1zm-2 .5a2 2 0 114 0 2 2 0 01-4 0zm9.643.636l-.917 1.529A2.75 2.75 0 019.868 6.5h-.654l.904 1.809A1.25 1.25 0 0011.236 9h.825l.07 1.5h-.895a2.75 2.75 0 01-2.46-1.52l-1.13-2.262-2.046.877 1.72 2.752c.129.206.315.37.536.472l1.547.714A2.75 2.75 0 0111 14.03V16H9.5v-1.97c0-.488-.283-.931-.726-1.135l-1.546-.714a2.75 2.75 0 01-1.18-1.04L4.48 8.634l-.616.924c-.28.42-.28.966 0 1.386l.76 1.141-1.248.832-.76-1.14a2.75 2.75 0 010-3.051l.89-1.334a3 3 0 011.313-1.094L7.28 5.243A3 3 0 018.462 5h1.406c.439 0 .846-.23 1.072-.607l.917-1.529 1.286.772zM14 14h2v2h-2v-2zm2-6h-2l.25 5h1.5L16 8z" fill-rule="evenodd"></path></svg>