<svg xmlns="http://www.w3.org/2000/svg" style="color: transparent; fill: #28282A;" viewBox="0 0 18 18"><path clip-rule="evenodd" d="M12.4 1.083l.499.032 2.698.174-.096 1.497-2.2-.142-.799 1.616.849 1.47 1.799.116.977-1.976 1.345.665-1.2 2.424-.22.448-.5-.032-2.412-.155L9 10.47v4.03h1.5V16h-9v-1.5H3V9.111a3 3 0 011.498-2.714l.073-.042c.127-.073.258-.137.393-.191l6.143-2.466 1.071-2.167.222-.448zm-.473 5.181l-2.956 2.32a2.997 2.997 0 00-1.135-1.957l3.492-1.401.6 1.038zM4.5 11.6V14.5h3V11.6A2.987 2.987 0 016 12a2.987 2.987 0 01-1.5-.401zm2.362-1.371a1.61 1.61 0 01-.04.024l-.074.042A1.5 1.5 0 014.5 9a1.5 1.5 0 112.362 1.228z" fill-rule="evenodd"></path></svg>