<svg xmlns="http://www.w3.org/2000/svg" style="color: transparent; fill: #28282A;" viewBox="0 0 18 18"><path clip-rule="evenodd" d="M2.75 2H2v6.318l1.5 1.5V3.5H5v2.75A2.25 2.25 0 007.25 8.5h3.5A2.25 2.25 0 0013 6.25V3.56l1.5 1.5v9.44H13v-2.75a2.25 2.25 0 00-2.25-2.25H7.364l1.5 1.5h1.886a.75.75 0 01.75.75v2.75H8.182l1.5 1.5H16V4.44l-.22-.22-2-2-.22-.22H2.75zM6.5 6.25V3.5h5v2.75a.75.75 0 01-.75.75h-3.5a.75.75 0 01-.75-.75zm-2.749 5.94l2.091-2.09 1.061 1.06-2.091 2.091 2.09 2.091-1.06 1.061-2.09-2.091-2.092 2.091-1.06-1.06 2.09-2.092-2.09-2.09L1.66 10.1l2.091 2.09z" fill-rule="evenodd"></path></svg>