<svg xmlns="http://www.w3.org/2000/svg" style="color: transparent; fill: #28282A;" viewBox="0 0 18 18"><path clip-rule="evenodd" d="M9.75 3.322l6.093-1.305.314 1.466-2.197.471.222.484 2.75 6 .068.148v1.164A2.25 2.25 0 0114.75 14h-2.5A2.25 2.25 0 0110 11.75v-1.164l.068-.149 2.75-6 .122-.264-8.01 1.716.252.549 2.75 6 .068.148v1.164A2.25 2.25 0 015.75 16h-2.5A2.25 2.25 0 011 13.75v-1.164l.068-.149 2.75-6 .158-.343-1.819.39-.314-1.467L8.25 3.644V2h1.5v1.322zM11.5 11.5v.25c0 .414.336.75.75.75h2.5a.75.75 0 00.75-.75v-.25h-4zm3.581-1.5L13.5 6.55 11.919 10h3.162zM2.5 13.5v.25c0 .414.336.75.75.75h2.5a.75.75 0 00.75-.75v-.25h-4zM6.081 12L4.5 8.55 2.919 12H6.08z" fill-rule="evenodd"></path></svg>