<svg xmlns="http://www.w3.org/2000/svg" style="color: transparent; fill: #28282A;" viewBox="0 0 18 18"><path clip-rule="evenodd" d="M16 2H2v11.25A2.75 2.75 0 004.75 16h6.186a4.522 4.522 0 01-1.678-1.5H4.75c-.69 0-1.25-.56-1.25-1.25V3.5h3v2.75C6.5 7.216 7.284 8 8.25 8h1.5a1.75 1.75 0 001.75-1.75V3.5h3v4.256a4.497 4.497 0 011.5.89V2zM8 3.5h2v2.75a.25.25 0 01-.25.25h-1.5A.25.25 0 018 6.25V3.5zm5 7a1.5 1.5 0 100 3 1.5 1.5 0 000-3zM10 12a3 3 0 115.585 1.524l1.945 1.946-1.06 1.06-1.946-1.945A3 3 0 0110 12z" fill-rule="evenodd"></path></svg>