<svg xmlns="http://www.w3.org/2000/svg" style="color: transparent; fill: #28282A;" viewBox="0 0 18 18"><path clip-rule="evenodd" d="M9.25 6.5H15a3.5 3.5 0 011 .145V5h-6v-.25A2.75 2.75 0 007.25 2H2v10.25A2.75 2.75 0 004.75 15h2.8a3.499 3.499 0 01-.905-1.5H4.75c-.69 0-1.25-.56-1.25-1.25V6.5h5.75zM8.5 4.75V5h-5V3.5h3.75c.69 0 1.25.56 1.25 1.25zM15 9.5a.5.5 0 100 1 .5.5 0 000-1zm-2 .5a2 2 0 11.677 1.5l-1.683.841a2.029 2.029 0 010 .318l1.683.841a2 2 0 11-.67 1.342L11.322 14a2 2 0 110-3l1.683-.842A2.023 2.023 0 0113 10zm2 4.5a.5.5 0 100 1 .5.5 0 000-1zm-5.5-2a.5.5 0 111 0 .5.5 0 01-1 0z" fill-rule="evenodd"></path></svg>