<svg xmlns="http://www.w3.org/2000/svg" style="color: transparent; fill: #28282A;" viewBox="0 0 18 18"><path clip-rule="evenodd" d="M3 2h4.25c1.259 0 2.32.846 2.646 2H15v2.5c-1.19 0-2.24.593-2.873 1.5H3.5v4.75c0 .69.56 1.25 1.25 1.25h2.087a3.515 3.515 0 001.36 1.5H4.75A2.75 2.75 0 012 12.75V6.5h1V2zm10.5 3.5v1h-9v-3h2.75c.69 0 1.25.56 1.25 1.25v.75h5zm1.5 4a.5.5 0 100 1 .5.5 0 000-1zm-2 .5a2 2 0 11.677 1.5l-1.683.841a2.029 2.029 0 010 .318l1.683.841a2 2 0 11-.67 1.342L11.322 14a2 2 0 110-3l1.683-.842A2.023 2.023 0 0113 10zm2 4.5a.5.5 0 100 1 .5.5 0 000-1zm-5.5-2a.5.5 0 111 0 .5.5 0 01-1 0z" fill-rule="evenodd"></path></svg>