<svg xmlns="http://www.w3.org/2000/svg" style="color: transparent; fill: #28282A;" viewBox="0 0 18 18"><path clip-rule="evenodd" d="M7.75 1.5H7V4H4v4.942l-1.528.612-.741.296.341.721 1.588 3.353c-.351.093-.68.294-.931.603a.297.297 0 01-.46 0l-.407-.5-1.164.946.406.5c.72.885 2.07.885 2.79 0a.297.297 0 01.46 0c.72.885 2.07.885 2.79 0a.297.297 0 01.46 0c.72.885 2.07.884 2.79 0a.297.297 0 01.46 0c.719.884 2.07.885 2.789-.002a.297.297 0 01.46.002 1.801 1.801 0 002.792 0l.407-.5-1.164-.946-.407.5a.301.301 0 01-.466-.002 1.786 1.786 0 00-.926-.6l1.589-3.354.341-.721-.74-.296L14 8.942V4h-3V1.5H7.75zM9.5 4V3h-1v1h1zm3 6v-.042L9 8.558l-3.5 1.4V10h-.106l-1.625.65 1.88 3.97c.114.04.247.009.33-.093a1.797 1.797 0 012.79 0 .297.297 0 00.46 0 1.797 1.797 0 012.789 0c.084.103.22.133.333.09l1.88-3.967-1.625-.65H12.5zm0-4.5v2.842L9.28 7.054 9 6.942l-.278.112L5.5 8.342V5.5h7z" fill-rule="evenodd"></path></svg>