<svg xmlns="http://www.w3.org/2000/svg" style="color: transparent; fill: #28282A;" viewBox="0 0 18 18"><path clip-rule="evenodd" d="M14.056 2a.944.944 0 01.8 1.445L12.947 6.5h1.804V8h-2.806a.944.944 0 01-.8-1.445l1.91-3.055H11.25V2h2.806zM6 3v10.19l2.22-2.22 1.06 1.06-3.5 3.5-.53.53-.53-.53-3.5-3.5 1.06-1.06 2.22 2.22V3H6zm6.5 8.75a.25.25 0 01.25-.25h.5a.25.25 0 01.25.25v.75h-1v-.75zm1 4.25v-2h-1v2H11v-4.25c0-.966.784-1.75 1.75-1.75h.5c.966 0 1.75.784 1.75 1.75V16h-1.5z" fill-rule="evenodd"></path></svg>