<svg xmlns="http://www.w3.org/2000/svg" style="color: transparent; fill: #28282A;" viewBox="0 0 18 18"><path clip-rule="evenodd" d="M6.75 4H6v10.25A2.75 2.75 0 008.75 17h4.5A2.75 2.75 0 0016 14.25V8.468l-.186-.212-3.5-4L12.09 4H6.75zm.75 10.25V5.5H11v4h3.5v4.75c0 .69-.56 1.25-1.25 1.25h-4.5c-.69 0-1.25-.56-1.25-1.25zM13.597 8L12.5 6.746V8h1.097z" fill-rule="evenodd"></path><path clip-rule="evenodd" d="M2.75 1H2v10.25A2.75 2.75 0 004.75 14h1.354A2.752 2.752 0 016 13.25v-.75H4.75c-.69 0-1.25-.56-1.25-1.25V2.5h3.91L8.722 4h1.993l-2.4-2.744L8.09 1H2.75z" fill-rule="evenodd"></path></svg>