<svg xmlns="http://www.w3.org/2000/svg" style="color: transparent; fill: #28282A;" viewBox="0 0 18 18"><path clip-rule="evenodd" d="M6 4h10v13l-1.2-.9-1.542-1.156-1.797 1.398L11 16.7l-.46-.358-1.798-1.398L7.2 16.1 6 17V4zm1.5 1.5V14l.8-.6.458-.344.452.352L11 14.8l1.79-1.392.452-.352.458.344.8.6V5.5h-7zm5.5 3H9V7h4v1.5zm-4 3h2V10H9v1.5z" fill-rule="evenodd"></path><path clip-rule="evenodd" d="M2.75 1H2v13l1.2-.9 1.542-1.156L6 12.922v-1.9l-.79-.614-.452-.352-.458.344-.8.6V2.5h7V4H12V1H2.75z" fill-rule="evenodd"></path></svg>