<svg xmlns="http://www.w3.org/2000/svg" style="color: transparent; fill: #28282A;" viewBox="0 0 18 18"><path clip-rule="evenodd" d="M9 1.475l.19.049 5.75 1.5.56.146v4.58c0 3.164-1.595 5.236-3.155 6.49a10.694 10.694 0 01-2.834 1.625 6.522 6.522 0 01-.266.094l-.017.005-.006.002H9.22v.001c-.001 0-.002 0-.22-.717-.218.717-.219.717-.22.717h-.002l-.006-.003-.017-.005a9.578 9.578 0 01-.973-.394c-.578-.272-1.35-.7-2.127-1.325C4.095 12.986 2.5 10.914 2.5 7.75V3.17l.56-.146 5.75-1.5.19-.05zM9 15.25l.218.717-.218.067-.218-.067L9 15.25zm0-.795a9.198 9.198 0 002.405-1.383c.126-.102.252-.21.376-.322a2.24 2.24 0 00-1.031-.25h-3.5c-.372 0-.723.09-1.032.25.125.113.25.22.377.322A9.198 9.198 0 009 14.455zM10.75 11c.757 0 1.461.224 2.05.61.698-.978 1.2-2.241 1.2-3.86V4.33L9 3.024 4 4.329v3.42c0 1.62.502 2.883 1.2 3.86A3.732 3.732 0 017.25 11h3.5zm-3-3.75a1.25 1.25 0 112.5 0 1.25 1.25 0 01-2.5 0zM9 4.5A2.75 2.75 0 109 10a2.75 2.75 0 000-5.5z" fill-rule="evenodd"></path></svg>