<svg xmlns="http://www.w3.org/2000/svg" style="color: transparent; fill: #28282A;" viewBox="0 0 18 18"><path clip-rule="evenodd" d="M3 5a.5.5 0 111 0 .5.5 0 01-1 0zm.5-2a2 2 0 100 4 2 2 0 000-4zM14 5a.5.5 0 111 0 .5.5 0 01-1 0zm.5-2a2 2 0 100 4 2 2 0 000-4zM9 5.5a1 1 0 100 2 1 1 0 000-2zm-2.5 1a2.5 2.5 0 115 0 2.5 2.5 0 01-5 0zm-1 6.75c0-.967.783-1.75 1.75-1.75h3.5c.966 0 1.75.783 1.75 1.75v.25h-7v-.25zM7.25 10A3.25 3.25 0 004 13.25V15h10v-1.75A3.25 3.25 0 0010.75 10h-3.5zm-5.75.25a.75.75 0 01.75-.75h2.084a4.73 4.73 0 011.945-.9 2.242 2.242 0 00-1.53-.6H2.25A2.25 2.25 0 000 10.25V12h2.666a4.73 4.73 0 01.71-1.5H1.5v-.25zM11.721 8.6a4.73 4.73 0 011.945.9h2.084a.75.75 0 01.75.75v.25h-1.877c.32.448.562.955.71 1.5H18v-1.75A2.25 2.25 0 0015.75 8h-2.5c-.59 0-1.128.227-1.529.6z" fill-rule="evenodd"></path></svg>