<svg xmlns="http://www.w3.org/2000/svg" style="color: transparent; fill: #28282A;" viewBox="0 0 18 18"><path clip-rule="evenodd" d="M13.564 2.672l-.856.856-2.144 2.144a.75.75 0 000 1.06l.707.708a.75.75 0 001.06 0l2.145-2.144.856-.856.385 1.147c.316.94.358 1.953.127 2.913h-1.562a3.76 3.76 0 00.206-1.095L13.392 8.5a2.25 2.25 0 01-3.182 0l-.707-.707a2.25 2.25 0 010-3.182L10.6 3.516a3.751 3.751 0 00-3.333 5.16l.187.46-.352.352-3.255 3.255 1.415 1.414 3.254-3.254.352-.352.46.187c.377.153.774.242 1.173.268v1.501a5.264 5.264 0 01-1.257-.211l-3.452 3.452-.53.53-.53-.53-2.476-2.474-.53-.53.53-.531L5.708 8.76a5.25 5.25 0 016.709-6.474l1.147.386zM15.5 10H14v2.5h-2.5V14H14v2.5h1.5V14H18v-1.5h-2.5V10z" fill-rule="evenodd"></path></svg>