<svg xmlns="http://www.w3.org/2000/svg" style="color: transparent; fill: #28282A;" viewBox="0 0 18 18"><path clip-rule="evenodd" d="M3 1.5h6.81l.22.22 4.75 4.75.22.22V9h-1.5V8h-5V3h-4v6H3V1.5zm7 2.31V6.5h2.69L10 3.81zM2.5 10h2a2 2 0 110 4H4v2H2.5v-6zM4 12.5h.5a.5.5 0 000-1H4v1zm8-2.5h2a2 2 0 012 2v2a2 2 0 01-2 2h-2v-6zm1.5 1.5v3h.5a.5.5 0 00.5-.5v-2a.5.5 0 00-.5-.5h-.5zM8.875 10a1.875 1.875 0 000 3.75h.25a.375.375 0 010 .75H7.25V16h1.875a1.875 1.875 0 000-3.75h-.25a.375.375 0 010-.75h1.875V10H8.875z" fill-rule="evenodd"></path></svg>