<svg xmlns="http://www.w3.org/2000/svg" style="color: transparent; fill: #28282A;" viewBox="0 0 18 18"><path clip-rule="evenodd" d="M3.75 1.5H3V9h1.5V3h4v5h5v1H15V6.69l-.22-.22-4.75-4.75-.22-.22H3.75zm8.94 5L10 3.81V6.5h2.69zM3.25 10H2.5v6H4v-2h.04l1.018 2h1.684l-1.175-2.308A1.999 1.999 0 004.5 10H3.25zM4 11.5v1h.5a.5.5 0 000-1H4zm7.5-1.5h2a2 2 0 011.067 3.692L15.742 16h-1.684l-1.018-2H13v2h-1.5v-6zm2 2.5H13v-1h.5a.5.5 0 010 1zm-4.75-1a.25.25 0 00-.25.25v.75h1v-.75a.25.25 0 00-.25-.25h-.5zM9.5 14v2H11v-4.25A1.75 1.75 0 009.25 10h-.5A1.75 1.75 0 007 11.75V16h1.5v-2h1z" fill-rule="evenodd"></path></svg>