<svg xmlns="http://www.w3.org/2000/svg" style="color: transparent; fill: #28282A;" viewBox="0 0 18 18"><path clip-rule="evenodd" d="M2 1.5h6.81l.22.22 4.75 4.75.22.22V9h-1.5V8h-5V3h-4v6H2V1.5zm7 2.31l2.69 2.69H9V3.81zm3.033 12.169L10.12 10h1.575l1.053 3.29L13.8 10h1.575l-1.913 5.979-.007.021H12.04l-.007-.021zM1.5 11.75c0-.966.784-1.75 1.75-1.75H5v1.5H3.25a.25.25 0 00-.25.25v2.5c0 .138.112.25.25.25H5V16H3.25a1.75 1.75 0 01-1.75-1.75v-2.5zM7.875 10a1.875 1.875 0 000 3.75h.25a.375.375 0 010 .75H6.25V16h1.875a1.875 1.875 0 000-3.75h-.25a.375.375 0 010-.75H9.75V10H7.875z" fill-rule="evenodd"></path></svg>