<svg xmlns="http://www.w3.org/2000/svg" style="color: transparent; fill: #28282A;" viewBox="0 0 18 18"><path clip-rule="evenodd" d="M8 4.25v-1.5l-1.2.9L3 6.5H0v5h3l3.8 2.85 1.2.9v-11zm-4.3 3.6l2.8-2.1v6.5l-2.8-2.1-.2-.15h-2V8h2l.2-.15zM11 9a2 2 0 00-1.177-1.823l1.101-1.101A3.497 3.497 0 0112.5 9a3.497 3.497 0 01-1.576 2.924l-1.1-1.1A2 2 0 0011 9zm2.425 5.425l-1.068-1.068A5.49 5.49 0 0014.5 9a5.49 5.49 0 00-2.143-4.357l1.068-1.068A6.986 6.986 0 0116 9a6.986 6.986 0 01-2.575 5.425z" fill-rule="evenodd"></path></svg>