<svg xmlns="http://www.w3.org/2000/svg" style="color: transparent; fill: #28282A;" viewBox="0 0 18 18"><g clip-path="url(#tree-link-clip0_111_14045)"><path clip-rule="evenodd" d="M13.838 3.162a3.967 3.967 0 00-5.61 0L6.71 4.68l1.061 1.06L9.29 4.223a2.467 2.467 0 113.488 3.489l-1.516 1.516 1.06 1.06 1.517-1.516a3.967 3.967 0 000-5.61zM3.223 10.29l1.516-1.517-1.06-1.06-1.517 1.516a3.967 3.967 0 005.61 5.61l1.517-1.516-1.061-1.06-1.517 1.516a2.467 2.467 0 01-3.488-3.49zm2.479 2.07l5.657-5.657-1.06-1.06-5.658 5.656 1.061 1.061z" fill-rule="evenodd"></path></g></svg>