<svg xmlns="http://www.w3.org/2000/svg" style="color: transparent; fill: #28282A;" viewBox="0 0 18 18"><path clip-rule="evenodd" d="M2 1.5h6.81l.22.22 4.75 4.75.22.22V9h-1.5V8h-5V3h-4v6H2V1.5zm7 2.31V6.5h2.69L9 3.81zm-3 7.94c0-.966.784-1.75 1.75-1.75h.5c.966 0 1.75.784 1.75 1.75v2.5A1.75 1.75 0 018.25 16h-.5A1.75 1.75 0 016 14.25v-2.5zm1.75-.25a.25.25 0 00-.25.25v2.5c0 .138.112.25.25.25h.5a.25.25 0 00.25-.25v-2.5a.25.25 0 00-.25-.25h-.5zm-6-1.5H1v6h2a2 2 0 002-2v-2a2 2 0 00-2-2H1.75zm.75 4.5v-3H3a.5.5 0 01.5.5v2a.5.5 0 01-.5.5h-.5zm8.5-2.75c0-.966.784-1.75 1.75-1.75h1.75v1.5h-1.75a.25.25 0 00-.25.25v2.5c0 .138.112.25.25.25h1.75V16h-1.75A1.75 1.75 0 0111 14.25v-2.5z" fill-rule="evenodd"></path></svg>