<svg xmlns="http://www.w3.org/2000/svg" style="color: transparent; fill: #28282A;" viewBox="0 0 18 18"><path clip-rule="evenodd" d="M3.75 1.5H3V9h1.5V3h4v5h5v1H15V6.69l-.22-.22-4.75-4.75-.22-.22H3.75zm6.25 5V3.81l2.69 2.69H10zM3.25 10H2.5v6H4v-2h.5a2 2 0 100-4H3.25zm1.25 2.5H4v-1h.5a.5.5 0 010 1zm8.25-2.5H12v6h2.5a2 2 0 001.329-3.495A1.75 1.75 0 0014.25 10h-1.5zm1.75 4.5h-1v-1h1a.5.5 0 010 1zm-.25-2.5h-.75v-.5h.75a.25.25 0 110 .5zM7 10v4.25c0 .966.784 1.75 1.75 1.75h.5A1.75 1.75 0 0011 14.25V10H9.5v4.25a.25.25 0 01-.25.25h-.5a.25.25 0 01-.25-.25V10H7z" fill-rule="evenodd"></path></svg>