<svg xmlns="http://www.w3.org/2000/svg" style="color: transparent; fill: #28282A;" viewBox="0 0 18 18"><path clip-rule="evenodd" d="M9.582 1.777L9 1.061l-.582.716-4.844 5.962c-.937 1.153-.323 2.81.992 3.184l-.665.716c-1.188 1.28-.28 3.36 1.466 3.36H8.25v2h1.5v-2h2.884c1.746 0 2.653-2.08 1.465-3.36l-.665-.716c1.315-.373 1.93-2.03.992-3.184L9.582 1.777zM4.738 8.685L9 3.439l4.262 5.246a.5.5 0 01-.388.815h-2.808l1.17 1.26L13 12.66a.5.5 0 01-.366.84H5.367A.5.5 0 015 12.66l1.764-1.9 1.17-1.26H5.126a.5.5 0 01-.388-.815z" fill-rule="evenodd"></path></svg>