<svg xmlns="http://www.w3.org/2000/svg" style="color: transparent; fill: #28282A;" viewBox="0 0 18 18"><path clip-rule="evenodd" d="M3 1.5h6.81l.22.22 4.75 4.75.22.22V9h-1.5V8h-5V3h-4v6H3V1.5zm7 2.31l2.69 2.69H10V3.81zM8.5 10v6H10v-6H8.5zm2.5 1.875c0-1.036.84-1.875 1.875-1.875h1.875v1.5h-1.875a.375.375 0 000 .75h.25a1.875 1.875 0 010 3.75H11.25v-1.5h1.875a.375.375 0 000-.75h-.25A1.875 1.875 0 0111 11.875zm-6.464 4.104L2.623 10h1.574l1.053 3.29L6.303 10h1.574l-1.913 5.979-.007.021H4.543l-.007-.021z" fill-rule="evenodd"></path></svg>