<svg xmlns="http://www.w3.org/2000/svg" style="color: transparent; fill: #28282A;" viewBox="0 0 18 18"><path clip-rule="evenodd" d="M2 2h9.25A2.75 2.75 0 0114 4.75v2.773a3.941 3.941 0 00-1.5.127v-2.9c0-.69-.56-1.25-1.25-1.25H3.5V5h1v1.5h-1v1.75h1v1.5h-1v1.75h1V13h-1v1.5h3c-.01.509.08 1.02.266 1.5H2v-3H1v-1.5h1V9.75H1v-1.5h1V6.5H1V5h1V2zm9.864 7.71a2.423 2.423 0 013.426 3.426l-.788.789-1.06-1.061.788-.789a.923.923 0 10-1.305-1.305l-.789.789-1.06-1.06.788-.79zm-1.305 3.426l-.789.789a.923.923 0 001.305 1.305l.789-.789 1.06 1.06-.788.79a2.423 2.423 0 01-3.426-3.427l.788-.789 1.06 1.061zm1.471.894l1-1-1.06-1.06-1 1 1.06 1.06z" fill-rule="evenodd"></path></svg>