<svg xmlns="http://www.w3.org/2000/svg" style="color: transparent; fill: #28282A;" viewBox="0 0 18 18"><path clip-rule="evenodd" d="M14.838 3.162a3.967 3.967 0 00-5.61 0L7.71 4.678 8.772 5.74l1.517-1.516a2.467 2.467 0 113.488 3.488l-1.516 1.517 1.06 1.06 1.517-1.516a3.967 3.967 0 000-5.61zM4.223 10.289l1.442-1.442-1.061-1.061-1.442 1.442a3.967 3.967 0 005.61 5.61l1.442-1.442-1.06-1.06-1.443 1.441a2.467 2.467 0 11-3.488-3.488zm1.418 1.01L6.88 10.06l1.06 1.06-1.237 1.238-1.06-1.06zM10.061 9l2.298-2.298-1.06-1.06L9 7.938 3.53 2.47 2.47 3.53l12 12 1.06-1.06L10.06 9z" fill-rule="evenodd"></path></svg>