<svg xmlns="http://www.w3.org/2000/svg" style="color: transparent; fill: #28282A;" viewBox="0 0 18 18"><path clip-rule="evenodd" d="M9 3c-.112 0-.291.053-.53.3-.241.25-.493.652-.72 1.21-.175.43-.327.932-.448 1.49h3.396a9.046 9.046 0 00-.448-1.49c-.227-.558-.479-.96-.72-1.21C9.291 3.054 9.112 3 9 3zm-2.64.944A10.91 10.91 0 005.773 6h-1.97a6.025 6.025 0 012.745-2.477 7.514 7.514 0 00-.186.421zM5.566 7.5H3.19a6.01 6.01 0 000 3h2.376a17.107 17.107 0 010-3zm.207 4.5h-1.97a6.025 6.025 0 002.745 2.477 7.506 7.506 0 01-.186-.421A10.91 10.91 0 015.77 12zm1.53 0h3.396a9.046 9.046 0 01-.448 1.49c-.227.558-.479.96-.72 1.21-.239.247-.418.3-.53.3-.112 0-.291-.053-.53-.3-.241-.25-.493-.652-.72-1.21A9.043 9.043 0 017.302 12zm3.627-1.5H7.071a15.528 15.528 0 010-3h3.856a15.535 15.535 0 010 3zm1.3 1.5a10.91 10.91 0 01-.59 2.056 7.463 7.463 0 01-.186.421A6.024 6.024 0 0014.197 12H12.23zm2.582-1.5h-2.376a17.119 17.119 0 000-3h2.376a6.01 6.01 0 010 3zm-3.358-6.977A6.025 6.025 0 0114.197 6H12.23a10.91 10.91 0 00-.59-2.056 7.467 7.467 0 00-.186-.421zM9 16.5a7.5 7.5 0 100-15 7.5 7.5 0 000 15z" fill-rule="evenodd"></path></svg>