<svg xmlns="http://www.w3.org/2000/svg" style="color: transparent; fill: #28282A;" viewBox="0 0 18 18"><path opacity=".1" d="M0 0h18v18H0z"></path><path clip-rule="evenodd" d="M9 9.25a2.75 2.75 0 100-5.5 2.75 2.75 0 000 5.5zm5.75 6v2H3.25v-2a3 3 0 013-3h5.5a3 3 0 013 3z" fill-rule="evenodd"></path><path d="M14.75 17.25V18h.75v-.75h-.75zm-11.5 0H2.5V18h.75v-.75zM11 6.5a2 2 0 01-2 2V10a3.5 3.5 0 003.5-3.5H11zm-2-2a2 2 0 012 2h1.5A3.5 3.5 0 009 3v1.5zm-2 2a2 2 0 012-2V3a3.5 3.5 0 00-3.5 3.5H7zm2 2a2 2 0 01-2-2H5.5A3.5 3.5 0 009 10V8.5zm6.5 8.75v-2H14v2h1.5zM3.25 18h11.5v-1.5H3.25V18zm-.75-2.75v2H4v-2H2.5zm3.75-3.75a3.75 3.75 0 00-3.75 3.75H4A2.25 2.25 0 016.25 13v-1.5zm5.5 0h-5.5V13h5.5v-1.5zm3.75 3.75a3.75 3.75 0 00-3.75-3.75V13A2.25 2.25 0 0114 15.25h1.5z"></path></svg>