<svg xmlns="http://www.w3.org/2000/svg" style="color: transparent; fill: #28282A;" viewBox="0 0 18 18"><g clip-path="url(#virus-clip0_111_16013)"><path clip-rule="evenodd" d="M13.13 3.347a7.04 7.04 0 011.523 1.524l1.334-.77.75 1.299-1.333.769c.287.648.478 1.348.556 2.081h1.54v1.5h-1.54a6.952 6.952 0 01-.556 2.081l1.333.77-.75 1.298-1.334-.77a7.04 7.04 0 01-1.523 1.524l.77 1.333-1.3.75-.769-1.332a6.953 6.953 0 01-2.081.556v1.54h-1.5v-1.54a6.954 6.954 0 01-2.081-.556l-.77 1.332-1.299-.75.77-1.333a7.041 7.041 0 01-1.523-1.523l-1.333.77-.75-1.3 1.332-.769A6.955 6.955 0 012.04 9.75H.5v-1.5h1.54c.078-.734.27-1.433.556-2.081l-1.332-.77.75-1.299 1.333.77A7.04 7.04 0 014.87 3.347L4.1 2.014l1.3-.75.769 1.332A6.954 6.954 0 018.25 2.04V.5h1.5v1.54c.733.078 1.433.27 2.081.556l.77-1.332 1.298.75-.77 1.333zM3.5 9a5.5 5.5 0 1111 0 5.5 5.5 0 01-11 0zM7 8a1 1 0 100-2 1 1 0 000 2zm2 3a1 1 0 11-2 0 1 1 0 012 0zm2-1a1.5 1.5 0 100-3 1.5 1.5 0 000 3z" fill-rule="evenodd"></path></g></svg>