<svg xmlns="http://www.w3.org/2000/svg" style="color: transparent; fill: #28282A;" viewBox="0 0 44 18"><path clip-rule="evenodd" d="M4.208 14L.793 4h1.585L5 11.68 7.622 4h1.585L5.793 14H4.208zM10 14V4h1.5v10H10zm27.5-.75V4H39v8.5h3.5V14h-5v-.75zm-9.21.75l3.415-10h1.585l3.414 10H35.12l-.853-2.5h-3.537l-.854 2.5H28.29zm2.95-4l1.257-3.679L33.754 10H31.24zM15.876 4a2.875 2.875 0 000 5.75h1.25a1.375 1.375 0 110 2.75H15.75c-.69 0-1.25-.56-1.25-1.25V11H13v.25A2.75 2.75 0 0015.75 14h1.375a2.875 2.875 0 000-5.75h-1.25a1.375 1.375 0 110-2.75h1.375c.69 0 1.25.56 1.25 1.25V7H20v-.25A2.75 2.75 0 0017.25 4h-1.375zM22.5 4v6.5a2 2 0 104 0V4H28v6.5a3.5 3.5 0 11-7 0V4h1.5z" fill-rule="evenodd"></path></svg>