<svg xmlns="http://www.w3.org/2000/svg" style="color: transparent; fill: #28282A;" viewBox="0 0 18 18"><path d="M13.178 3.998l.53.53.856-.856-1.147-.385-.24.71zm2.828 2.828l.711-.239-.386-1.147-.855.856.53.53zm-5.96 5.607l.282-.695-.461-.187-.352.352.53.53zM6.26 16.218l-.53.53.53.53.53-.53-.53-.53zm-2.475-2.475l-.53-.53-.53.53.53.53.53-.53zM7.57 9.958l.53.53.352-.351-.187-.461-.695.282zm5.846-6.671A5.25 5.25 0 008.028 4.55L9.09 5.61a3.75 3.75 0 013.85-.902l.478-1.422zm-1.853 3.385l2.144-2.144-1.06-1.06-2.145 2.144 1.06 1.06zm0 1.06a.75.75 0 010-1.06l-1.06-1.06a2.25 2.25 0 000 3.182l1.06-1.061zm.707.708l-.707-.707-1.06 1.06.706.708 1.061-1.061zm1.06 0a.75.75 0 01-1.06 0l-1.06 1.06a2.25 2.25 0 003.181 0l-1.06-1.06zm2.145-2.144L13.332 8.44l1.06 1.06 2.144-2.144-1.06-1.06zm-.023 5.68a5.25 5.25 0 001.264-5.389l-1.422.478a3.75 3.75 0 01-.903 3.85l1.061 1.06zm-5.69 1.152c1.895.77 4.151.386 5.69-1.152l-1.06-1.061a3.751 3.751 0 01-4.065.823l-.564 1.39zm-.248-1.225L5.73 15.688l1.06 1.06 3.786-3.785-1.06-1.06zm-2.724 3.785l-2.475-2.475-1.06 1.06L5.73 16.75l1.06-1.061zm-2.475-1.414l3.785-3.785-1.06-1.061-3.786 3.785 1.061 1.06zM8.028 4.55a5.251 5.251 0 00-1.152 5.69l1.39-.565a3.751 3.751 0 01.823-4.064L8.029 4.55z"></path><path d="M10.697 1.524a5.25 5.25 0 00-6.709 6.473L.546 11.44l1.06 1.061 4.127-4.126-.187-.461a3.751 3.751 0 012.85-5.111l2.454-1.227-.153-.051z"></path></svg>