<svg xmlns="http://www.w3.org/2000/svg" style="color: transparent; fill: #28282A;" viewBox="0 0 18 18"><path d="M12.178 2.998l.53.53.856-.856-1.147-.385-.24.71zm2.828 2.828l.711-.239-.385-1.147-.856.856.53.53zm-5.96 5.607l.282-.695-.46-.187-.353.352.53.53zM5.26 15.218l-.53.53.53.53.53-.53-.53-.53zm-2.475-2.475l-.53-.53-.53.53.53.53.53-.53zM6.57 8.958l.53.53.352-.351-.187-.461-.695.282zm5.846-6.671A5.25 5.25 0 007.028 3.55L8.09 4.61a3.75 3.75 0 013.85-.902l.478-1.422zm-1.853 3.385l2.144-2.144-1.06-1.06-2.145 2.144 1.061 1.06zm0 1.06a.75.75 0 010-1.06l-1.06-1.06a2.25 2.25 0 000 3.182l1.06-1.061zm.707.708l-.707-.707-1.06 1.06.706.708 1.061-1.061zm1.06 0a.75.75 0 01-1.06 0l-1.06 1.06a2.25 2.25 0 003.181 0l-1.06-1.06zm2.145-2.144L12.332 7.44l1.06 1.06 2.145-2.144-1.061-1.06zm-.023 5.68a5.25 5.25 0 001.264-5.389l-1.422.478a3.75 3.75 0 01-.903 3.85l1.061 1.06zm-5.69 1.152c1.896.77 4.151.386 5.69-1.152l-1.06-1.061a3.751 3.751 0 01-4.065.823l-.564 1.39zm-.248-1.225L4.73 14.688l1.061 1.06 3.785-3.785-1.06-1.06zm-2.724 3.785l-2.475-2.475-1.06 1.06L4.73 15.75l1.061-1.061zm-2.475-1.414l3.785-3.786-1.06-1.06-3.786 3.785 1.061 1.06zM7.028 3.55a5.251 5.251 0 00-1.152 5.69l1.39-.565a3.751 3.751 0 01.823-4.064L7.03 3.55z"></path></svg>