<svg xmlns="http://www.w3.org/2000/svg" viewBox="0 0 80 80"><path clip-rule="evenodd" d="M17.05 6c25.12 0 50.51 21.36 50.51 46.48V76a2 2 0 01-2 2H13.81c-1 0-1.81-.81-1.81-1.81V7.08c0-.6.49-1.08 1.08-1.08h3.97z" fill="#C5C5C9" fill-rule="evenodd" opacity=".5" stroke="none"></path><path d="M49.76 75.5H69.5v-57l-15-15h-40v72h35.26z" fill="#fff" stroke="#6F6F76" stroke-dasharray="2 2" vector-effect="non-scaling-stroke"></path><path d="M41.17 31.622c-4.172 0-5.724 4.734-5.724 4.734L30.5 34.039S32.828 26 41.17 26c5.818 0 10.33 4.389 10.33 9.862 0 4.34-1.847 6.327-5 9.138-1.698 1.526-1.5 1.725-1.5 3.5V51h-7v-4c0-3.208 1.762-3.545 4.915-6.303 1.795-1.579 2.764-2.518 2.764-4.835s-2.085-4.24-4.51-4.24z" fill="#8ABFF7" stroke="none"></path><path d="M69.5 18.5h-15v-15l15 15z" fill="#E0E0E1" stroke="#6F6F76" stroke-dasharray="2 2" stroke-miterlimit="2" vector-effect="non-scaling-stroke"></path><path fill="#8ABFF7" d="M38 55h7v7h-7z" stroke="none"></path></svg>