<svg xmlns="http://www.w3.org/2000/svg" viewBox="0 0 80 80"><path d="M3.518 22.614a2 2 0 011.414-2.45L48.399 8.518a2 2 0 012.449 1.414l12.423 46.364a2 2 0 01-1.414 2.45L18.39 70.393a2 2 0 01-2.449-1.415L3.518 22.614z" fill="#C5C5C9" opacity=".5" stroke="none"></path><path d="M5.871 18.002a1 1 0 01.707-1.225L51.011 4.87a1 1 0 011.225.707l12.682 47.33a1 1 0 01-.707 1.225L19.778 66.04a1 1 0 01-1.225-.707L5.871 18.002z" fill="#FAFAFA" stroke="none"></path><path d="M5.518 18.614a2 2 0 011.414-2.45L50.399 4.518a2 2 0 012.449 1.414l12.423 46.364a2 2 0 01-1.414 2.45L20.39 66.393a2 2 0 01-2.449-1.415L5.518 18.614z" stroke="#6F6F76" stroke-dasharray="2 2" vector-effect="non-scaling-stroke"></path><path d="M23 26a2 2 0 012-2h46a2 2 0 012 2v49a2 2 0 01-2 2H25a2 2 0 01-2-2V26z" fill="#C5C5C9" opacity=".4" stroke="none"></path><path d="M26 23a1 1 0 011-1h47a1 1 0 011 1v50a1 1 0 01-1 1H27a1 1 0 01-1-1V23z" fill="#fff" stroke="none"></path><path d="M29.5 27.5a2 2 0 012-2h38a2 2 0 012 2v30a2 2 0 01-2 2h-38a2 2 0 01-2-2v-30z" stroke="#6F6F76" vector-effect="non-scaling-stroke"></path><path d="M25.5 23.5a2 2 0 012-2h46a2 2 0 012 2v49a2 2 0 01-2 2h-46a2 2 0 01-2-2v-49z" stroke="#6F6F76" stroke-dasharray="2 2" vector-effect="non-scaling-stroke"></path><rect fill="#E6F1FD" height="33" rx="1" width="41" x="30" y="26" stroke="none"></rect><path d="M47 34.5a3.5 3.5 0 11-7 0 3.5 3.5 0 017 0z" fill="#FBAF50" stroke="#6F6F76" vector-effect="non-scaling-stroke"></path><path d="M29.908 45.123l.352.344-.352-.344a1.455 1.455 0 00-.408 1.018V58a1.5 1.5 0 001.5 1.5h17.008a1.45 1.45 0 001.315-.812A11.955 11.955 0 0050.5 53.5c0-6.627-5.373-12-12-12a11.966 11.966 0 00-8.592 3.623z" fill="#78D8A3" stroke="#6F6F76" vector-effect="non-scaling-stroke"></path><path d="M71.5 38.92c0-.522-.273-1.022-.746-1.285A16.926 16.926 0 0062.5 35.5c-9.389 0-17 7.611-17 17 0 2.137.395 4.183 1.115 6.068.22.578.778.932 1.374.932H70a1.5 1.5 0 001.5-1.5V38.92z" fill="#A1E4BF" stroke="#6F6F76" vector-effect="non-scaling-stroke"></path></svg>