<?xml version="1.0" standalone="no"?>
<!DOCTYPE svg PUBLIC "-//W3C//DTD SVG 1.1//EN" "http://www.w3.org/Graphics/SVG/1.1/DTD/svg11.dtd" >
<svg xmlns="http://www.w3.org/2000/svg">
<metadata>Generated by IcoMoon</metadata>
<defs>
<font id="IDS-V5" horiz-adv-x="1024">
<font-face units-per-em="1024" ascent="960" descent="-64" />
<missing-glyph horiz-adv-x="1024" />
<glyph unicode="&#x20;" horiz-adv-x="512" d="" />
<glyph unicode="&#xe900;" glyph-name="caret-down-filled" d="M312.889 561.778h398.222l-199.111-256-199.111 256z" />
<glyph unicode="&#xe901;" glyph-name="caret-up-filled" d="M711.111 334.222h-398.222l199.111 256 199.111-256z" />
<glyph unicode="&#xe902;" glyph-name="caret-right-filled" d="M398.222 248.889v398.222l256-199.111-256-199.111z" />
<glyph unicode="&#xe903;" glyph-name="next-page-filled" d="M341.333 815.332l514.276-367.332-514.276-367.388v734.72z" />
<glyph unicode="&#xe904;" glyph-name="cart-filled" d="M176.583 732.444l73.33-488.903-0.805-0.227c-45.527-14.871-78.419-57.683-78.419-108.177 0-62.838 50.94-113.778 113.778-113.778s113.778 50.94 113.778 113.778c0 10.099-1.316 19.89-3.606 28.418h234.724l0.179 0.794c-2.474-9.33-3.792-19.13-3.792-29.238 0-62.838 50.94-113.778 113.778-113.778s113.778 50.94 113.778 113.778c0 62.828-50.924 113.761-113.749 113.778h-404.139l-8.533 56.889h412.899c0.003 0 0.006 0 0.009 0 78.958 0 144.255 58.494 155.014 135.339l29.241 214.471 6.656 48.412h-663.552l-11.605 77.426-5.461 36.352h-193.195v-85.333h119.694zM739.556 163.556v0c15.709 0 28.444-12.735 28.444-28.444s-12.735-28.444-28.444-28.444v0c-15.709 0-28.444 12.735-28.444 28.444s12.735 28.444 28.444 28.444zM256 135.111c0 15.709 12.735 28.444 28.444 28.444s28.444-12.735 28.444-28.444v0c0-15.709-12.735-28.444-28.444-28.444s-28.444 12.735-28.444 28.444v0z" />
<glyph unicode="&#xe905;" glyph-name="security-on-filled" d="M702.293 149.902c88.747 71.339 179.484 189.212 179.484 369.209v260.551l-369.778 96.427-369.778-96.427v-260.551c0-179.996 90.738-297.87 179.484-369.209 46.255-37.21 99.532-68.372 157.094-91.014l4.129-1.431c15.474-5.803 29.070-9.614 29.070-9.614s13.596 3.755 29.013 9.614c61.691 24.071 114.968 55.233 162.406 93.364l-1.183-0.919zM712.818 574.293l-229.262-229.262-143.929 143.929 60.302 60.302 83.627-83.627 168.96 168.96 60.302-60.302z" />
<glyph unicode="&#xe906;" glyph-name="empty-circle-filled" d="M85.333 448c0 235.641 191.025 426.667 426.667 426.667s426.667-191.025 426.667-426.667v0c0-235.641-191.025-426.667-426.667-426.667s-426.667 191.025-426.667 426.667v0z" />
<glyph unicode="&#xe907;" glyph-name="security-off-filled" d="M83.627 816.071l60.302 60.302 76.402-76.231 291.669 75.947 369.778-96.37v-260.551c0-121.685-41.472-215.040-95.801-284.786l154.396-154.396-60.302-60.359-796.444 796.444zM581.291 74.581l3.28 1.421c-12.997-6.247-26.278-11.995-43.557-18.487-15.417-5.803-29.013-9.557-29.013-9.557s-13.596 3.755-29.070 9.557l-4.129 1.432c-57.562 22.662-110.838 53.842-157.094 91.069-88.747 71.339-179.484 189.212-179.484 369.209v117.646l517.803-517.916c-29.070-19.342-56.434-33.906-78.734-44.373z" />
<glyph unicode="&#xe908;" glyph-name="vertical-align-center-filled" d="M469.333 618.667h-298.667v-341.333h298.667v-227.556h85.333v227.556h298.667v341.333h-298.667v227.556h-85.333v-227.556z" />
<glyph unicode="&#xe909;" glyph-name="info-alert" d="M85.333 448v0c0-235.641 191.025-426.667 426.667-426.667s426.667 191.025 426.667 426.667v0c0 235.641-191.025 426.667-426.667 426.667s-426.667-191.025-426.667-426.667zM568.889 561.778h-113.778v113.778h113.778v-113.778zM554.667 504.889v-284.444h-85.333v284.444h85.333z" />
<glyph unicode="&#xe90a;" glyph-name="tree-audio-filled" d="M512 92.444l-284.444 213.333h-170.667v284.444h170.667l284.444 213.333v-711.111zM682.667 448v0.005c0-0.033 0-0.065 0-0.098 0-45.85-27.121-85.366-66.901-103.672l62.578-62.578 0.732 0.458c53.6 35.642 88.925 96.585 88.925 165.778 0 0.038 0 0.075 0 0.107v-0.006c0 0.038 0 0.075 0 0.113 0 69.194-35.325 130.137-89.657 166.236l-62.635-62.635 0.707-0.292c39.105-18.003 66.251-57.534 66.251-103.406 0-0.004 0-0.007 0-0.010zM820.622 139.378l0.703 0.559c88.993 72.883 145.786 183.623 145.786 307.626 0 0.154 0 0.307 0 0.437v-0.024c0 0.154 0 0.308 0 0.462 0 124.004-56.792 234.743-146.489 308.185l-60.757-60.757 0.714-0.532c73.734-57.129 121.199-146.538 121.199-247.034 0-0.105 0-0.21 0-0.299v0.016c0-0.105 0-0.21 0-0.315 0-100.495-47.465-189.905-121.913-247.566l60.757-60.757z" />
<glyph unicode="&#xe90b;" glyph-name="play-filled" d="M341.333 815.332l514.276-367.332-514.276-367.388v734.72z" />
<glyph unicode="&#xe90c;" glyph-name="technology-filled" d="M426.667 789.333h170.667v85.333h85.333v-85.333h170.667v-170.667h85.333v-85.333h-85.333v-170.667h85.333v-85.333h-85.333v-14.222c0-86.402-70.043-156.444-156.444-156.444v0h-14.222v-85.333h-85.333v85.333h-170.667v-85.333h-85.333v85.333h-14.222c-86.402 0-156.444 70.043-156.444 156.444v0 14.222h-85.333v85.333h85.333v170.667h-85.333v85.333h85.333v170.667h170.667v85.333h85.333v-85.333z" />
<glyph unicode="&#xe90d;" glyph-name="comment-alt-filled" d="M113.778 789.333h796.444v-440.889c0-86.402-70.043-156.444-156.444-156.444v0h-395.776l-124.871-115.314c-45.511-42.041-119.353-9.671-119.353 52.281v660.366z" />
<glyph unicode="&#xe90e;" glyph-name="copy-filled" d="M341.333 846.222v-142.222h426.667v-426.041l0.625 0.048c79.438 7.478 141.598 74.355 141.598 155.749 0 0.008 0 0.016 0 0.022v412.444h-568.889zM156.444 618.667h99.556v-85.333h-56.889v-56.889h-85.333v142.222h42.667zM113.778 391.111v-113.778h85.333v113.778h-85.333zM256 50.404v86.13c-27.876 5.632-49.778 27.591-55.467 55.467h-86.13l0.047-0.624c7.010-74.568 66.357-133.915 141.549-140.972zM540.444 136.533v-86.13l0.624 0.047c74.568 7.010 133.915 66.357 140.972 141.549h-86.13c-5.632-27.876-27.591-49.778-55.467-55.467zM682.667 391.111h-85.333v-113.778h85.333v113.778zM597.333 476.444h85.333v142.222h-142.222v-85.333h56.889v-56.889zM341.333 533.333v85.333h113.778v-85.333h-113.778zM341.333 135.111v-85.333h113.778v85.333h-113.778z" />
<glyph unicode="&#xe90f;" glyph-name="roles-filled" d="M398.222 732.444v42.667c0 23.564 19.103 42.667 42.667 42.667h142.222c23.564 0 42.667-19.103 42.667-42.667v-42.667h-227.556zM711.111 732.444v42.667c0 70.692-57.308 128-128 128v0h-142.222c-70.692 0-128-57.308-128-128v0-42.667h-227.556v-170.667h853.333v170.667h-227.556zM85.333 476.444v-213.333c0-86.402 70.043-156.444 156.444-156.444h540.444c86.402 0 156.444 70.043 156.444 156.444v213.333h-853.333z" />
<glyph unicode="&#xe910;" glyph-name="tree-text-filled" d="M369.778 817.778h99.556v56.889h85.333v-56.889h99.556v56.889h85.333v-56.889h142.222v-611.556c0-86.402-70.043-156.444-156.444-156.444v0h-426.667c-86.402 0-156.444 70.043-156.444 156.444v0 611.556h142.222v56.889h85.333v-56.889zM341.333 476.444h341.333v85.333h-341.333v-85.333zM568.889 305.778v85.333h-227.556v-85.333h227.556z" />
<glyph unicode="&#xe911;" glyph-name="user-status-do-not-disturb" d="M938.667 448v0c0 235.641-191.025 426.667-426.667 426.667s-426.667-191.025-426.667-426.667v0c0-235.641 191.025-426.667 426.667-426.667s426.667 191.025 426.667 426.667zM451.698 448l-140.516 140.516 60.302 60.302 140.516-140.516 140.516 140.516 60.302-60.302-140.516-140.516 140.516-140.516-60.302-60.302-140.516 140.516-140.516-140.516-60.302 60.302 140.516 140.516z" />
<glyph unicode="&#xe912;" glyph-name="distribute-horiz-filled" d="M199.111 49.778v796.444h-85.333v-796.444h85.333zM910.222 846.222v-796.444h-85.333v796.444h85.333zM341.333 732.444h341.333v-568.889h-341.333v568.889z" />
<glyph unicode="&#xe913;" glyph-name="right-align-filled" d="M910.222 49.778v796.444h-85.333v-796.444h85.333zM170.667 618.667v-341.333h568.889v341.333h-568.889z" />
<glyph unicode="&#xe914;" glyph-name="flag-filled" d="M745.131 533.333l174.763 256h-749.227v-739.556h85.333v227.556h663.893l-174.763 256z" />
<glyph unicode="&#xe915;" glyph-name="pending-alert" d="M512 874.667v0c235.641 0 426.667-191.025 426.667-426.667s-191.025-426.667-426.667-426.667v0c-235.641 0-426.667 191.025-426.667 426.667s191.025 426.667 426.667 426.667zM455.111 675.556v-284.444h227.556v85.333h-142.222v199.111h-85.333z" />
<glyph unicode="&#xe916;" glyph-name="color-filled" d="M709.404 791.040l-126.293-126.293-128 128-142.222-142.222 401.636-401.636 142.222 142.222-128 128 126.293 126.293c18.636 18.636 30.162 44.381 30.162 72.818 0 56.874-46.106 102.98-102.98 102.98-28.437 0-54.182-11.526-72.818-30.162zM252.587 590.222l401.636-401.636-199.111-199.111-113.778 113.778 101.262 101.262-60.302 60.302-101.262-101.262-53.476 53.476 44.373 44.373-60.302 60.302-44.373-44.373-113.778 113.778 199.111 199.111z" />
<glyph unicode="&#xe917;" glyph-name="success-alert" d="M512 874.667c-235.641 0-426.667-191.025-426.667-426.667s191.025-426.667 426.667-426.667v0c235.641 0 426.667 191.025 426.667 426.667s-191.025 426.667-426.667 426.667v0zM741.262 545.849l-286.151-286.151-172.373 172.373 60.302 60.302 112.071-112.071 225.849 225.849 60.302-60.302z" />
<glyph unicode="&#xe918;" glyph-name="home-filled" d="M910.222 612.75l-398.222 270.791-398.222-270.791v-562.972h256v227.556c0 62.838 50.94 113.778 113.778 113.778v0h56.889c62.838 0 113.778-50.94 113.778-113.778v0-227.556h256v562.972z" />
<glyph unicode="&#xe919;" glyph-name="half-empty-circle-filled" d="M512 874.667c235.641 0 426.667-191.025 426.667-426.667s-191.025-426.667-426.667-426.667v0c-235.641 0-426.667 191.025-426.667 426.667s191.025 426.667 426.667 426.667v0zM853.333 448c0 188.513-152.82 341.333-341.333 341.333v0-682.667c188.513 0 341.333 152.82 341.333 341.333v0z" />
<glyph unicode="&#xe91a;" glyph-name="notes-filled" d="M369.778 817.778h99.556v56.889h85.333v-56.889h99.556v56.889h85.333v-56.889h142.222v-611.556c0-86.402-70.043-156.444-156.444-156.444v0h-426.667c-86.402 0-156.444 70.043-156.444 156.444v0 611.556h142.222v56.889h85.333v-56.889zM341.333 476.444h341.333v85.333h-341.333v-85.333zM568.889 305.778v85.333h-227.556v-85.333h227.556z" />
<glyph unicode="&#xe91b;" glyph-name="left-align-filled" d="M113.778 49.778v796.444h85.333v-796.444h-85.333zM853.333 618.667v-341.333h-568.889v341.333h568.889z" />
<glyph unicode="&#xe91c;" glyph-name="error-alert" d="M85.333 448c0 235.641 191.025 426.667 426.667 426.667s426.667-191.025 426.667-426.667v0c0-235.641-191.025-426.667-426.667-426.667s-426.667 191.025-426.667 426.667v0zM568.889 334.222h-113.778v-113.778h113.778v113.778zM554.667 391.111l14.222 284.444h-113.778l14.222-284.444h85.333z" />
<glyph unicode="&#xe91d;" glyph-name="delete-filled" d="M398.222 732.444v42.667c0 23.564 19.103 42.667 42.667 42.667h142.222c23.564 0 42.667-19.103 42.667-42.667v-42.667h-227.556zM711.111 732.444v42.667c0 70.692-57.308 128-128 128v0h-142.222c-70.692 0-128-57.308-128-128v0-42.667h-199.111v-85.333h85.333v-440.889c0-86.402 70.043-156.444 156.444-156.444v0h312.889c86.402 0 156.444 70.043 156.444 156.444v0 440.889h85.333v85.333h-199.111z" />
<glyph unicode="&#xe91e;" glyph-name="phone-filled" d="M824.775 119.58c-25.259-42.098-67.698-71.68-116.736-69.689-93.070 3.641-256 34.702-407.723 186.425s-182.784 314.652-186.425 407.723c-1.934 49.038 27.591 91.477 69.689 116.736l142.393 85.447 126.862-213.447-91.591-91.477s6.428-67.413 91.477-152.462c85.106-85.106 152.462-91.534 152.462-91.534l91.534 91.477 213.504-126.805-85.447-142.393z" />
<glyph unicode="&#xe91f;" glyph-name="user-status-unknown" d="M938.667 448c0-235.641-191.025-426.667-426.667-426.667s-426.667 191.025-426.667 426.667c0 235.641 191.025 426.667 426.667 426.667s426.667-191.025 426.667-426.667z" />
<glyph unicode="&#xe920;" glyph-name="clock-filled" d="M512 874.667v0c235.641 0 426.667-191.025 426.667-426.667s-191.025-426.667-426.667-426.667v0c-235.641 0-426.667 191.025-426.667 426.667s191.025 426.667 426.667 426.667zM455.111 675.556v-284.444h227.556v85.333h-142.222v199.111h-85.333z" />
<glyph unicode="&#xe921;" glyph-name="shopping-cart-filled" d="M176.583 732.444l73.33-488.903-0.805-0.227c-45.527-14.871-78.419-57.683-78.419-108.177 0-62.838 50.94-113.778 113.778-113.778s113.778 50.94 113.778 113.778c0 10.099-1.316 19.89-3.606 28.418h234.724l0.179 0.794c-2.474-9.33-3.792-19.13-3.792-29.238 0-62.838 50.94-113.778 113.778-113.778s113.778 50.94 113.778 113.778c0 62.828-50.924 113.761-113.749 113.778h-404.139l-8.533 56.889h412.899c0.003 0 0.006 0 0.009 0 78.958 0 144.255 58.494 155.014 135.339l29.241 214.471 6.656 48.412h-663.552l-11.605 77.426-5.461 36.352h-193.195v-85.333h119.694zM739.556 163.556v0c15.709 0 28.444-12.735 28.444-28.444s-12.735-28.444-28.444-28.444v0c-15.709 0-28.444 12.735-28.444 28.444s12.735 28.444 28.444 28.444zM256 135.111c0 15.709 12.735 28.444 28.444 28.444s28.444-12.735 28.444-28.444v0c0-15.709-12.735-28.444-28.444-28.444s-28.444 12.735-28.444 28.444v0z" />
<glyph unicode="&#xe922;" glyph-name="display-filled" d="M910.222 789.333v-142.222h-796.444v142.222h796.444zM910.222 561.778v-298.667c0-86.402-70.043-156.444-156.444-156.444h-483.556c-86.402 0-156.444 70.043-156.444 156.444v298.667h796.444z" />
<glyph unicode="&#xe923;" glyph-name="previous-page-filled" d="M682.667 815.332l-514.276-367.332 514.276-367.388v734.72z" />
<glyph unicode="&#xe924;" glyph-name="hcm-calendar-filled" d="M113.778 846.222v-227.556h796.444v227.556h-170.667v-113.778h-85.333v113.778h-284.444v-113.778h-85.333v113.778h-170.667zM113.778 533.333h796.444v-327.111c0-86.402-70.043-156.444-156.444-156.444v0h-483.556c-86.402 0-156.444 70.043-156.444 156.444v0 327.111zM654.336 223.801l-81.92 81.92 81.92 81.92-60.302 60.359-82.034-81.92-81.863 81.92-60.359-60.302 81.92-81.977-81.92-81.92 60.302-60.359 81.977 81.92 81.92-81.92 60.359 60.302z" />
<glyph unicode="&#xe925;" glyph-name="confirm-filled" d="M512 874.667c-235.641 0-426.667-191.025-426.667-426.667s191.025-426.667 426.667-426.667v0c235.641 0 426.667 191.025 426.667 426.667s-191.025 426.667-426.667 426.667v0zM741.262 545.849l-286.151-286.151-172.373 172.373 60.302 60.302 112.071-112.071 225.849 225.849 60.302-60.302z" />
<glyph unicode="&#xe926;" glyph-name="exclude-filled" d="M512 874.667c-235.641 0-426.667-191.025-426.667-426.667s191.025-426.667 426.667-426.667v0c235.641 0 426.667 191.025 426.667 426.667s-191.025 426.667-426.667 426.667v0zM302.649 717.653l479.004-479.004c-17.767-22.717-37.585-42.535-59.551-59.736l-0.751-0.567-479.004 479.004c17.767 22.717 37.585 42.535 59.551 59.736l0.751 0.567z" />
<glyph unicode="&#xe927;" glyph-name="tree-node-filled" d="M568.889 863.858l273.636-273.636h-273.636v273.636zM483.556 874.667h-312.889v-696.889c0-86.402 70.043-156.444 156.444-156.444h369.778c86.402 0 156.444 70.043 156.444 156.444v327.111h-369.778v369.778z" />
<glyph unicode="&#xe928;" glyph-name="bottom-aligned-filled" d="M682.667 789.333h-341.333v-568.889h341.333v568.889zM113.778 49.778h796.444v85.333h-796.444v-85.333z" />
<glyph unicode="&#xe929;" glyph-name="billboard-filled" d="M283.705 732.444l228.295 182.67 228.295-182.67h198.372v-469.333c0-86.402-70.043-156.444-156.444-156.444h-540.444c-86.402 0-156.444 70.043-156.444 156.444v469.333h198.372zM420.295 732.444h183.41l-91.705 73.387-91.705-73.387zM284.444 561.778v-85.333h455.111v85.333h-455.111zM568.889 305.778v85.333h-284.444v-85.333h284.444z" />
<glyph unicode="&#xe92a;" glyph-name="camera-filled" d="M657.636 846.222l113.778-113.778h167.253v-526.222c0-86.402-70.043-156.444-156.444-156.444h-540.444c-86.402 0-156.444 70.043-156.444 156.444v526.222h167.253l113.778 113.778h291.271zM398.222 419.556v0c0-62.838 50.94-113.778 113.778-113.778s113.778 50.94 113.778 113.778v0c0 62.838-50.94 113.778-113.778 113.778s-113.778-50.94-113.778-113.778zM512 618.667c-109.966 0-199.111-89.145-199.111-199.111s89.145-199.111 199.111-199.111v0c109.966 0 199.111 89.145 199.111 199.111s-89.145 199.111-199.111 199.111v0z" />
<glyph unicode="&#xe92b;" glyph-name="tree-mail-filled" d="M938.667 678.514v-415.403c0-86.402-70.043-156.444-156.444-156.444h-540.444c-86.402 0-156.444 70.043-156.444 156.444v415.403l299.605-282.999c33.129-31.351 77.85-50.578 127.062-50.578s93.933 19.227 126.976 50.498l299.691 283.079zM931.726 789.333l-351.3-331.847c-17.839-16.886-41.924-27.243-68.427-27.243s-50.587 10.356-68.38 27.199l-351.346 331.89h839.452z" />
<glyph unicode="&#xe92c;" glyph-name="document-filled" d="M568.889 863.858l273.636-273.636h-273.636v273.636zM483.556 874.667h-312.889v-696.889c0-86.402 70.043-156.444 156.444-156.444h369.778c86.402 0 156.444 70.043 156.444 156.444v327.111h-369.778v369.778z" />
<glyph unicode="&#xe92d;" glyph-name="map-pin-filled" d="M793.6 786.489v0c72.072-72.065 116.651-171.626 116.651-281.6s-44.578-209.534-116.651-281.6l-281.6-281.6-281.6 281.6c-72.068 72.068-116.643 171.628-116.643 281.6 0 219.943 178.299 398.243 398.243 398.243 109.972 0 209.532-44.575 281.6-116.643zM512 362.667c78.547 0 142.222 63.675 142.222 142.222s-63.675 142.222-142.222 142.222v0c-78.547 0-142.222-63.675-142.222-142.222s63.675-142.222 142.222-142.222v0z" />
<glyph unicode="&#xe92e;" glyph-name="new-alert" d="M512 874.667c-235.641 0-426.667-191.025-426.667-426.667s191.025-426.667 426.667-426.667v0c235.641 0 426.667 191.025 426.667 426.667s-191.025 426.667-426.667 426.667v0zM426.667 448l-133.12 76.8 42.667 73.956 133.12-76.857v153.657h85.333v-153.657l133.12 76.8 42.667-73.899-133.12-76.8 133.12-76.8-42.667-73.956-133.12 76.857v-153.657h-85.333v153.657l-133.12-76.8-42.667 73.842 133.12 76.857z" />
<glyph unicode="&#xe92f;" glyph-name="manufacturing-filled" d="M341.333 846.222v-215.381l284.444 142.222v-142.222l284.444 142.222v-723.285h-796.444v796.444h227.556zM284.444 391.111v-170.667h85.333v170.667h-85.333zM469.333 391.111v-170.667h85.333v170.667h-85.333zM654.222 391.111v-170.667h85.333v170.667h-85.333z" />
<glyph unicode="&#xe930;" glyph-name="sort-filled" d="M512 817.778l-199.111-256h398.222l-199.111 256zM512 78.222l-199.111 256h398.222l-199.111-256z" />
<glyph unicode="&#xe931;" glyph-name="duplicate-filled" d="M682.667 846.222v-142.222h-426.667v-426.041l-0.625 0.048c-79.438 7.478-141.598 74.355-141.598 155.749 0 0.008 0 0.016 0 0.022v412.444h568.889zM341.333 618.667v-412.444c0-86.402 70.043-156.444 156.444-156.444h256c86.402 0 156.444 70.043 156.444 156.444v412.444h-568.889zM583.111 376.889v99.556h85.333v-99.556h99.556v-85.333h-99.556v-99.556h-85.333v99.556h-99.556v85.333h99.556z" />
<glyph unicode="&#xe932;" glyph-name="paste-filled" d="M682.667 846.222v-142.222h-426.667v-426.041l-0.625 0.048c-79.438 7.478-141.598 74.355-141.598 155.749 0 0.008 0 0.016 0 0.022v412.444h568.889zM341.333 618.667v-412.444c0-86.402 70.043-156.444 156.444-156.444h256c86.402 0 156.444 70.043 156.444 156.444v412.444h-568.889z" />
<glyph unicode="&#xe933;" glyph-name="play-button-filled" d="M170.667 448c0 188.513 152.82 341.333 341.333 341.333s341.333-152.82 341.333-341.333v0c0-188.513-152.82-341.333-341.333-341.333s-341.333 152.82-341.333 341.333v0zM512 874.667c-235.641 0-426.667-191.025-426.667-426.667s191.025-426.667 426.667-426.667v0c235.641 0 426.667 191.025 426.667 426.667s-191.025 426.667-426.667 426.667v0zM711.111 447.943l-284.444-199.054v398.222l284.444-199.168z" />
<glyph unicode="&#xe934;" d="M0 960h1024v-1024h-1024z" />
<glyph unicode="&#xe935;" d="M512 433.778v0c-86.402 0-156.444 70.043-156.444 156.444s70.043 156.444 156.444 156.444v0c86.402 0 156.444-70.043 156.444-156.444s-70.043-156.444-156.444-156.444zM839.111 92.444v0c0 94.257-76.41 170.667-170.667 170.667h-312.889c-94.257 0-170.667-76.41-170.667-170.667v-113.778h654.222v113.778z" />
<glyph unicode="&#xe936;" d="M839.111-21.333v-42.667h42.667v42.667h-42.667zM184.889-21.333h-42.667v-42.667h42.667v42.667zM625.778 590.222c0-62.838-50.94-113.778-113.778-113.778v0-85.333c109.966 0 199.111 89.145 199.111 199.111v0h-85.333zM512 704c62.838 0 113.778-50.94 113.778-113.778v0h85.333c0 109.966-89.145 199.111-199.111 199.111v0-85.333zM398.222 590.222c0 62.838 50.94 113.778 113.778 113.778v0 85.333c-109.966 0-199.111-89.145-199.111-199.111v0h85.333zM512 476.444c-62.838 0-113.778 50.94-113.778 113.778v0h-85.333c0-109.966 89.145-199.111 199.111-199.111v0 85.333zM881.778-21.333v113.778h-85.333v-113.778h85.333zM184.889-64h654.222v85.333h-654.222v-85.333zM142.222 92.444v-113.778h85.333v113.778h-85.333zM355.556 305.778c-117.821 0-213.333-95.513-213.333-213.333v0h85.333c0 70.692 57.308 128 128 128v0 85.333zM668.444 305.778h-312.889v-85.333h312.889v85.333zM881.778 92.444c0 117.821-95.513 213.333-213.333 213.333v0-85.333c70.692 0 128-57.308 128-128v0h85.333z" />
<glyph unicode="&#xe937;" glyph-name="mail-filled" d="M85.333 678.514v-415.403c0-86.402 70.043-156.444 156.444-156.444h540.444c86.402 0 156.444 70.043 156.444 156.444v415.403l-299.605-282.999c-33.129-31.351-77.85-50.578-127.062-50.578s-93.933 19.227-126.976 50.498l-299.691 283.079zM92.274 789.333l351.3-331.847c17.839-16.886 41.924-27.243 68.427-27.243s50.587 10.356 68.38 27.199l351.346 331.89h-839.452z" />
<glyph unicode="&#xe938;" glyph-name="map-filled" d="M597.333 64.74v690.688l-170.667 75.89v-690.745l170.667-75.833zM682.667 59.108v685.284l227.556 56.889v-685.227l-227.556-56.889zM113.778 779.947l227.556 56.889v-685.227l-227.556-56.889v685.284z" />
<glyph unicode="&#xe939;" glyph-name="mingle-share-filled" d="M113.778 789.333v-660.366c0-61.952 73.842-94.322 119.353-52.281l124.871 115.314h395.776c86.402 0 156.444 70.043 156.444 156.444v440.889h-796.444zM682.667 533.333h-341.333v85.333h341.333v-85.333zM341.333 391.111v85.333h227.556v-85.333h-227.556z" />
<glyph unicode="&#xe93a;" glyph-name="horiz-center-align-filled" d="M682.667 789.333h-341.333v-298.667h-227.556v-85.333h227.556v-298.667h341.333v298.667h227.556v85.333h-227.556v298.667z" />
<glyph unicode="&#xe93b;" glyph-name="diamond-filled" d="M512 931.556l483.556-483.556-483.556-483.556-483.556 483.556 483.556 483.556z" />
<glyph unicode="&#xe93c;" glyph-name="timer-filled" d="M512 817.778h-170.667v85.333h341.333v-85.333h-170.667zM512 817.778v0c-219.932 0-398.222-178.29-398.222-398.222s178.29-398.222 398.222-398.222v0c219.932 0 398.222 178.29 398.222 398.222s-178.29 398.222-398.222 398.222zM712.818 560.071l-199.111-199.111-60.302 60.302 199.111 199.111 60.302-60.302z" />
<glyph unicode="&#xe93d;" glyph-name="approved-filled" d="M910.222 846.222h-796.444v-640c0-86.402 70.043-156.444 156.444-156.444v0h483.556c86.402 0 156.444 70.043 156.444 156.444v0 640zM741.262 560.071l-286.151-286.151-172.373 172.373 60.302 60.302 112.071-112.071 225.849 225.849 60.302-60.302z" />
<glyph unicode="&#xe93e;" glyph-name="mobile-filled" d="M355.556 874.667h312.889c70.692 0 128-57.308 128-128v-597.333c0-70.692-57.308-128-128-128h-312.889c-70.692 0-128 57.308-128 128v597.333c0 70.692 57.308 128 128 128zM398.222 704h227.556v85.333h-227.556v-85.333z" />
<glyph unicode="&#xe93f;" glyph-name="user-filled" d="M512 490.667v0c-86.402 0-156.444 70.043-156.444 156.444s70.043 156.444 156.444 156.444v0c86.402 0 156.444-70.043 156.444-156.444s-70.043-156.444-156.444-156.444zM867.556 149.333v0c0 94.257-76.41 170.667-170.667 170.667h-369.778c-94.257 0-170.667-76.41-170.667-170.667v-56.889h711.111v56.889zM867.556 92.444v-42.667h42.667v42.667h-42.667zM156.444 92.444h-42.667v-42.667h42.667v42.667zM625.778 647.111c0-62.838-50.94-113.778-113.778-113.778v0-85.333c109.966 0 199.111 89.145 199.111 199.111v0h-85.333zM512 760.889c62.838 0 113.778-50.94 113.778-113.778v0h85.333c0 109.966-89.145 199.111-199.111 199.111v0-85.333zM398.222 647.111c0 62.838 50.94 113.778 113.778 113.778v0 85.333c-109.966 0-199.111-89.145-199.111-199.111v0h85.333zM512 533.333c-62.838 0-113.778 50.94-113.778 113.778v0h-85.333c0-109.966 89.145-199.111 199.111-199.111v0 85.333zM910.222 92.444v56.889h-85.333v-56.889h85.333zM156.444 49.778h711.111v85.333h-711.111v-85.333zM113.778 149.333v-56.889h85.333v56.889h-85.333zM327.111 362.667c-117.821 0-213.333-95.513-213.333-213.333v0h85.333c0 70.692 57.308 128 128 128v0 85.333zM696.889 362.667h-369.778v-85.333h369.778v85.333zM910.222 149.333c0 117.821-95.513 213.333-213.333 213.333v0-85.333c70.692 0 128-57.308 128-128v0h85.333z" />
<glyph unicode="&#xe940;" glyph-name="truck-filled" d="M625.778 789.333v-498.574l-0.163-0.144c-34.815-31.147-56.726-76.419-56.726-126.809 0-0.088 0-0.176 0-0.251h-113.778c0 94.257-76.41 170.667-170.667 170.667s-170.667-76.41-170.667-170.667h-56.889v625.778h568.889zM910.222 163.556v-0.005c0 0.032 0 0.063 0 0.095 0 94.257-76.41 170.667-170.667 170.667-20.392 0-39.949-3.576-56.889-9.761v294.116h128c86.402 0 156.444-70.043 156.444-156.444v-298.667h-56.889zM398.222 163.556v0c0 62.838-50.94 113.778-113.778 113.778s-113.778-50.94-113.778-113.778v0c0-62.838 50.94-113.778 113.778-113.778s113.778 50.94 113.778 113.778zM739.556 49.778v0c-62.838 0-113.778 50.94-113.778 113.778s50.94 113.778 113.778 113.778v0c62.838 0 113.778-50.94 113.778-113.778s-50.94-113.778-113.778-113.778z" />
<glyph unicode="&#xe941;" d="M0 960h1024v-1024h-1024z" />
<glyph unicode="&#xe942;" d="M512 433.778v0c-86.402 0-156.444 70.043-156.444 156.444s70.043 156.444 156.444 156.444v0c86.402 0 156.444-70.043 156.444-156.444s-70.043-156.444-156.444-156.444zM839.111 92.444v0c0 94.257-76.41 170.667-170.667 170.667h-312.889c-94.257 0-170.667-76.41-170.667-170.667v-113.778h654.222v113.778z" />
<glyph unicode="&#xe943;" d="M839.111-21.333v-42.667h42.667v42.667h-42.667zM184.889-21.333h-42.667v-42.667h42.667v42.667zM625.778 590.222c0-62.838-50.94-113.778-113.778-113.778v0-85.333c109.966 0 199.111 89.145 199.111 199.111v0h-85.333zM512 704c62.838 0 113.778-50.94 113.778-113.778v0h85.333c0 109.966-89.145 199.111-199.111 199.111v0-85.333zM398.222 590.222c0 62.838 50.94 113.778 113.778 113.778v0 85.333c-109.966 0-199.111-89.145-199.111-199.111v0h85.333zM512 476.444c-62.838 0-113.778 50.94-113.778 113.778v0h-85.333c0-109.966 89.145-199.111 199.111-199.111v0 85.333zM881.778-21.333v113.778h-85.333v-113.778h85.333zM184.889-64h654.222v85.333h-654.222v-85.333zM142.222 92.444v-113.778h85.333v113.778h-85.333zM355.556 305.778c-117.821 0-213.333-95.513-213.333-213.333v0h85.333c0 70.692 57.308 128 128 128v0 85.333zM668.444 305.778h-312.889v-85.333h312.889v85.333zM881.778 92.444c0 117.821-95.513 213.333-213.333 213.333v0-85.333c70.692 0 128-57.308 128-128v0h85.333z" />
<glyph unicode="&#xe944;" glyph-name="calendar-filled" d="M284.444 846.222v-113.778h85.333v113.778h284.444v-113.778h85.333v113.778h170.667v-227.556h-796.444v227.556h170.667zM910.222 533.333v-327.111c0-86.402-70.043-156.444-156.444-156.444h-483.556c-86.402 0-156.444 70.043-156.444 156.444v327.111h796.444z" />
<glyph unicode="&#xe945;" glyph-name="cloud-filled" d="M142.222 519.111c0 0.113 0 0.246 0 0.379 0 164.949 133.718 298.667 298.667 298.667 140.212 0 257.858-96.618 289.99-226.908l0.428-2.051c6.662 0.652 14.401 1.024 22.227 1.024 133.53 0 241.778-108.248 241.778-241.778 0-133.444-108.109-241.639-241.521-241.778h-512.013c-0.025 0-0.056 0-0.086 0-117.821 0-213.333 95.513-213.333 213.333 0 81.505 45.708 152.335 112.889 188.255l1.145 0.559c-0.109 3.036-0.171 6.603-0.171 10.185 0 0.039 0 0.079 0 0.118v-0.006z" />
<glyph unicode="&#xe946;" glyph-name="subscribe-filled" d="M512 874.667c-235.641 0-426.667-191.025-426.667-426.667s191.025-426.667 426.667-426.667v0c235.641 0 426.667 191.025 426.667 426.667s-191.025 426.667-426.667 426.667v0zM741.262 545.849l-286.151-286.151-172.373 172.373 60.302 60.302 112.071-112.071 225.849 225.849 60.302-60.302z" />
<glyph unicode="&#xe947;" glyph-name="dirty-filled" d="M113.778 846.222h796.444l-796.444-796.444v796.444z" />
<glyph unicode="&#xe948;" glyph-name="settings-filled" d="M973.767 448l-230.969-398.222h-461.596l-230.969 398.222 230.969 398.222h461.596l230.969-398.222zM512 277.333c94.257 0 170.667 76.41 170.667 170.667s-76.41 170.667-170.667 170.667v0c-94.257 0-170.667-76.41-170.667-170.667s76.41-170.667 170.667-170.667v0z" />
<glyph unicode="&#xe949;" glyph-name="apply-rule-filled" d="M512 874.667c-235.641 0-426.667-191.025-426.667-426.667s191.025-426.667 426.667-426.667v0c235.641 0 426.667 191.025 426.667 426.667s-191.025 426.667-426.667 426.667v0zM741.262 545.849l-286.151-286.151-172.373 172.373 60.302 60.302 112.071-112.071 225.849 225.849 60.302-60.302z" />
<glyph unicode="&#xe94a;" glyph-name="alert-alert" d="M402.603 790.869c49.835 82.091 168.96 82.091 218.795 0l331.947-546.702c51.769-85.333-9.671-194.389-109.397-194.389h-663.893c-99.783 0-161.166 109.113-109.397 194.389l331.947 546.702zM455.111 305.778v-113.778h113.778v113.778h-113.778zM568.889 590.222h-113.778l14.222-227.556h85.333l14.222 227.556z" />
<glyph unicode="&#xe94b;" glyph-name="pause-filled" d="M412.444 746.667v-540.444c0-31.419-25.47-56.889-56.889-56.889h-85.333c-31.419 0-56.889 25.47-56.889 56.889v540.444h199.111zM810.667 746.667v-540.444c0-31.419-25.47-56.889-56.889-56.889h-85.333c-31.419 0-56.889 25.47-56.889 56.889v540.444h199.111zM213.333 746.667v42.667h-42.667v-42.667h42.667zM412.444 746.667h42.667v42.667h-42.667v-42.667zM611.556 746.667v42.667h-42.667v-42.667h42.667zM810.667 746.667h42.667v42.667h-42.667v-42.667zM213.333 704h199.111v85.333h-199.111v-85.333zM256 206.222v540.444h-85.333v-540.444h85.333zM270.222 192c-7.855 0-14.222 6.368-14.222 14.222v0h-85.333c0-54.955 44.601-99.556 99.556-99.556v85.333zM355.556 192h-85.333v-85.333h85.333v85.333zM369.778 206.222c0-7.855-6.368-14.222-14.222-14.222v0-85.333c54.983 0 99.556 44.573 99.556 99.556v0h-85.333zM369.778 746.667v-540.444h85.333v540.444h-85.333zM611.556 704h199.111v85.333h-199.111v-85.333zM654.222 206.222v540.444h-85.333v-540.444h85.333zM668.444 192c-7.855 0-14.222 6.368-14.222 14.222v0h-85.333c0-54.955 44.601-99.556 99.556-99.556v85.333zM753.778 192h-85.333v-85.333h85.333v85.333zM768 206.222c0-7.855-6.368-14.222-14.222-14.222v0-85.333c54.983 0 99.556 44.573 99.556 99.556v0h-85.333zM768 746.667v-540.444h85.333v540.444h-85.333z" />
<glyph unicode="&#xe94c;" glyph-name="question-mark-filled" d="M938.667 448c0-235.641-191.025-426.667-426.667-426.667s-426.667 191.025-426.667 426.667v0c0 235.641 191.025 426.667 426.667 426.667s426.667-191.025 426.667-426.667v0zM568.889 334.222h-113.778v-113.778h113.778v113.778zM469.333 675.556c-70.692 0-128-57.308-128-128v0-14.222h85.333v14.222c0 23.564 19.103 42.667 42.667 42.667v0h101.717c0.038 0 0.082 0 0.127 0 14.516 0 26.283-11.767 26.283-26.283 0-10.692-6.384-19.892-15.548-23.998l-0.167-0.067-36.409-16.156c-45.155-20.435-76.004-65.097-76.004-116.963 0 0 0 0 0 0v0-15.644h85.333v15.644c0 0.014 0 0.030 0 0.046 0 17.282 10.274 32.163 25.048 38.87l0.268 0.109 36.409 16.156c39.387 17.815 66.297 56.766 66.297 102.002 0 61.644-49.972 111.616-111.616 111.616-0.008 0-0.015 0-0.023 0h-101.716z" />
<glyph unicode="&#xe94d;" glyph-name="make-same-height-filled" d="M298.667 849.636l172.373-172.373-60.302-60.302-69.404 69.404v-476.729l69.404 69.404 60.302-60.302-172.373-172.373-172.373 172.373 60.302 60.302 69.404-69.404v476.729l-69.404-69.404-60.302 60.302 172.373 172.373zM910.222 789.333h-341.333v-682.667h341.333v682.667z" />
<glyph unicode="&#xe94e;" glyph-name="doc-check-filled" d="M568.889 590.222h273.636l-273.636 273.636v-273.636zM483.556 547.556v327.111h-312.889v-696.889c0-86.402 70.043-156.444 156.444-156.444v0h369.778c86.402 0 156.444 70.043 156.444 156.444v0 327.111h-369.778v42.667zM698.596 346.738l-229.262-229.262-143.929 143.929 60.302 60.302 83.627-83.627 168.96 168.96 60.302-60.302z" />
<glyph unicode="&#xe94f;" glyph-name="special-item-filled" d="M512 887.865l151.95-259.186 293.49-64.398-199.566-224.654 29.412-299.008-275.285 120.377-275.228-120.377 29.412 299.008-199.623 224.654 293.49 64.398 151.893 259.186z" />
<glyph unicode="&#xe950;" glyph-name="agent-filled" d="M284.444 647.111v-56.889c-39.274 0-71.111-31.838-71.111-71.111s31.838-71.111 71.111-71.111h85.333v199.111c0 78.547 63.675 142.222 142.222 142.222s142.222-63.675 142.222-142.222v-156.444c0-39.253-31.858-71.111-71.111-71.111h-71.111v-85.333h71.11c0.007 0 0.014 0 0.022 0 71.302 0 131.467 47.683 150.621 114.005l-0.257 0.017c1.958-0.162 3.939-0.245 5.94-0.245 39.274 0 71.111 31.838 71.111 71.111 0 39.232-31.769 71.043-70.992 71.111v56.889c0 125.675-101.88 227.556-227.556 227.556s-227.556-101.88-227.556-227.556zM384 277.333h256c117.821 0 213.333-95.513 213.333-213.333v-14.222h-682.667v14.222c0 117.821 95.513 213.333 213.333 213.333z" />
<glyph unicode="&#xe951;" glyph-name="travel-plan-filled" d="M682.667 775.111v-668.444h-341.333v668.444c0 70.692 57.308 128 128 128v0h85.333c70.692 0 128-57.308 128-128v0zM597.333 732.444v42.667c0 23.564-19.103 42.667-42.667 42.667v0h-85.333c-23.564 0-42.667-19.103-42.667-42.667v0-42.667h170.667zM256 732.444v-625.778h-14.222c-86.402 0-156.444 70.043-156.444 156.444v469.333h170.667zM782.222 106.667v0c86.402 0 156.444 70.043 156.444 156.444v469.333h-170.667v-625.778h14.222z" />
<glyph unicode="&#xe952;" glyph-name="report-filled" d="M696.889 846.222h-526.222v-170.667h-85.333v-85.333h85.333v-99.556h-85.333v-85.333h85.333v-99.556h-85.333v-85.333h85.333v-170.667h526.222c86.402 0 156.444 70.043 156.444 156.444v0 483.556c0 86.402-70.043 156.444-156.444 156.444v0z" />
<glyph unicode="&#xe953;" glyph-name="tree-excel-filled" d="M568.889 863.858v-273.636h273.636l-273.636 273.636zM483.556 874.667v-369.778h369.778v-85.333h-682.667v455.111h312.889zM341.333 248.889h-170.667v85.333h170.667v-85.333zM682.667 248.889h170.667v85.333h-170.667v-85.333zM597.333 248.889h-170.667v85.333h170.667v-85.333zM170.667 78.222h170.667v85.333h-170.667v-85.333zM853.333 78.222h-170.667v85.333h170.667v-85.333zM426.667 78.222h170.667v85.333h-170.667v-85.333z" />
<glyph unicode="&#xe954;" glyph-name="top-align-filled" d="M113.778 846.222h796.444v-85.333h-796.444v85.333zM682.667 106.667h-341.333v568.889h341.333v-568.889z" />
<glyph unicode="&#xe955;" glyph-name="reject-filled" d="M113.778 846.222v-640c0-86.402 70.043-156.444 156.444-156.444h483.556c86.402 0 156.444 70.043 156.444 156.444v640h-796.444zM451.698 448l-140.516 140.516 60.302 60.302 140.516-140.516 140.516 140.516 60.302-60.302-140.516-140.516 140.516-140.516-60.302-60.302-140.516 140.516-140.516-140.516-60.302 60.302 140.516 140.516z" />
<glyph unicode="&#xe956;" glyph-name="list-view-filled" d="M853.333 846.222h-682.667v-341.333h682.667v341.333zM853.333 391.111h-682.667v-341.333h682.667v341.333z" />
<glyph unicode="&#xe957;" glyph-name="user-status-busy" d="M512 21.333v0c-235.641 0-426.667 191.025-426.667 426.667s191.025 426.667 426.667 426.667v0c235.641 0 426.667-191.025 426.667-426.667s-191.025-426.667-426.667-426.667zM739.556 490.667h-455.111v-85.333h455.111v85.333z" />
<glyph unicode="&#xe958;" glyph-name="make-same-width-filled" d="M853.333 846.222v-341.333h-682.667v341.333h682.667zM110.364 234.667l172.373-172.373 60.302 60.302-69.404 69.404h476.729l-69.404-69.404 60.302-60.302 172.373 172.373-172.373 172.373-60.302-60.302 69.404-69.404h-476.729l69.404 69.404-60.302 60.302-172.373-172.373z" />
<glyph unicode="&#xe959;" glyph-name="folder-filled" d="M412.444 846.222v0c86.402 0 156.444-70.043 156.444-156.444v-14.222h-455.111v170.667h298.667zM910.222 618.667v-355.556c0-86.402-70.043-156.444-156.444-156.444h-483.556c-86.402 0-156.444 70.043-156.444 156.444v355.556h796.444z" />
<glyph unicode="&#xe95a;" glyph-name="contacts-filled" d="M696.889 846.222v0c86.402 0 156.444-70.043 156.444-156.444v-483.556c0-86.402-70.043-156.444-156.444-156.444h-526.222v170.667h-56.889v85.333h56.889v99.556h-56.889v85.333h56.889v99.556h-56.889v85.333h56.889v170.667h526.222zM483.556 419.556c-47.128 0-85.333-38.205-85.333-85.333v0-56.889h284.444v56.889c0 47.128-38.205 85.333-85.333 85.333v0h-113.778zM625.778 561.778v0c0 47.128-38.205 85.333-85.333 85.333s-85.333-38.205-85.333-85.333v0c0-47.128 38.205-85.333 85.333-85.333s85.333 38.205 85.333 85.333z" />
<glyph unicode="&#xe95b;" glyph-name="connections-filled" d="M687.616 98.361l-0.854 0.443c24.733-13.947 53.294-21.904 83.712-21.904 94.265 0 170.681 76.417 170.681 170.681 0 63.846-35.056 119.504-87.822 149.22l-0.004 0.295c-2.083 123.401-69.673 230.853-171.118 289.952l-0.031 0.542c-6.252 88.566-80.081 158.473-170.238 158.473s-163.986-69.907-170.268-159.015l-1.619-0.873c-99.78-58.253-167.327-165.699-169.389-289.374l-0.854-0.443c-51.92-29.281-86.979-84.949-86.979-148.805 0-94.286 76.434-170.72 170.72-170.72 30.43 0 59 7.961 82.887 21.472l-1.5 0.849c51.441-31.329 111.861-49.376 176.497-49.376 0.198 0 0.396 0 0.563 0h-0.031c0.198 0 0.396-0.001 0.594-0.001 64.635 0 125.055 18.046 174.996 48.527zM766.407 419.556c-93.589-0.876-169.119-76.947-169.119-170.66 0-32.864 9.289-63.558 25.385-89.601l-0.422 0.733c-32.156-15.724-69.972-24.918-109.936-24.918-0.111 0-0.221 0-0.332 0h0.017c-0.093 0-0.204 0-0.315 0-39.963 0-77.779 9.194-111.448 25.582l1.512-0.664c15.674 25.309 24.963 56.004 24.963 88.867 0 93.713-75.531 169.784-169.036 170.659l-0.083 0.001c8.376 73.244 46.591 136.2 101.996 177.29l0.689 0.488c28.966-55.375 86.007-92.517 151.723-92.517s122.756 37.142 151.275 91.578l0.448 0.939c56.116-41.569 94.351-104.526 102.631-176.596l0.11-1.182z" />
<glyph unicode="&#xe95c;" glyph-name="filter-is-not-empty-filled" d="M512 874.667v0c235.641 0 426.667-191.025 426.667-426.667s-191.025-426.667-426.667-426.667v0c-235.641 0-426.667 191.025-426.667 426.667s191.025 426.667 426.667 426.667zM512 305.778c78.547 0 142.222 63.675 142.222 142.222s-63.675 142.222-142.222 142.222v0c-78.547 0-142.222-63.675-142.222-142.222s63.675-142.222 142.222-142.222v0z" />
<glyph unicode="&#xe95d;" glyph-name="design-mode-filled" d="M327.111 849.636l-216.804-216.747 124.587-124.53 216.804 216.747-124.587 124.53zM711.168 32.085l216.747 216.747-138.809 138.809-216.804-216.747 138.809-138.752zM645.404 798.094l-40.96-40.96 216.747-216.747 40.96 40.96c27.735 27.735 44.89 66.051 44.89 108.373 0 84.645-68.618 153.263-153.263 153.263-42.322 0-80.638-17.155-108.373-44.89zM544.085 696.889l-430.308-430.364v-216.747h216.804l430.308 430.308-216.747 216.747z" />
<glyph unicode="&#xe95e;" glyph-name="dropdown-indicator-filled" d="M938.667 448v0c0-235.641-191.025-426.667-426.667-426.667s-426.667 191.025-426.667 426.667v0c0 235.641 191.025 426.667 426.667 426.667s426.667-191.025 426.667-426.667zM511.943 248.889l199.168 284.444h-398.222l199.054-284.444z" />
<glyph unicode="&#xe95f;" glyph-name="schedule-filled" d="M284.444 846.222v-113.778h85.333v113.778h284.444v-113.778h85.333v113.778h170.667v-227.556h-796.444v227.556h170.667zM910.222 533.333v-327.111c0-86.402-70.043-156.444-156.444-156.444h-483.556c-86.402 0-156.444 70.043-156.444 156.444v327.111h796.444z" />
<glyph unicode="&#xe960;" glyph-name="document2-filled" d="M568.889 863.858l273.636-273.636h-273.636v273.636zM483.556 874.667h-312.889v-696.889c0-86.402 70.043-156.444 156.444-156.444h369.778c86.402 0 156.444 70.043 156.444 156.444v327.111h-369.778v369.778z" />
<glyph unicode="&#xe961;" glyph-name="spreadsheet-filled" d="M568.889 863.858v-273.636h273.636l-273.636 273.636zM483.556 874.667v-369.778h369.778v-85.333h-682.667v455.111h312.889zM341.333 248.889h-170.667v85.333h170.667v-85.333zM682.667 248.889h170.667v85.333h-170.667v-85.333zM597.333 248.889h-170.667v85.333h170.667v-85.333zM170.667 78.222h170.667v85.333h-170.667v-85.333zM853.333 78.222h-170.667v85.333h170.667v-85.333zM426.667 78.222h170.667v85.333h-170.667v-85.333z" />
<glyph unicode="&#xe962;" glyph-name="group-filled" d="M384 320h-113.778c-62.838 0-113.778 50.94-113.778 113.778v0 369.778h483.556v-227.556h227.556v-369.778c0-62.838-50.94-113.778-113.778-113.778v0h-256c-62.838 0-113.778 50.94-113.778 113.778v0 113.778zM384 320h42.667v42.667h-42.667v-42.667zM156.444 803.556v42.667h-42.667v-42.667h42.667zM640 803.556h42.667v42.667h-42.667v-42.667zM640 576h-42.667v-42.667h42.667v42.667zM867.556 576h42.667v42.667h-42.667v-42.667zM270.222 277.333h113.778v85.333h-113.778v-85.333zM113.778 433.778c0-86.402 70.043-156.444 156.444-156.444v0 85.333c-39.253 0-71.111 31.858-71.111 71.111h-85.333zM113.778 803.556v-369.778h85.333v369.778h-85.333zM640 846.222h-483.556v-85.333h483.556v85.333zM682.667 576v227.556h-85.333v-227.556h85.333zM867.556 618.667h-227.556v-85.333h227.556v85.333zM910.222 206.222v369.778h-85.333v-369.778h85.333zM753.778 49.778c86.402 0 156.444 70.043 156.444 156.444v0h-85.333c0-39.253-31.858-71.111-71.111-71.111v-85.333zM497.778 49.778h256v85.333h-256v-85.333zM341.333 206.222c0-86.402 70.043-156.444 156.444-156.444v0 85.333c-39.253 0-71.111 31.858-71.111 71.111h-85.333zM341.333 320v-113.778h85.333v113.778h-85.333z" />
<glyph unicode="&#xe963;" glyph-name="select-filled" d="M142.222 817.778l767.317-222.777-191.829-191.829 169.244-169.188-160.939-160.939-169.188 169.244-191.829-191.829-222.777 767.317z" />
<glyph unicode="&#xe964;" glyph-name="tile-filled" d="M398.222 803.556h-256v-256h256v256zM853.333 803.556h-256v-256h256v256zM597.333 348.444h256v-256h-256v256zM398.222 348.444h-256v-256h256v256zM142.222 803.556v42.667h-42.667v-42.667h42.667zM398.222 803.556h42.667v42.667h-42.667v-42.667zM142.222 547.556h-42.667v-42.667h42.667v42.667zM398.222 547.556v-42.667h42.667v42.667h-42.667zM597.333 803.556v42.667h-42.667v-42.667h42.667zM853.333 803.556h42.667v42.667h-42.667v-42.667zM597.333 547.556h-42.667v-42.667h42.667v42.667zM853.333 547.556v-42.667h42.667v42.667h-42.667zM853.333 348.444h42.667v42.667h-42.667v-42.667zM597.333 348.444v42.667h-42.667v-42.667h42.667zM853.333 92.444v-42.667h42.667v42.667h-42.667zM597.333 92.444h-42.667v-42.667h42.667v42.667zM142.222 348.444v42.667h-42.667v-42.667h42.667zM398.222 348.444h42.667v42.667h-42.667v-42.667zM142.222 92.444h-42.667v-42.667h42.667v42.667zM398.222 92.444v-42.667h42.667v42.667h-42.667zM142.222 760.889h256v85.333h-256v-85.333zM184.889 547.556v256h-85.333v-256h85.333zM398.222 590.222h-256v-85.333h256v85.333zM355.556 803.556v-256h85.333v256h-85.333zM597.333 760.889h256v85.333h-256v-85.333zM640 547.556v256h-85.333v-256h85.333zM853.333 590.222h-256v-85.333h256v85.333zM810.667 803.556v-256h85.333v256h-85.333zM853.333 391.111h-256v-85.333h256v85.333zM896 92.444v256h-85.333v-256h85.333zM597.333 49.778h256v85.333h-256v-85.333zM554.667 348.444v-256h85.333v256h-85.333zM142.222 305.778h256v85.333h-256v-85.333zM184.889 92.444v256h-85.333v-256h85.333zM398.222 135.111h-256v-85.333h256v85.333zM355.556 348.444v-256h85.333v256h-85.333z" />
<glyph unicode="&#xe965;" glyph-name="record-filled" d="M512 874.667v0c235.641 0 426.667-191.025 426.667-426.667s-191.025-426.667-426.667-426.667v0c-235.641 0-426.667 191.025-426.667 426.667s191.025 426.667 426.667 426.667zM512 305.778c78.547 0 142.222 63.675 142.222 142.222s-63.675 142.222-142.222 142.222v0c-78.547 0-142.222-63.675-142.222-142.222s63.675-142.222 142.222-142.222v0z" />
<glyph unicode="&#xe966;" glyph-name="stacked-filled" d="M270.222 746.667h483.556v-199.111h-483.556v199.111zM156.444 405.333h711.111v-256h-711.111v256zM753.778 746.667h42.667v42.667h-42.667v-42.667zM270.222 746.667v42.667h-42.667v-42.667h42.667zM753.778 547.556v-42.667h42.667v42.667h-42.667zM270.222 547.556h-42.667v-42.667h42.667v42.667zM867.556 405.333h42.667v42.667h-42.667v-42.667zM156.444 405.333v42.667h-42.667v-42.667h42.667zM867.556 149.333v-42.667h42.667v42.667h-42.667zM156.444 149.333h-42.667v-42.667h42.667v42.667zM753.778 789.333h-483.556v-85.333h483.556v85.333zM796.444 547.556v199.111h-85.333v-199.111h85.333zM270.222 504.889h483.556v85.333h-483.556v-85.333zM227.556 746.667v-199.111h85.333v199.111h-85.333zM867.556 448h-711.111v-85.333h711.111v85.333zM910.222 149.333v256h-85.333v-256h85.333zM156.444 106.667h711.111v85.333h-711.111v-85.333zM113.778 405.333v-256h85.333v256h-85.333z" />
<glyph unicode="&#xe967;" glyph-name="distribute-vertically-filled" d="M113.778 760.889h796.444v85.333h-796.444v-85.333zM227.556 277.333v341.333h568.889v-341.333h-568.889zM910.222 49.778h-796.444v85.333h796.444v-85.333z" />
<glyph unicode="&#xe968;" glyph-name="columns-filled" d="M625.778 789.333v-682.667h-227.556v682.667h227.556zM711.111 789.333h227.556v-526.222c0-86.402-70.043-156.444-156.444-156.444h-71.111v682.667zM85.333 789.333v-526.222c0-86.402 70.043-156.444 156.444-156.444h71.111v682.667h-227.556z" />
<glyph unicode="&#xe969;" glyph-name="binoculars-filled" d="M98.361 633.856c12.219 88.133 87.067 155.258 177.593 155.258 95.891 0 174.19-75.317 178.969-170.020l0.017-0.427h114.176c4.957 94.993 83.188 170.141 178.971 170.141 90.417 0 165.195-66.964 177.443-154.004l0.109-0.948 41.074-308.224-0.569-0.057c0.769-6.571 1.208-14.184 1.208-21.899 0-109.966-89.145-199.111-199.111-199.111-100.677 0-183.902 74.72-197.244 171.73l-0.117 1.038h-117.76c-13.459-98.048-96.684-172.768-197.361-172.768-109.966 0-199.111 89.145-199.111 199.111 0 7.715 0.439 15.328 1.293 22.815l-0.085-0.915-0.569 0.057 41.074 308.224zM256 419.556c-62.838 0-113.778-50.94-113.778-113.778s50.94-113.778 113.778-113.778v0c62.838 0 113.778 50.94 113.778 113.778s-50.94 113.778-113.778 113.778v0zM768 419.556c-62.838 0-113.778-50.94-113.778-113.778s50.94-113.778 113.778-113.778v0c62.838 0 113.778 50.94 113.778 113.778s-50.94 113.778-113.778 113.778v0z" />
<glyph unicode="&#xe96a;" glyph-name="distribution-filled" d="M512 519.111v0c-78.547 0-142.222 63.675-142.222 142.222s63.675 142.222 142.222 142.222v0c78.547 0 142.222-63.675 142.222-142.222s-63.675-142.222-142.222-142.222zM412.444 234.667v0c0 78.547-63.675 142.222-142.222 142.222s-142.222-63.675-142.222-142.222v0c0-78.547 63.675-142.222 142.222-142.222s142.222 63.675 142.222 142.222zM896 234.667v0c0 78.547-63.675 142.222-142.222 142.222s-142.222-63.675-142.222-142.222v0c0-78.547 63.675-142.222 142.222-142.222s142.222 63.675 142.222 142.222zM611.556 661.333c0-54.983-44.573-99.556-99.556-99.556v0-85.333c102.111 0 184.889 82.778 184.889 184.889v0h-85.333zM512 760.889c54.955 0 99.556-44.601 99.556-99.556h85.333c0 102.111-82.778 184.889-184.889 184.889v0-85.333zM412.444 661.333c0 54.955 44.601 99.556 99.556 99.556v85.333c-102.111 0-184.889-82.778-184.889-184.889v0h85.333zM512 561.778c-54.983 0-99.556 44.573-99.556 99.556v0h-85.333c0-102.111 82.778-184.889 184.889-184.889v0 85.333zM270.222 49.778c102.111 0 184.889 82.778 184.889 184.889v0h-85.333c0-54.983-44.573-99.556-99.556-99.556v0-85.333zM85.333 234.667c0-102.111 82.778-184.889 184.889-184.889v0 85.333c-54.983 0-99.556 44.573-99.556 99.556v0h-85.333zM270.222 419.556c-102.111 0-184.889-82.778-184.889-184.889v0h85.333c0 54.955 44.601 99.556 99.556 99.556v85.333zM455.111 234.667c0 102.111-82.778 184.889-184.889 184.889v0-85.333c54.955 0 99.556-44.601 99.556-99.556h85.333zM753.778 49.778c102.111 0 184.889 82.778 184.889 184.889v0h-85.333c0-54.983-44.573-99.556-99.556-99.556v0-85.333zM568.889 234.667c0-102.111 82.778-184.889 184.889-184.889v0 85.333c-54.983 0-99.556 44.573-99.556 99.556v0h-85.333zM753.778 419.556c-102.111 0-184.889-82.778-184.889-184.889v0h85.333c0 54.955 44.601 99.556 99.556 99.556v85.333zM938.667 234.667c0 102.111-82.778 184.889-184.889 184.889v0-85.333c54.955 0 99.556-44.601 99.556-99.556h85.333z" />
<glyph unicode="&#xe96b;" glyph-name="building-filled" d="M113.778 746.667v0c0 54.983 44.573 99.556 99.556 99.556h227.556c54.983 0 99.556-44.573 99.556-99.556v-71.111h270.222c54.983 0 99.556-44.573 99.556-99.556v-526.222h-796.444v696.889zM597.333 419.556h170.667v85.333h-170.667v-85.333zM768 248.889v85.333h-170.667v-85.333h170.667zM256 590.222h142.222v85.333h-142.222v-85.333zM398.222 419.556v85.333h-142.222v-85.333h142.222zM256 248.889h142.222v85.333h-142.222v-85.333z" />
<glyph unicode="&#xe96c;" glyph-name="unsubscribe-filled" d="M938.667 448v0c0 235.641-191.025 426.667-426.667 426.667s-426.667-191.025-426.667-426.667v0c0-235.641 191.025-426.667 426.667-426.667s426.667 191.025 426.667 426.667zM451.698 448l-140.516 140.516 60.302 60.302 140.516-140.516 140.516 140.516 60.302-60.302-140.516-140.516 140.516-140.516-60.302-60.302-140.516 140.516-140.516-140.516-60.302 60.302 140.516 140.516z" />
<glyph unicode="&#xe96d;" glyph-name="user-status-available" d="M512 874.667c-235.641 0-426.667-191.025-426.667-426.667s191.025-426.667 426.667-426.667v0c235.641 0 426.667 191.025 426.667 426.667s-191.025 426.667-426.667 426.667v0zM741.262 545.849l-286.151-286.151-172.373 172.373 60.302 60.302 112.071-112.071 225.849 225.849 60.302-60.302z" />
<glyph unicode="&#xe96e;" glyph-name="bookmark-filled" d="M241.778 689.778c0 62.838 50.94 113.778 113.778 113.778v0h312.889c62.838 0 113.778-50.94 113.778-113.778v0-625.778l-270.222 184.889-270.222-184.889v625.778zM782.222 64l-24.121-35.214 66.788-45.682v80.896h-42.667zM241.778 64h-42.667v-80.896l66.788 45.682-24.121 35.214zM512 248.889l24.121 35.214-24.121 16.498-24.121-16.498 24.121-35.214zM355.556 760.889h312.889v85.333h-312.889v-85.333zM739.556 689.778v-625.778h85.333v625.778h-85.333zM284.444 64v625.778h-85.333v-625.778h85.333zM806.343 99.214l-270.222 184.889-48.242-70.428 270.222-184.889 48.242 70.428zM487.879 284.103l-270.222-184.889 48.242-70.428 270.222 184.889-48.242 70.428zM668.444 760.889c39.253 0 71.111-31.858 71.111-71.111h85.333c0 86.402-70.043 156.444-156.444 156.444v0-85.333zM355.556 846.222c-86.402 0-156.444-70.043-156.444-156.444v0h85.333c0 39.253 31.858 71.111 71.111 71.111v85.333z" />
<glyph unicode="&#xe96f;" glyph-name="user-status-away" d="M512 874.667v0c235.641 0 426.667-191.025 426.667-426.667s-191.025-426.667-426.667-426.667v0c-235.641 0-426.667 191.025-426.667 426.667s191.025 426.667 426.667 426.667zM455.111 675.556v-284.444h227.556v85.333h-142.222v199.111h-85.333z" />
<glyph unicode="&#xe970;" glyph-name="insert-image-filled" d="M910.222 846.222v-611.556c0-102.111-82.778-184.889-184.889-184.889h-426.667c-102.111 0-184.889 82.778-184.889 184.889v611.556h796.444zM568.889 590.222c0-47.128 38.205-85.333 85.333-85.333s85.333 38.205 85.333 85.333v0c0 47.128-38.205 85.333-85.333 85.333s-85.333-38.205-85.333-85.333v0zM298.667 135.111h412.444l-355.556 355.556-156.444-156.444v-99.556c0-54.955 44.601-99.556 99.556-99.556z" />
<glyph unicode="&#xe971;" glyph-name="closed-folder-filled" d="M412.444 846.222v0c86.402 0 156.444-70.043 156.444-156.444v-14.222h-455.111v170.667h298.667zM910.222 618.667v-355.556c0-86.402-70.043-156.444-156.444-156.444h-483.556c-86.402 0-156.444 70.043-156.444 156.444v355.556h796.444z" />
<glyph unicode="&#xe972;" glyph-name="tree-doc-filled" d="M568.889 863.858l273.636-273.636h-273.636v273.636zM483.556 874.667h-312.889v-696.889c0-86.402 70.043-156.444 156.444-156.444h369.778c86.402 0 156.444 70.043 156.444 156.444v327.111h-369.778v369.778z" />
<glyph unicode="&#xe973;" glyph-name="tree-expenses-filled" d="M170.667 846.222v-847.644l190.35 126.862 150.983-115.086 150.983 115.029 190.35-126.862v847.701h-682.667zM682.667 533.333h-341.333v85.333h341.333v-85.333zM341.333 362.667v85.333h227.556v-85.333h-227.556z" />
<glyph unicode="&#xe974;" glyph-name="filter-selected-notselected" d="M512 874.667c235.641 0 426.667-191.025 426.667-426.667s-191.025-426.667-426.667-426.667v0c-235.641 0-426.667 191.025-426.667 426.667s191.025 426.667 426.667 426.667v0zM853.333 448c0 188.513-152.82 341.333-341.333 341.333v0-682.667c188.513 0 341.333 152.82 341.333 341.333v0z" />
<glyph unicode="&#xe975;" glyph-name="tree-video-filled" d="M938.667 789.333h-853.333v-526.222c0-86.402 70.043-156.444 156.444-156.444v0h540.444c86.402 0 156.444 70.043 156.444 156.444v0 526.222zM711.111 448l-284.444-170.667v341.333l284.444-170.667z" />
<glyph unicode="&#xe976;" glyph-name="filter-selected-filled" d="M512 874.667c-235.641 0-426.667-191.025-426.667-426.667s191.025-426.667 426.667-426.667v0c235.641 0 426.667 191.025 426.667 426.667s-191.025 426.667-426.667 426.667v0zM741.262 545.849l-286.151-286.151-172.373 172.373 60.302 60.302 112.071-112.071 225.849 225.849 60.302-60.302z" />
<glyph unicode="&#xe977;" glyph-name="filter-calendar-filled" d="M284.444 846.222v-113.778h85.333v113.778h284.444v-113.778h85.333v113.778h170.667v-227.556h-796.444v227.556h170.667zM910.222 533.333v-327.111c0-86.402-70.043-156.444-156.444-156.444h-483.556c-86.402 0-156.444 70.043-156.444 156.444v327.111h796.444z" />
<glyph unicode="&#xe978;" glyph-name="bolt-filled" d="M973.767 448l-230.969-398.222h-461.596l-230.969 398.222 230.969 398.222h461.596l230.969-398.222zM512 277.333c94.257 0 170.667 76.41 170.667 170.667s-76.41 170.667-170.667 170.667v0c-94.257 0-170.667-76.41-170.667-170.667s76.41-170.667 170.667-170.667v0z" />
<glyph unicode="&#xe979;" glyph-name="show-item-filled" d="M511.943 789.333c203.89 0 376.036-135.68 453.404-325.234l6.542-16.1-6.542-16.1c-77.312-189.554-249.515-325.234-453.348-325.234s-376.036 135.68-453.291 325.234l-6.599 16.1 6.485 16.1c77.369 189.554 249.572 325.234 453.404 325.234zM398.222 448v0c0-62.838 50.94-113.778 113.778-113.778s113.778 50.94 113.778 113.778v0c0 62.838-50.94 113.778-113.778 113.778s-113.778-50.94-113.778-113.778zM512 647.111c-109.966 0-199.111-89.145-199.111-199.111s89.145-199.111 199.111-199.111v0c109.966 0 199.111 89.145 199.111 199.111s-89.145 199.111-199.111 199.111v0z" />
<glyph unicode="&#xe97a;" glyph-name="week-filled" d="M910.222 846.222v-640c0-86.402-70.043-156.444-156.444-156.444h-483.556c-86.402 0-156.444 70.043-156.444 156.444v640h796.444zM654.222 675.556v-455.111h85.333v455.111h-85.333zM284.444 220.444h85.333v455.111h-85.333v-455.111zM469.333 675.556v-455.111h85.333v455.111h-85.333z" />
<glyph unicode="&#xe97b;" glyph-name="hour-view-filled" d="M910.222 760.889h-796.444v85.333h796.444v-85.333zM455.111 49.778h-341.333v85.333h341.333v-85.333zM568.889 49.778h341.333v85.333h-341.333v-85.333zM113.778 675.556h341.333v-455.111h-341.333v455.111zM910.222 675.556h-341.333v-455.111h341.333v455.111z" />
<glyph unicode="&#xe97c;" glyph-name="authenticate-filled" d="M512 21.333v0c-235.641 0-426.667 191.025-426.667 426.667s191.025 426.667 426.667 426.667v0c235.641 0 426.667-191.025 426.667-426.667s-191.025-426.667-426.667-426.667zM369.778 362.667v0c0-31.419 25.47-56.889 56.889-56.889s56.889 25.47 56.889 56.889v0c0 31.419-25.47 56.889-56.889 56.889s-56.889-25.47-56.889-56.889zM426.667 504.889c-78.539-0.010-142.204-63.682-142.204-142.222 0-78.547 63.675-142.222 142.222-142.222s142.222 63.675 142.222 142.222c0 24.037-5.963 46.682-16.491 66.535l0.373-0.771 72.476 72.476 52.338-54.101 61.326 59.278-53.305 55.182 41.415 41.472-60.302 60.302-174.308-174.251c-19.028 10.143-41.613 16.1-65.589 16.1-0.061 0-0.123 0-0.184 0h0.009z" />
<glyph unicode="&#xe97d;" glyph-name="process-filled" d="M113.778 846.222h284.444v-113.778h348.444c90.329 0 163.556-73.226 163.556-163.556s-73.226-163.556-163.556-163.556v0h-469.333c-43.201 0-78.222-35.021-78.222-78.222s35.021-78.222 78.222-78.222v0h325.916c19.211 66.235 79.333 113.835 150.573 113.835 86.433 0 156.501-70.068 156.501-156.501s-70.068-156.501-156.501-156.501c-71.24 0-131.362 47.599-150.298 112.729l-0.275 1.106h-325.916c-90.329 0-163.556 73.226-163.556 163.556s73.226 163.556 163.556 163.556v0h469.333c43.201 0 78.222 35.021 78.222 78.222s-35.021 78.222-78.222 78.222v0h-348.444v-85.333h-284.444v284.444z" />
<glyph unicode="&#xe97e;" glyph-name="cog-filled" d="M631.524 874.667l26.283-117.931 2.040-0.887c16.699-8.058 32.641-17.436 46.6-27.273l115.314 36.295 119.524-207.076-89.088-81.749-0.085 1.264c0.807-9.663 1.219-19.439 1.219-29.31s-0.412-19.647-1.134-28.046l89.088-81.749-119.524-207.076-115.314 36.295c-15.36-10.638-31.63-20.082-48.697-28.16l-26.169-117.931h-239.161l-26.169 117.931c-17.067 8.078-33.28 17.522-48.64 28.16l-115.314-36.295-119.58 207.076 89.088 81.749 0.085-1.262c-0.812 9.662-1.226 19.437-1.226 29.308s0.414 19.647 1.141 28.046l-89.088 81.749 119.58 207.076 115.314-36.295c15.303 10.638 31.573 20.082 48.64 28.16l26.169 117.931h239.161zM512 320c70.692 0 128 57.308 128 128s-57.308 128-128 128v0c-70.692 0-128-57.308-128-128s57.308-128 128-128v0z" />
<glyph unicode="&#xe97f;" glyph-name="two-column-filled" d="M455.111 789.333h-369.778v-682.667h369.778v682.667zM938.667 789.333h-369.778v-682.667h369.778v682.667z" />
<glyph unicode="&#xe980;" glyph-name="stop-filled" d="M213.333 746.667h597.333v-483.556c0-62.838-50.94-113.778-113.778-113.778v0h-369.778c-62.838 0-113.778 50.94-113.778 113.778v0 483.556zM213.333 746.667v42.667h-42.667v-42.667h42.667zM810.667 746.667h42.667v42.667h-42.667v-42.667zM213.333 704h597.333v85.333h-597.333v-85.333zM768 746.667v-483.556h85.333v483.556h-85.333zM696.889 192h-369.778v-85.333h369.778v85.333zM256 263.111v483.556h-85.333v-483.556h85.333zM327.111 192c-39.253 0-71.111 31.858-71.111 71.111h-85.333c0-86.402 70.043-156.444 156.444-156.444v0 85.333zM768 263.111c0-39.253-31.858-71.111-71.111-71.111v-85.333c86.402 0 156.444 70.043 156.444 156.444v0h-85.333z" />
<glyph unicode="&#xe981;" glyph-name="detail-view-filled" d="M455.111 789.333h-369.778v-682.667h369.778v682.667zM938.667 704h-369.778v85.333h369.778v-85.333zM938.667 504.889h-369.778v85.333h369.778v-85.333zM568.889 305.778h369.778v85.333h-369.778v-85.333zM938.667 106.667h-369.778v85.333h369.778v-85.333z" />
<glyph unicode="&#xe982;" glyph-name="caret-left-filled" d="M625.778 248.889v398.222l-256-199.111 256-199.111z" />
<glyph unicode="&#xe983;" glyph-name="month-filled" d="M113.778 846.222h796.444v-640c0-86.402-70.043-156.444-156.444-156.444v0h-483.556c-86.402 0-156.444 70.043-156.444 156.444v0 640zM426.667 277.333h170.667v-142.222h85.333v142.222h142.222v85.333h-142.222v170.667h142.222v85.333h-142.222v142.222h-85.333v-142.222h-170.667v142.222h-85.333v-142.222h-142.222v-85.333h142.222v-170.667h-142.222v-85.333h142.222v-142.222h85.333v142.222zM426.667 533.333h170.667v-170.667h-170.667v170.667z" />
<glyph unicode="&#xe984;" glyph-name="square-filled" d="M113.778 846.222h796.444v-796.444h-796.444z" />
<glyph unicode="&#xe985;" glyph-name="triangle-filled" d="M512 846.222l455.111-796.444h-910.222l455.111 796.444z" />
<glyph unicode="&#xe986;" glyph-name="circle-filled" d="M938.667 448c0-235.641-191.025-426.667-426.667-426.667s-426.667 191.025-426.667 426.667c0 235.641 191.025 426.667 426.667 426.667s426.667-191.025 426.667-426.667z" />
<glyph unicode="&#xe987;" glyph-name="hexagon-filled" d="M284.444 846.222h455.111l227.556-398.222-227.556-398.222h-455.111l-227.556 398.222 227.556 398.222z" />
<glyph unicode="&#xe988;" glyph-name="microphone-filled" d="M512 874.667v0c94.257 0 170.667-76.41 170.667-170.667v-199.111c0-94.257-76.41-170.667-170.667-170.667s-170.667 76.41-170.667 170.667v199.111c0 94.257 76.41 170.667 170.667 170.667zM256 504.889v0c0-141.385 114.615-256 256-256s256 114.615 256 256v85.333h85.333v-85.332c0-0.004 0-0.007 0-0.011 0-173.484-129.402-316.744-298.667-338.706v-59.506h128v-85.333h-341.333v85.333h128v59.506c-168.391 20.992-298.667 164.636-298.667 338.716v85.333h85.333v-85.333z" />
<glyph unicode="&#xe989;" glyph-name="blood-negative" d="M773.461 129.65c-66.667-65.488-158.142-105.914-259.058-105.914-204.223 0-369.778 165.555-369.778 369.778 0 100.916 40.426 192.391 105.967 259.113l-0.053-0.054 261.461 261.461 261.461-261.461c66.91-66.915 108.294-159.355 108.294-261.461s-41.384-194.546-108.295-261.462v0zM310.841 189.952c51.481-51.481 122.602-83.323 201.159-83.323 157.115 0 284.482 127.367 284.482 284.482 0 78.558-31.842 149.678-83.323 201.159l-201.159 201.045-201.159-201.045c-51.49-51.477-83.338-122.599-83.338-201.159s31.848-149.682 83.338-201.158l0.001-0.001zM696.889 433.778h-369.778v-85.333h369.778v85.333z" />
<glyph unicode="&#xe98a;" glyph-name="shovel" d="M838.258 713.956l-281.6-281.6 140.8-140.8-170.963-170.907c-43.59-42.614-103.23-68.88-169.005-68.88-133.53 0-241.778 108.248-241.778 241.778 0 65.775 26.265 125.415 68.836 168.96l171.008 170.951 140.8-140.857 281.6 281.6-70.372 70.428 60.302 60.359 201.045-201.159-60.302-60.359-70.372 70.428zM355.499 351.858l80.498 80.441-80.498 80.441-110.592-110.592c-28.322-28.315-45.841-67.436-45.841-110.649 0-86.411 70.050-156.461 156.461-156.461 43.198 0 82.308 17.507 110.621 45.812l110.592 110.649-80.441 80.441-80.441-80.384-60.302 60.302z" />
<glyph unicode="&#xe98b;" glyph-name="dessert" d="M411.079 728.178c39.883-8.639 74.269-28.249 100.884-55.486l0.037-0.038c26.666 27.253 61.046 46.857 99.605 55.282l1.316 0.241c-19.386 36.674-57.284 61.239-100.921 61.239s-81.535-24.565-100.622-60.62l-0.299-0.618zM319.317 726.016c23.158 86.218 100.615 148.648 192.654 148.648s169.496-62.43 192.335-147.255l0.319-1.394c77.022-20.656 134.876-84.371 146.639-163.145l0.134-1.093h16.213v-42.667c0-0.005 0-0.010 0-0.016 0-181.342-135.736-330.98-311.15-352.86l-1.739-0.177v-87.836h184.832v-85.333h-455.111v85.333h184.889v87.836c-177.153 22.056-312.889 171.695-312.889 353.037 0 0.005 0 0.011 0 0.016v-0.001 42.667h16.213c11.88 79.84 69.685 143.543 145.264 163.918l1.395 0.32zM369.778 647.111c-0.009 0-0.019 0-0.029 0-52.73 0-97.081-35.87-109.986-84.539l-0.179-0.794h197.518c1.707 11.605 4.38 22.926 7.964 33.792-20.598 31.222-55.519 51.541-95.186 51.541-0.036 0-0.073 0-0.109 0h0.006zM645.689 646.77c-49.146-3.809-89.286-38.31-101.481-84.197l-0.18-0.795h220.388c-13.090 49.454-57.437 85.315-110.16 85.315-3.015 0-6.003-0.117-8.959-0.348l0.392 0.025zM245.191 476.444c21.389-129.723 132.713-227.46 266.866-227.46s245.477 97.737 266.652 225.89l0.214 1.571h-533.732z" />
<glyph unicode="&#xe98c;" glyph-name="desk-staff" d="M512 704c-31.419 0-56.889-25.47-56.889-56.889s25.47-56.889 56.889-56.889v0c31.419 0 56.889 25.47 56.889 56.889s-25.47 56.889-56.889 56.889v0zM369.778 647.111c0 78.547 63.675 142.222 142.222 142.222s142.222-63.675 142.222-142.222v0c0-78.547-63.675-142.222-142.222-142.222s-142.222 63.675-142.222 142.222v0zM384 362.667h256c39.253 0 71.111-31.858 71.111-71.111v-42.667h-398.222v42.667c0 39.253 31.858 71.111 71.111 71.111zM796.444 248.889v42.667c0 86.402-70.043 156.444-156.444 156.444v0h-256c-86.402 0-156.444-70.043-156.444-156.444v0-42.667h-170.667v-199.111h85.333v113.778h739.556v-113.778h85.333v199.111h-170.667z" />
<glyph unicode="&#xe98d;" glyph-name="syringe" d="M796.444 672.142l-81.92-81.92 168.96-168.96-60.302-60.359-55.182 55.182-287.573-287.573c-28.311-28.309-67.421-45.819-110.62-45.819s-82.31 17.51-110.62 45.819l-3.186 3.186-140.516-140.516-60.359 60.302 140.516 140.516-3.129 3.129c-28.309 28.311-45.819 67.421-45.819 110.62s17.51 82.31 45.819 110.62l287.63 287.63-55.182 55.182 60.302 60.302 168.96-168.96 81.92 81.92-112.071 112.071 60.302 60.302 284.444-284.444-60.302-60.302-112.071 112.071zM540.444 643.698l-287.573-287.63c-12.873-12.869-20.835-30.65-20.835-50.29s7.962-37.42 20.834-50.29l66.617-66.617c12.869-12.873 30.65-20.835 50.29-20.835s37.42 7.962 50.29 20.834l287.574 287.574-167.196 167.253z" />
<glyph unicode="&#xe98e;" glyph-name="monitoring" d="M128 789.333h-42.667v-526.222c0-86.402 70.043-156.444 156.444-156.444v0h540.444c86.402 0 156.444 70.043 156.444 156.444v0 526.222h-810.667zM170.667 476.444v227.556h682.667v-227.556h-221.924l-53.077-79.531-117.248 293.319-116.622-213.788h-173.796zM170.667 391.111h224.427l54.044 99.1 110.308-275.57 117.589 176.469h176.299v-128c0-39.253-31.858-71.111-71.111-71.111h-540.444c-39.253 0-71.111 31.858-71.111 71.111v128z" />
<glyph unicode="&#xe98f;" glyph-name="search-box" d="M910.222 846.222h-796.444v-640c0-86.402 70.043-156.444 156.444-156.444v0h351.915c-39.043 20.502-71.168 49.386-94.881 84.427l-0.578 0.907h-256.455c-39.253 0-71.111 31.858-71.111 71.111v554.667h170.667v-156.444c0-54.955 44.601-99.556 99.556-99.556h85.333c54.983 0 99.556 44.573 99.556 99.556v0 156.444h170.667v-242.119c32.985-11.873 61.363-29.080 85.568-50.839l-0.235 0.207v378.084zM455.111 760.889h113.778v-156.444c0-7.855-6.368-14.222-14.222-14.222v0h-85.333c-7.855 0-14.222 6.368-14.222 14.222v0 156.444zM739.556 362.667c-47.128 0-85.333-38.205-85.333-85.333s38.205-85.333 85.333-85.333v0c47.128 0 85.333 38.205 85.333 85.333s-38.205 85.333-85.333 85.333v0zM568.889 277.333c0.051 94.218 76.442 170.577 170.667 170.577 94.257 0 170.667-76.41 170.667-170.667 0-31.938-8.773-61.827-24.040-87.389l0.431 0.78 110.649-110.706-60.302-60.302-110.706 110.649c-24.803-14.869-54.724-23.662-86.699-23.662-94.257 0-170.667 76.41-170.667 170.667 0 0.019 0 0.037 0 0.056v-0.003z" />
<glyph unicode="&#xe990;" glyph-name="leaf" d="M469.333 109.34v-116.452h85.333v116.452l1.713 0.182c167.565 21.736 296.993 164.993 296.993 338.48 0 94.266-38.213 179.607-99.993 241.378l-241.38 241.323-241.38-241.323c-61.78-61.771-99.993-147.112-99.993-241.378 0-173.486 129.428-316.743 298.706-338.661zM469.333 195.584c-121.875 21.139-213.381 126.097-213.381 252.427 0 70.716 28.672 134.734 75.026 181.065l181.022 180.908 181.020-181.020c46.355-46.332 75.027-110.35 75.027-181.066 0-126.33-91.506-231.288-211.853-252.208l-1.528-0.22v423.196h-85.333v-423.083z" />
<glyph unicode="&#xe991;" glyph-name="gem" d="M185.628 817.778l-136.363-306.745 462.734-510.578 462.734 510.578-136.363 306.745h-652.743zM190.805 619.349l50.233 113.095h125.724l-176.014-113.095zM657.237 732.444h125.668l50.347-113.095-175.957 113.095zM764.928 561.778h-505.856l252.928 162.588 252.985-162.588zM512 127.545l-316.188 348.9h632.377l-316.188-348.9z" />
<glyph unicode="&#xe992;" glyph-name="work-time" d="M711.111 647.111h142.222v-67.641l2.366-0.532c30.022-7.944 58.412-19.902 82.967-34.397v187.904h-227.556v42.667c0 70.692-57.308 128-128 128h-142.222c-70.692 0-128-57.308-128-128v-42.667h-227.556v-469.333c0-86.402 70.043-156.444 156.444-156.444h215.836l0.872-2.072c-12.523 26.741-21.645 55.393-27.097 87.405h-189.611c-39.253 0-71.111 31.858-71.111 71.111v184.889h320.057l0.686 0.992c23.721 32.673 53.062 61.001 87.833 84.341h-408.576v113.778h540.444zM398.222 732.444v42.667c0 23.564 19.103 42.667 42.667 42.667v0h142.222c23.564 0 42.667-19.103 42.667-42.667v0-42.667h-227.556zM768 419.556c-94.257 0-170.667-76.41-170.667-170.667s76.41-170.667 170.667-170.667v0c94.257 0 170.667 76.41 170.667 170.667s-76.41 170.667-170.667 170.667v0zM512 248.889c0 141.385 114.615 256 256 256s256-114.615 256-256v0c0-141.385-114.615-256-256-256s-256 114.615-256 256v0zM711.111 362.667h85.333v-85.333h85.333v-85.333h-170.667v170.667z" />
<glyph unicode="&#xe993;" glyph-name="medical-sign" d="M611.556 803.556h42.667v42.667h-42.667v-42.667zM412.444 803.556v42.667h-42.667v-42.667h42.667zM611.556 620.43h-42.667v-73.899l64 36.978-21.333 36.978zM770.162 712.021l36.978 21.333-21.39 36.978-36.978-21.39 21.39-36.978zM869.717 539.534l21.333-36.921 36.978 21.333-21.39 36.978-36.978-21.39zM711.111 448l-21.333 36.978-64-36.978 64-36.978 21.333 36.978zM869.717 356.409l36.978-21.333 21.276 36.978-36.978 21.333-21.276-36.978zM770.162 184.036l-21.333-36.978 36.978-21.333 21.276 36.978-36.978 21.276zM611.556 275.57l21.333 36.978-64 36.864v-73.956h42.667zM611.556 92.444v-42.667h42.667v42.667h-42.667zM412.444 92.444h-42.667v-42.667h42.667v42.667zM412.444 275.57h42.667v73.899l-64-36.978 21.333-36.921zM253.838 183.979l-36.978-21.276 21.39-36.978 36.978 21.333-21.39 36.978zM154.283 356.466l-21.333 36.978-36.978-21.39 21.39-36.978 36.978 21.39zM312.889 448l21.333-36.978 64 36.978-64 36.978-21.333-36.978zM154.34 539.591l-36.978 21.276-21.333-36.978 36.978-21.276 21.333 36.978zM253.895 711.964l21.333 36.978-36.978 21.333-21.333-36.978 36.978-21.276zM412.444 620.487l-21.333-36.978 64-36.921v73.956h-42.667zM611.556 846.222h-199.111v-85.333h199.111v85.333zM654.222 620.43v183.125h-85.333v-183.125h85.333zM632.889 583.452l158.606 91.591-42.667 73.956-158.606-91.591 42.667-73.956zM733.184 690.688l99.556-172.487 73.956 42.667-99.556 172.487-73.956-42.667zM848.384 576.512l-158.606-91.591 42.667-73.842 158.606 91.534-42.667 73.899zM891.051 393.387l-158.606 91.591-42.667-73.956 158.606-91.534 42.667 73.899zM807.083 162.645l99.556 172.43-73.899 42.667-99.556-172.373 73.956-42.667zM590.222 238.592l158.606-91.591 42.667 73.956-158.606 91.591-42.667-73.956zM654.222 92.444v183.125h-85.333v-183.125h85.333zM412.444 49.778h199.111v85.333h-199.111v-85.333zM369.778 275.57v-183.125h85.333v183.125h-85.333zM391.111 312.548l-158.606-91.591 42.667-73.899 158.606 91.591-42.667 73.842zM290.816 205.369l-99.556 172.373-73.956-42.667 99.556-172.373 73.956 42.667zM175.616 319.431l158.606 91.591-42.667 73.899-158.606-91.591 42.667-73.899zM132.949 502.556l158.606-91.591 42.667 73.956-158.549 91.534-42.667-73.956zM216.917 733.298l-99.556-172.487 73.899-42.667 99.556 172.487-73.899 42.667zM433.778 657.351l-158.549 91.591-42.667-73.899 158.549-91.591 42.667 73.956zM369.778 803.556v-183.125h85.333v183.125h-85.333z" />
<glyph unicode="&#xe994;" glyph-name="push-cart" d="M256.341 783.872l0.295-0.096c16.221-6.027 27.784-21.637 27.808-39.954v-538.567l-0.536-0.291c-33.689-19.754-56.31-56.345-56.31-98.219 0-62.838 50.94-113.778 113.778-113.778 41.86 0 78.44 22.606 98.489 56.81h413.468v85.333h-56.889v312.889h-113.778v227.556h-312.889v68.266c0 0.010 0 0.020 0 0.029 0 54.995-34.682 101.889-84.252 120.292l-100.295 36.409-29.127-80.213 100.238-36.466zM597.333 448h-227.556v142.222h85.333v-56.889h85.333v56.889h56.889v-142.222zM369.778 216.86v145.806h142.222v-85.333h85.333v85.333h113.778v-227.556h-259.584c-10.65 40.128-41.622 71.099-80.953 81.569l-0.796 0.18zM312.889 106.667c0 15.709 12.735 28.444 28.444 28.444s28.444-12.735 28.444-28.444v0c0-15.709-12.735-28.444-28.444-28.444s-28.444 12.735-28.444 28.444v0z" />
<glyph unicode="&#xe995;" glyph-name="vacation" d="M537.771 698.311l-2.135 4.766c15.229-30.753 28.577-62.602 41.616-101.136l1.479-4.38 79.303 21.276c-10.069 21.22-25.088 47.104-46.194 70.94-22.642 25.486-51.655 47.957-88.633 60.473-5.86 1.991-12.060 3.755-18.489 5.234l-1.031 1.595c12.202-17.832 23.197-36.556 34.083-58.768zM756.053 600.917l-0.057 0.057v0.114l-0.057 0.341-0.284 0.91-0.853 2.958-0.773 2.757c-4.849 14.958-10.578 29.519-16.123 41.218l-1.005 2.442c-15.924 34.687-36.76 66.651-61.232 94.554-30.151 34.020-71.111 66.446-125.156 84.764-54.386 18.375-119.182 21.504-195.072 1.138-75.89-20.309-130.446-55.41-168.391-98.532-37.66-42.894-56.889-91.42-65.991-135.908l0.424 2.514c-5.101-25.239-7.778-51.357-7.778-78.1 0-13.952 0.729-27.734 2.006-39.614l0.127-1.608c1.221-12.492 3.028-24.813 4.993-34.46l0.171-1.136c0.838-4.608 1.846-9.157 2.73-12.346l0.284-0.91 0.228-0.228v-0.171l41.244 10.98-41.244-11.036 11.036-41.244 274.66 73.671 88.178-328.932h-355.897v-85.333h739.556v85.39h-295.367l-94.037 351.004 274.716 73.614-11.036 41.188-41.188-11.036 41.188 11.093zM461.255 660.48c14.791-29.81 26.624-60.871 34.873-85.049l-134.030-35.897c-5.47 25.763-9.852 56.934-12.202 88.671l-0.143 2.408c-2.219 34.418-0.796 65.764 5.803 88.747 6.485 22.642 15.019 28.558 22.016 30.436s17.408 1.081 34.361-15.36c17.124-16.555 34.076-43.065 49.323-73.956zM278.642 521.956l0.91-4.551-79.36-21.276c-0.712 7.808-1.118 16.888-1.118 26.063 0 20.688 2.064 40.894 5.996 60.423l-0.328-1.949c6.827 33.394 20.708 67.356 46.535 96.711 4.096 4.665 8.533 9.273 13.369 13.767-0.761-9.875-1.195-21.384-1.195-32.996s0.434-23.121 1.286-34.514l-0.091 1.519c2.446-38.684 8.533-75.947 13.995-103.196z" />
<glyph unicode="&#xe996;" glyph-name="gas-tank" d="M512 746.667v-42.667h-88.747l-25.031-25.031-85.333 85.333-202.524-202.524 85.333-85.333-25.031-25.031v-245.191c0-86.402 70.043-156.444 156.444-156.444h369.778c86.402 0 156.444 70.043 156.444 156.444v540.444c0 54.955-44.544 99.556-99.556 99.556h-142.222c-54.955 0-99.556-44.601-99.556-99.556zM337.92 618.667l-81.92-81.92-25.031 25.031 81.92 81.92 25.031-25.031zM768 746.667v-42.667h-170.667v42.667c0 7.855 6.368 14.222 14.222 14.222v0h142.222c7.855 0 14.222-6.368 14.222-14.222v0zM554.667 618.667h213.333v-412.444c0-39.253-31.858-71.111-71.111-71.111h-369.778c-39.253 0-71.111 31.858-71.111 71.111v209.92l202.524 202.524h96.142z" />
<glyph unicode="&#xe997;" glyph-name="genealogy" d="M256 874.667h85.333v-56.889h341.333v56.889h85.333v-210.489c-0.004-81.082-45.242-151.597-112.981-188.245l-52.338-27.932 53.521-28.49c66.585-36.101 111.799-106.604 111.799-187.668 0-0.007 0-0.013 0-0.019v-210.489h-85.333v56.889h-341.333v-56.889h-85.333v210.489c0.004 81.082 45.242 151.597 112.981 188.245l52.338 27.932-53.521 28.49c-66.585 36.101-111.799 106.604-111.799 187.668 0 0.007 0 0.013 0 0.019v210.489zM682.667 732.444h-341.333v-56.889h341.333v56.889zM659.115 590.222h-294.229c11.264-15.986 26.283-29.412 44.203-38.969l102.912-54.898 102.912 54.898c17.92 9.557 32.939 22.983 44.203 38.969zM512 399.644l-102.912-54.898c-17.847-9.645-32.647-22.773-43.939-38.58l-0.264-0.389h294.229c-11.554 16.197-26.355 29.325-43.528 38.634l-0.675 0.335-102.912 54.898zM341.333 220.444v-56.889h341.333v56.889h-341.333z" />
<glyph unicode="&#xe998;" glyph-name="awol" d="M807.196 490.667h-465.92v-85.333h465.92l-69.348-69.404 60.302-60.302 172.373 172.373-172.43 172.373-60.302-60.302 69.404-69.404zM682.667 49.778h-568.889v640c0 86.402 70.043 156.444 156.444 156.444h256c86.402 0 156.444-70.043 156.444-156.444v-99.556h-85.39v99.556c0 39.253-31.858 71.111-71.111 71.111h-256c-39.253 0-71.111-31.858-71.111-71.111v-554.667h398.222v170.667h85.333v-256z" />
<glyph unicode="&#xe999;" glyph-name="patient-record" d="M341.333 732.444h-85.333v-526.222c0-39.253 31.858-71.111 71.111-71.111h369.778c39.253 0 71.111 31.858 71.111 71.111v526.222h-85.333v-113.778h-341.333v113.778zM681.643 817.778h171.691v-611.556c0-86.402-70.043-156.444-156.444-156.444v0h-369.778c-86.402 0-156.444 70.043-156.444 156.444v0 611.556h171.691c7.201 48.524 48.567 85.332 98.531 85.333h142.222c49.964-0.002 91.331-36.81 98.465-84.789l0.067-0.545zM426.667 803.556v-99.556h170.667v99.556c0 7.855-6.368 14.222-14.222 14.222h-142.222c-7.855 0-14.222-6.368-14.222-14.222zM469.333 433.778h-99.556v-85.333h99.556v-99.556h85.333v99.556h99.556v85.333h-99.556v99.556h-85.333v-99.556z" />
<glyph unicode="&#xe99a;" glyph-name="mountain" d="M398.222 775.111l38.798 17.749-38.798 84.651-38.798-84.651 38.798-17.749zM603.477 327.225l-38.741-17.749 34.588-75.548 41.244 72.135-37.092 21.163zM85.333 92.444l-38.798 17.806-27.705-60.473h66.503v42.667zM924.444 92.444v-42.667h73.5l-36.409 63.829-37.092-21.163zM696.889 490.667l37.035 21.163-37.035 64.853-37.035-64.853 37.035-21.163zM359.424 757.362l205.312-447.886 77.54 35.556-205.255 447.829-77.596-35.499zM124.132 74.695l312.889 682.667-77.596 35.499-312.889-682.667 77.596-35.499zM469.333 135.111h-384v-85.333h384v85.333zM711.111 135.111h-241.778v-85.333h241.778v85.333zM924.444 135.111h-213.333v-85.333h213.333v85.333zM659.854 469.504l227.556-398.222 74.069 42.325-227.556 398.222-74.069-42.325zM640.512 306.062l93.412 163.442-74.069 42.325-93.412-163.442 74.126-42.325z" />
<glyph unicode="&#xe99b;" glyph-name="plan-document" d="M199.111 732.444v-378.937l-0.876-0.355c17.521 7.939 36.976 12.359 57.463 12.359 0.106 0 0.212 0 0.302 0h-0.016c0.106 0 0.212 0 0.319 0 20.487 0 39.942-4.42 56.587-12.004v378.937c0 31.419-25.47 56.889-56.889 56.889s-56.889-25.47-56.889-56.889zM113.778 689.778v42.667c0 78.547 63.675 142.222 142.222 142.222s142.222-63.675 142.222-142.222v0h512v-682.667h-640c-86.402 0-156.444 70.043-156.444 156.444v0 483.556zM199.111 220.444v-14.222c0-39.253 31.858-71.111 71.111-71.111h554.667v512h-426.667v-426.667h-85.333c0 34.133-26.567 59.733-56.889 59.733s-56.889-25.6-56.889-59.733zM455.111 476.444v85.333h312.889v-85.333h-312.889zM654.222 305.778v85.333h-199.111v-85.333h199.111z" />
<glyph unicode="&#xe99c;" glyph-name="pill" d="M844.117 780.117v0c40.837-40.839 66.094-97.257 66.094-159.573s-25.258-118.734-66.094-159.573l-345.058-345.059c-40.735-40.097-96.632-64.837-158.306-64.837-124.639 0-225.678 101.040-225.678 225.678 0 61.675 24.74 117.571 64.808 158.277l345.088 345.088c40.839 40.837 97.257 66.094 159.573 66.094s118.734-25.258 159.573-66.094zM585.33 719.758l-142.45-142.336 198.542-198.485 142.393 142.336c25.406 25.406 41.119 60.503 41.119 99.271 0 77.536-62.855 140.391-140.391 140.391-38.768 0-73.865-15.714-99.271-41.119zM382.635 517.006l-142.336-142.393c-26.728-25.596-43.34-61.57-43.34-101.424 0-77.51 62.835-140.345 140.345-140.345 39.854 0 75.828 16.612 101.375 43.289l0.048 0.051 142.393 142.336-198.485 198.542z" />
<glyph unicode="&#xe99d;" glyph-name="train" d="M174.194 846.222l-3.413-38.969-46.080-530.546 0.044 0.604c-0.423-4.687-0.639-9.434-0.639-14.231 0-75.947 54.117-139.254 126.888-153.627l-46.649-116.565h91.932l45.511 113.778h340.423l45.511-113.778h91.932l-46.649 116.508 0.995 0.165c71.777 14.234 125.888 77.552 125.888 153.509 0 4.781-0.214 9.511-0.59 13.58l-46.080 530.603-3.413 38.969h-675.612zM252.473 760.889h519.054l17.351-199.111h-553.756l17.351 199.111zM209.692 269.255l18.034 207.189h568.548l18.034-207.189c0.169-1.841 0.266-3.981 0.266-6.144 0-39.274-31.838-71.111-71.111-71.111-0.014 0-0.027 0-0.041 0h-462.903c-39.266 0.011-71.093 31.844-71.093 71.111 0 2.163 0.097 4.303 0.286 6.417l-0.020-0.273zM426.667 334.222v0c0 31.419-25.47 56.889-56.889 56.889s-56.889-25.47-56.889-56.889v0c0-31.419 25.47-56.889 56.889-56.889s56.889 25.47 56.889 56.889zM654.222 277.333v0c-31.419 0-56.889 25.47-56.889 56.889s25.47 56.889 56.889 56.889v0c31.419 0 56.889-25.47 56.889-56.889s-25.47-56.889-56.889-56.889z" />
<glyph unicode="&#xe99e;" glyph-name="bed" d="M213.333 789.333h-42.667v-233.472c-66.197-19.228-113.764-79.321-113.778-150.527v-298.668h85.333v113.778h739.556v-113.778h85.333v298.667c0 0.004 0 0.009 0 0.014 0 71.208-47.574 131.304-112.672 150.238l-1.105 0.275v233.472h-640zM881.778 405.333v-99.556h-739.556v99.556c0 39.253 31.858 71.111 71.111 71.111h597.333c39.253 0 71.111-31.858 71.111-71.111zM768 561.778h-113.778c0 78.547-63.675 142.222-142.222 142.222s-142.222-63.675-142.222-142.222h-113.778v142.222h512v-142.222zM568.889 561.778h-113.778c0 31.419 25.47 56.889 56.889 56.889s56.889-25.47 56.889-56.889z" />
<glyph unicode="&#xe99f;" glyph-name="bandaid" d="M524.971 780.117c40.706 40.068 96.602 64.808 158.277 64.808 124.639 0 225.678-101.040 225.678-225.678 0-61.675-24.74-117.571-64.837-158.306l0.029 0.030-345.088-345.088c-40.706-40.068-96.602-64.808-158.277-64.808-124.639 0-225.678 101.040-225.678 225.678 0 61.675 24.74 117.571 64.837 158.306l-0.029-0.030 345.088 345.088zM783.815 719.815c-25.401 25.417-60.5 41.138-99.271 41.138s-73.871-15.722-99.27-41.138l-0.001-0.001-28.558-28.615 198.485-198.542 28.558 28.672c25.383 25.395 41.081 60.471 41.081 99.214s-15.699 73.819-41.082 99.215l0.001-0.001zM329.102 463.588l198.428-198.542 167.253 167.253-198.428 198.542-167.253-167.253zM268.8 403.285l-28.615-28.672c-26.728-25.596-43.34-61.57-43.34-101.424 0-77.51 62.835-140.345 140.345-140.345 39.854 0 75.828 16.612 101.375 43.289l0.048 0.051 28.615 28.558-198.485 198.542z" />
<glyph unicode="&#xe9a0;" glyph-name="hammer" d="M826.596 876.373l143.929-143.929-99.556-99.556 113.778-113.778-230.969-230.969-113.778 113.778-353.849-353.849c-22.28-22.287-53.064-36.073-87.068-36.073-67.994 0-123.113 55.12-123.113 123.113 0 33.99 13.774 64.762 36.045 87.040l353.849 353.849-225.28 225.28 384.967 77.028 71.339-71.339 99.556 99.556 30.151-30.151zM526.222 515.698l-353.849-353.849c-6.843-6.843-11.075-16.296-11.075-26.738 0-20.884 16.929-37.813 37.813-37.813 10.442 0 19.895 4.232 26.738 11.075l353.849 353.849-53.476 53.476zM700.302 462.222l53.476-53.476 110.364 110.364-266.581 266.581-183.922-36.807 286.72-286.663zM810.667 693.191l39.253 39.253-53.476 53.476-39.253-39.253 53.476-53.476z" />
<glyph unicode="&#xe9a1;" glyph-name="remove-box" d="M910.222 846.222h-796.444v-640c0-86.402 70.043-156.444 156.444-156.444v0h202.98l85.333 85.333h-288.313c-39.253 0-71.111 31.858-71.111 71.111v554.667h170.667v-156.444c0-54.955 44.601-99.556 99.556-99.556h85.333c54.983 0 99.556 44.573 99.556 99.556v0 156.444h170.667v-359.424l85.333 85.333v359.424zM455.111 760.889h113.778v-156.444c0-7.855-6.368-14.222-14.222-14.222v0h-85.333c-7.855 0-14.222 6.368-14.222 14.222v0 156.444zM810.61 266.524l118.955 118.898 60.302-60.359-118.898-118.898 118.898-119.012-60.302-60.302-119.012 118.955-118.898-118.955-60.302 60.359 118.898 118.955-118.898 118.955 60.302 60.302 118.955-118.898z" />
<glyph unicode="&#xe9a2;" glyph-name="hospital-sign" d="M56.889 49.778h85.333v199.111h85.959l0.048-0.625c7.478-79.438 74.355-141.598 155.749-141.598 0.008 0 0.016 0 0.022 0h369.778c86.402 0 156.444 70.043 156.444 156.444v526.222h-682.667v-142.222h-85.333v199.111h-85.333v-796.444zM142.222 334.222v227.556h85.333v-227.556h-85.333zM526.222 405.333h-99.556v85.333h99.556v99.556h85.333v-99.556h99.556v-85.333h-99.556v-99.556h-85.333v99.556zM312.889 263.111v440.889h512v-440.889c0-39.253-31.858-71.111-71.111-71.111h-369.778c-39.253 0-71.111 31.858-71.111 71.111z" />
<glyph unicode="&#xe9a3;" glyph-name="request-time-off" d="M113.778 846.222h796.444v-286.948c-41.597 19.542-90.339 30.948-141.746 30.948-0.167 0-0.335 0-0.502 0h0.026c-0.166 0-0.362 0-0.558 0-70.13 0-135.296-21.249-189.413-57.659l1.214 0.77h-380.132v-327.111c0-39.253 31.858-71.111 71.111-71.111h175.844c10.866-30.72 25.998-59.392 44.658-85.333h-220.501c-86.402 0-156.444 70.043-156.444 156.444v0 640zM199.111 760.889v-142.222h625.778v142.222h-85.333v-85.333h-85.333v85.333h-284.444v-85.333h-85.333v85.333h-85.333zM768 419.556c-94.257 0-170.667-76.41-170.667-170.667s76.41-170.667 170.667-170.667v0c94.257 0 170.667 76.41 170.667 170.667s-76.41 170.667-170.667 170.667v0zM512 248.889c0 141.385 114.615 256 256 256s256-114.615 256-256v0c0-141.385-114.615-256-256-256s-256 114.615-256 256v0zM711.111 362.667h85.333v-85.333h85.333v-85.333h-170.667v170.667z" />
<glyph unicode="&#xe9a4;" glyph-name="medical-badge" d="M85.333 789.333h853.333v-526.222c0-86.402-70.043-156.444-156.444-156.444v0h-540.444c-86.402 0-156.444 70.043-156.444 156.444v0 526.222zM170.667 704v-440.889c0-39.253 31.858-71.111 71.111-71.111h540.444c39.253 0 71.111 31.858 71.111 71.111v440.889h-682.667zM768 476.444v85.333h-170.667v-85.333h170.667zM597.333 305.778v85.333h142.222v-85.333h-142.222zM341.333 476.444h-99.556v-85.333h99.556v-99.556h85.333v99.556h99.556v85.333h-99.556v99.556h-85.333v-99.556z" />
<glyph unicode="&#xe9a5;" glyph-name="test-tube" d="M711.111 760.889v-512c0-109.966-89.145-199.111-199.111-199.111s-199.111 89.145-199.111 199.111v512h-85.333v85.333h568.889v-85.333h-85.333zM625.778 760.889h-227.556v-142.222h113.778v-85.333h-113.778v-142.222h113.778v-85.333h-113.778v-56.889c0-62.838 50.94-113.778 113.778-113.778s113.778 50.94 113.778 113.778v0 512z" />
<glyph unicode="&#xe9a6;" glyph-name="blood" d="M250.539 129.65c66.667-65.488 158.142-105.914 259.058-105.914 204.223 0 369.778 165.555 369.778 369.778 0 100.916-40.426 192.391-105.967 259.113l0.053-0.054-261.461 261.461-261.461-261.461c-66.91-66.915-108.294-159.355-108.294-261.461s41.384-194.546 108.295-261.462v0zM713.159 189.952c-51.481-51.481-122.602-83.323-201.159-83.323-157.115 0-284.482 127.367-284.482 284.482 0 78.558 31.842 149.678 83.323 201.159l201.159 201.045 201.159-201.102c51.49-51.477 83.338-122.599 83.338-201.159s-31.848-149.682-83.338-201.158l-0.001-0.001z" />
<glyph unicode="&#xe9a7;" glyph-name="oil-rig" d="M113.778 903.111l224.085-39.481-7.396-42.098-12.345-69.973 560.242-98.816-14.791-84.025-261.689 46.137 167.936-479.744h140.402v-85.333h-796.444v85.333h140.402l178.347 509.611-129.195 22.756-17.294-98.020-7.396-41.984-70.087 12.345c-73.914 13.409-129.233 77.274-129.233 154.060 0 9.588 0.862 18.974 2.514 28.086l-0.144-0.954 24.69 140.060 7.396 42.041zM183.012 804.238l-17.294-97.963c-0.689-3.717-1.083-7.994-1.083-12.362 0-29.873 18.421-55.445 44.523-65.974l0.478-0.17 29.412 166.684-56.036 9.842zM679.424 135.111l-29.867 85.333h-275.115l-29.867-85.333h334.848zM619.691 305.778l-29.867 85.333h-155.648l-29.867-85.333h215.381zM559.957 476.444l-47.957 136.988-47.957-136.988h95.915z" />
<glyph unicode="&#xe9a8;" glyph-name="popsicle" d="M512 874.667c-141.385 0-256-114.615-256-256v0-426.667h213.333v-170.667h85.333v170.667h213.333v426.667c0 141.385-114.615 256-256 256v0zM341.333 618.667c0 94.257 76.41 170.667 170.667 170.667s170.667-76.41 170.667-170.667v0-341.333h-341.333v341.333z" />
<glyph unicode="&#xe9a9;" glyph-name="blood-positive" d="M250.539 129.65c66.667-65.488 158.142-105.914 259.058-105.914 204.223 0 369.778 165.555 369.778 369.778 0 100.916-40.426 192.391-105.967 259.113l0.053-0.054-261.461 261.461-261.461-261.461c-66.91-66.915-108.294-159.355-108.294-261.461s41.384-194.546 108.295-261.462v0zM713.159 189.952c-51.481-51.481-122.602-83.323-201.159-83.323-157.115 0-284.482 127.367-284.482 284.482 0 78.558 31.842 149.678 83.323 201.159l201.159 201.045 201.159-201.102c51.49-51.477 83.338-122.599 83.338-201.159s-31.848-149.682-83.338-201.158l-0.001-0.001zM469.333 206.222v142.222h-142.222v85.333h142.222v142.222h85.333v-142.222h142.222v-85.333h-142.222v-142.222h-85.333z" />
<glyph unicode="&#xe9aa;" glyph-name="truck" d="M99.556 789.333h583.111v-170.667h128c86.402 0 156.444-70.043 156.444-156.444v-298.667h-116.622l-0.162-0.924c-13.478-64.527-70.687-112.996-139.216-112.996s-125.739 48.469-139.378 113.92h-119.467l-0.162-0.924c-13.478-64.527-70.687-112.996-139.216-112.996s-125.739 48.469-139.378 113.92h-116.622v625.778h42.667zM841.5 248.889h40.277v213.333c0 39.253-31.858 71.111-71.111 71.111h-128v-201.956c8.559 1.83 18.392 2.879 28.47 2.879 57.982 0 107.861-34.698 130.004-84.462l0.36-0.905zM597.333 277.333v426.667h-455.111v-455.111h40.277c22.49 50.701 72.384 85.426 130.389 85.426s107.9-34.725 130.030-84.52l0.36-0.906h137.444c4.437 10.183 10.012 19.684 16.612 28.444zM312.889 248.889c-31.419 0-56.889-25.47-56.889-56.889s25.47-56.889 56.889-56.889v0c31.419 0 56.889 25.47 56.889 56.889s-25.47 56.889-56.889 56.889v0zM654.222 192v0c0-31.419 25.47-56.889 56.889-56.889s56.889 25.47 56.889 56.889v0c0 31.419-25.47 56.889-56.889 56.889s-56.889-25.47-56.889-56.889z" />
<glyph unicode="&#xe9ab;" glyph-name="fire" d="M773.461 652.572c66.923-66.918 108.316-159.367 108.316-261.483 0-204.223-165.555-369.778-369.778-369.778s-369.778 165.555-369.778 369.778c0 102.117 41.393 194.566 108.316 261.483l261.462 261.462 261.461-261.461zM707.925 184.946l5.177 5.006c51.49 51.477 83.338 122.599 83.338 201.159s-31.848 149.682-83.338 201.158l-201.103 201.046-201.159-201.045c-51.462-51.472-83.29-122.575-83.29-201.111 0-81.106 33.946-154.284 88.405-206.101l0.119-0.112c-2.036 10.684-3.2 22.974-3.2 35.536 0 54.985 22.314 104.759 58.38 140.76l140.746 140.803 140.8-140.743c36.074-36.005 58.391-85.782 58.391-140.772 0-12.579-1.168-24.885-3.401-36.816l0.192 1.232zM431.559 140.004c20.718-21.43 49.725-34.735 81.839-34.735 62.838 0 113.778 50.94 113.778 113.778 0 32.114-13.305 61.121-34.703 81.808l-0.032 0.031-80.441 80.441-80.441-80.441c-20.583-20.589-33.313-49.028-33.313-80.441s12.73-59.852 33.313-80.441v0z" />
<glyph unicode="&#xe9ac;" glyph-name="box" d="M867.556 846.222h-753.778v-640c0-86.402 70.043-156.444 156.444-156.444h483.556c86.402 0 156.444 70.043 156.444 156.444v640h-42.667zM568.889 760.889v-156.444c0-7.855-6.368-14.222-14.222-14.222h-85.333c-7.851 0-14.222 6.372-14.222 14.222v156.444h113.778zM369.778 760.889v-156.444c0-54.955 44.601-99.556 99.556-99.556h85.333c54.983 0 99.556 44.573 99.556 99.556v0 156.444h170.667v-554.667c0-39.253-31.858-71.111-71.111-71.111h-483.556c-39.253 0-71.111 31.858-71.111 71.111v554.667h170.667z" />
<glyph unicode="&#xe9ad;" glyph-name="female" d="M455.111 760.889c0 31.419 25.47 56.889 56.889 56.889s56.889-25.47 56.889-56.889v0c0-31.419-25.47-56.889-56.889-56.889s-56.889 25.47-56.889 56.889v0zM512 903.111c-78.547 0-142.222-63.675-142.222-142.222s63.675-142.222 142.222-142.222v0c78.547 0 142.222 63.675 142.222 142.222s-63.675 142.222-142.222 142.222v0zM451.868 590.222c-60.476-0.010-111.151-41.959-124.527-98.345l-0.174-0.869-82.148-355.897h124.757v-142.222h284.444v142.222h124.757l-12.060 52.281-70.087 303.616c-13.549 57.256-64.225 99.204-124.699 99.214h-120.264zM410.34 471.836c4.517 19.046 21.357 33.005 41.467 33.052h120.268c20.138-0.020 37.008-13.988 41.471-32.762l0.058-0.29 58.084-251.392h-102.798v-142.222h-113.778v142.222h-102.798l58.027 251.392z" />
<glyph unicode="&#xe9ae;" glyph-name="flask" d="M654.222 846.222h85.333v-85.333h-85.333v-241.664l200.363-264.078c63.943-84.309 3.812-205.369-102.002-205.369h-481.166c-105.813 0-165.945 121.060-102.002 205.369l200.363 264.078v241.664h-85.333v85.333h369.778zM455.111 760.889v-270.336l-8.647-11.435-209.067-275.57c-5.406-7.074-8.662-16.042-8.662-25.771 0-23.564 19.103-42.667 42.667-42.667 0.005 0 0.010 0 0.016 0h481.165c0.004 0 0.010 0 0.015 0 23.564 0 42.667 19.103 42.667 42.667 0 9.729-3.256 18.697-8.738 25.874l0.076-0.103-217.714 286.948v270.393h-113.778z" />
<glyph unicode="&#xe9af;" glyph-name="oil" d="M773.461 129.65c-66.667-65.488-158.142-105.914-259.058-105.914-204.223 0-369.778 165.555-369.778 369.778 0 100.916 40.426 192.391 105.967 259.113l-0.053-0.054 261.461 261.461 261.461-261.461c66.91-66.915 108.294-159.355 108.294-261.461s-41.384-194.546-108.295-261.462v0zM310.841 189.952c51.481-51.481 122.602-83.323 201.159-83.323 157.115 0 284.482 127.367 284.482 284.482 0 78.558-31.842 149.678-83.323 201.159l-201.159 201.045-201.159-201.045c-51.49-51.477-83.338-122.599-83.338-201.159s31.848-149.682 83.338-201.158l0.001-0.001zM512 277.333v-85.333c-109.966 0-199.111 89.145-199.111 199.111h85.333c0-62.838 50.94-113.778 113.778-113.778z" />
<glyph unicode="&#xe9b0;" glyph-name="hardhat" d="M369.778 669.867c-102.103-52.923-170.667-157.803-170.667-278.698 0-0.020 0-0.041 0-0.061v0.003-56.889h625.778v56.889c0 0.017 0 0.038 0 0.058 0 120.894-68.564 225.774-168.928 277.876l-1.739 0.821v-221.867h-284.444v221.867zM638.635 768.74c159.187-54.613 271.567-202.994 271.588-377.626v-56.892h56.889v-227.556h-910.222v227.556h56.889v56.889c0 175.73 113.778 324.722 271.588 377.628 24.072 46.361 71.718 77.486 126.635 77.486s102.563-31.125 126.261-76.697l0.373-0.789zM568.889 704c0 31.419-25.47 56.889-56.889 56.889s-56.889-25.47-56.889-56.889v0-170.667h113.778v170.667zM142.222 248.889v-56.889h739.556v56.889h-739.556z" />
<glyph unicode="&#xe9b1;" glyph-name="add-box" d="M867.556 846.222h42.667v-369.778h-85.333v284.444h-170.667v-156.444c0-54.983-44.573-99.556-99.556-99.556v0h-85.333c-54.983 0-99.556 44.573-99.556 99.556v0 156.444h-170.667v-554.667c0-39.253 31.858-71.111 71.111-71.111h298.667v-85.333h-298.667c-86.402 0-156.444 70.043-156.444 156.444v0 640h753.778zM455.111 760.889v-156.444c0-7.851 6.372-14.222 14.222-14.222h85.333c7.855 0 14.222 6.368 14.222 14.222v0 156.444h-113.778zM853.333 391.111v-142.222h142.222v-85.333h-142.222v-142.222h-85.333v142.222h-142.222v85.333h142.222v142.222h85.333z" />
<glyph unicode="&#xe9b2;" glyph-name="hour-glass" d="M170.667 760.889v85.333h682.667v-85.333h-85.333v-96.711c-0.004-81.082-45.242-151.597-112.981-188.245l-52.338-27.932 53.521-28.49c66.585-36.101 111.799-106.604 111.799-187.668 0-0.007 0-0.013 0-0.019v-96.711h85.333v-85.333h-682.667v85.333h85.333v96.711c0.004 81.082 45.242 151.597 112.981 188.245l52.338 27.932-53.521 28.49c-66.585 36.101-111.799 106.604-111.799 187.668 0 0.007 0 0.013 0 0.019v96.711h-85.333zM682.667 760.889h-341.333v-96.711c0-47.218 26.055-90.681 67.755-112.924l102.912-54.898 102.912 54.898c40.623 21.994 67.75 64.291 67.755 112.924v96.712zM512 399.644l-102.912-54.898c-40.623-21.994-67.75-64.291-67.755-112.924v-96.712h341.333v96.711c-0.004 48.634-27.132 90.931-67.079 112.589l-0.675 0.335-102.912 54.898z" />
<glyph unicode="&#xe9b3;" glyph-name="approve-box" d="M867.556 846.222h42.667v-387.868l-85.333-85.333v387.868h-170.667v-156.444c0-54.983-44.573-99.556-99.556-99.556v0h-85.333c-54.983 0-99.556 44.573-99.556 99.556v0 156.444h-170.667v-554.667c0-39.253 31.858-71.111 71.111-71.111h231.424l85.333-85.333h-316.757c-86.402 0-156.444 70.043-156.444 156.444v0 640h753.778zM568.889 760.889h-113.778v-156.444c0-7.851 6.372-14.222 14.222-14.222h85.333c7.855 0 14.222 6.368 14.222 14.222v0 156.444zM1011.484 318.293l-60.302 60.302-225.849-225.849-112.071 112.071-60.302-60.302 172.373-172.373 286.151 286.151z" />
<glyph unicode="&#xe9b4;" glyph-name="air" d="M455.111 732.444v0c31.419 0 56.889-25.47 56.889-56.889s-25.47-56.889-56.889-56.889h-341.333v-85.333h341.333c78.547 0 142.222 63.675 142.222 142.222s-63.675 142.222-142.222 142.222c-78.547 0-142.222-63.675-142.222-142.222h85.333c0 31.419 25.47 56.889 56.889 56.889zM796.444 590.222v0c31.419 0 56.889-25.47 56.889-56.889s-25.47-56.889-56.889-56.889h-682.667v-85.333h682.667c78.547 0 142.222 63.675 142.222 142.222s-63.675 142.222-142.222 142.222c-78.547 0-142.222-63.675-142.222-142.222h85.333c0 31.419 25.47 56.889 56.889 56.889zM540.444 192h-85.333c0-78.547 63.675-142.222 142.222-142.222s142.222 63.675 142.222 142.222c0 78.547-63.675 142.222-142.222 142.222h-483.556v-85.333h483.556c31.419 0 56.889-25.47 56.889-56.889s-25.47-56.889-56.889-56.889c-31.419 0-56.889 25.47-56.889 56.889z" />
<glyph unicode="&#xe9b5;" glyph-name="shirt" d="M186.88 642.731l-12.8-166.286h81.92v142.222h85.333v-483.556h341.333v483.556h85.333v-142.222h81.92l-12.8 166.286-0.029 0.448c-5.24 65.874-60.353 117.7-127.573 117.71h-55.296c0-78.547-63.675-142.222-142.222-142.222s-142.222 63.675-142.222 142.222h-55.297c-67.219-0.010-122.332-51.836-127.601-118.158zM568.889 760.889h-113.778c0-31.419 25.47-56.889 56.889-56.889s56.889 25.47 56.889 56.889v0zM654.222 846.222h55.296c0.001 0 0.003 0 0.004 0 112.054 0 203.931-86.392 212.656-196.203l0.048-0.746 16.327-212.196 3.527-45.966h-174.080v-341.333h-512v341.333h-174.080l3.527 45.966 16.327 212.196c8.772 110.557 100.649 196.949 212.703 196.949 0.002 0 0.003 0 0.005 0h339.74z" />
<glyph unicode="&#xe9b6;" glyph-name="medicine-bottle" d="M184.889 846.222h696.889v-256h-56.889v-384c0-86.402-70.043-156.444-156.444-156.444h-312.889c-86.402 0-156.444 70.043-156.444 156.444v384h-56.889v256h42.667zM739.556 590.222h-455.111v-384c0-39.253 31.858-71.111 71.111-71.111h312.889c39.253 0 71.111 31.858 71.111 71.111v384zM796.444 675.556v85.333h-568.889v-85.333h568.889zM469.333 504.889h85.333v-99.556h99.556v-85.333h-99.556v-99.556h-85.333v99.556h-99.556v85.333h99.556v99.556z" />
<glyph unicode="&#xe9b7;" glyph-name="warehouse-1" d="M531.684 869.831l-19.684 10.24-398.222-207.076v-623.218h796.444v623.218l-378.539 196.836zM199.111 135.111v486.116l312.889 162.702 312.889-162.702v-486.116h-85.333v426.667h-455.111v-426.667h-85.333zM654.222 277.333h-284.444v56.889h284.444v-56.889zM654.222 192v-56.889h-284.444v56.889h284.444zM654.222 476.444v-56.889h-284.444v56.889h284.444z" />
<glyph unicode="&#xe9b8;" glyph-name="supervisor-mode" d="M512 876.089l10.809-2.788 358.969-93.639v-260.551c0-179.996-90.738-297.87-179.484-369.209-46.255-37.211-99.532-68.373-157.094-91.014l-4.129-1.431c-2.432-1.058-7.449-2.873-12.516-4.582l-3.583-1.050-0.341-0.114h-0.114v-0.057c-0.057 0-0.114 0-12.516 40.789-12.402-40.789-12.459-40.789-12.516-40.789h-0.114l-0.341 0.171-0.967 0.284c-22.58 7.744-40.872 15.32-58.63 23.829l3.278-1.415c-32.882 15.474-76.8 39.822-121.003 75.378-88.747 71.339-179.484 189.212-179.484 369.209v260.551l369.778 96.484zM512 92.444l12.402-40.789-12.402-3.812-12.402 3.812 12.402 40.789zM512 137.671c52.341 20.615 97.538 47.121 137.842 79.473l-1.025-0.795c7.168 5.803 14.336 11.947 21.39 18.318-16.99 8.962-37.132 14.222-58.502 14.222-0.053 0-0.106 0-0.159 0h-199.103c-21.163 0-41.131-5.12-58.709-14.222 7.111-6.428 14.222-12.516 21.447-18.318 39.28-31.556 84.477-58.063 133.28-77.438l3.538-1.239zM611.556 334.222c43.065 0 83.115-12.743 116.622-34.702 39.708 55.637 68.267 127.488 68.267 219.591v194.56l-284.444 74.297-284.444-74.24v-194.56c0-92.16 28.558-164.011 68.267-219.591 32.762 21.715 72.989 34.646 116.236 34.646 0.136 0 0.271 0 0.407 0h199.090zM440.889 547.556c0 39.274 31.838 71.111 71.111 71.111s71.111-31.838 71.111-71.111v0c0-39.274-31.838-71.111-71.111-71.111s-71.111 31.838-71.111 71.111v0zM512 704c-86.402 0-156.444-70.043-156.444-156.444s70.043-156.444 156.444-156.444v0c86.402 0 156.444 70.043 156.444 156.444s-70.043 156.444-156.444 156.444v0z" />
<glyph unicode="&#xe9b9;" glyph-name="freight" d="M598.073 789.333h84.594v85.333h-341.333v-85.333h84.594l-213.333-170.667h-155.705v-512h910.222v512h-155.705l-213.333 170.667zM512 748.942l162.816-130.276h-325.632l162.816 130.276zM796.444 533.333h85.333v-56.889h-170.667v-85.333h170.667v-56.889h-170.667v-85.333h170.667v-56.889h-739.556v56.889h170.667v85.333h-170.667v56.889h170.667v85.333h-170.667v56.889h654.222z" />
<glyph unicode="&#xe9ba;" glyph-name="car-wheel" d="M469.333 786.716c-75.854-9.745-142.526-43.187-193.755-92.546l0.106 0.101 157.696-127.716c10.342 6.975 22.255 12.81 34.951 16.901l1.003 0.279v202.98zM170.667 448v0.016c0-0.105 0-0.209 0-0.314 0-12.076 0.62-24.008 1.707-34.291l197.803 45.625c1.138 14.45 4.38 28.274 9.5 41.188l-157.81 127.772c-32.427-52.281-51.2-113.948-51.2-179.996zM191.545 330.24c26.366-70.186 72.866-127.755 132.418-167.202l1.271-0.791 88.974 182.5c-9.508 9.027-17.727 19.274-24.443 30.522l-0.361 0.653-197.86-45.682zM512 106.667c38.514 0 75.605 6.372 110.194 18.204l-89.031 182.443 0.799 0.101c-7.15-1.1-14.475-1.67-21.933-1.67s-14.783 0.57-21.134 1.569l-88.974-182.5-2.393 0.725c35.12-12.228 72.856-18.873 112.143-18.873 0.116 0 0.232 0 0.33 0zM698.88 162.304c60.772 40.237 107.232 97.784 132.795 165.579l0.78 2.357-197.803 45.682c-7.081-11.878-15.299-22.106-24.74-31.058l-0.064-0.060 89.031-182.5zM853.333 448c0 65.991-18.773 127.716-51.257 179.996l-157.753-127.772-0.338 0.949c5.245-13.016 8.608-26.992 9.781-42.080l197.86-45.682c1.138 11.378 1.707 22.926 1.707 34.588zM748.316 694.329c-51.136 49.215-117.807 82.619-191.952 92.152l-1.698 0.178v-202.98c12.857-4.039 24.917-9.899 35.954-17.18l157.696 127.716zM85.333 448c0 235.641 191.025 426.667 426.667 426.667s426.667-191.025 426.667-426.667v0c0-235.641-191.025-426.667-426.667-426.667s-426.667 191.025-426.667 426.667v0zM512 504.889c-31.419 0-56.889-25.47-56.889-56.889s25.47-56.889 56.889-56.889v0c31.419 0 56.889 25.47 56.889 56.889s-25.47 56.889-56.889 56.889v0z" />
<glyph unicode="&#xe9bb;" glyph-name="ship" d="M440.889 874.667h184.889v-142.222h170.667v-281.145l129.081-51.655-109.796-231.822 0.713-0.167c20.641-5.657 38.658-17.662 51.966-33.967l0.025-0.031c3.14-3.85 7.921-6.309 13.277-6.309 5.304 0 10.045 2.412 13.209 6.226l23.154 28.444 66.219-53.817-23.298-28.625c-18.79-22.919-47.324-37.543-79.273-37.543s-60.484 14.624-79.417 37.724l-0.024 0.031c-3.098 3.803-7.819 6.233-13.107 6.233-5.236 0-9.916-2.382-13.038-6.15-40.903-50.46-117.76-50.404-158.663-0.114l-0.023 0.029c-3.099 3.771-7.799 6.177-13.061 6.177s-9.962-2.405-13.084-6.206c-40.96-50.29-117.76-50.347-158.72 0l-0.023 0.029c-3.099 3.771-7.799 6.177-13.061 6.177s-9.962-2.405-13.084-6.206c-40.96-50.347-117.76-50.347-158.72 0l-0.023 0.029c-3.099 3.771-7.799 6.177-13.061 6.177s-9.962-2.405-13.084-6.206c-40.96-50.347-117.76-50.347-158.72 0l-23.097 28.444 66.219 53.817 23.177-28.473c3.099-3.771 7.799-6.177 13.061-6.177s9.962 2.405 13.084 6.206c14.279 17.579 32.996 29.013 52.964 34.304l-109.739 231.765 129.081 51.655v281.145h170.667v142.222h42.667zM540.444 732.444v56.889h-56.889v-56.889h56.889zM711.111 391.111v2.389l-199.111 79.644-199.111-79.644v-2.389h-6.030l-92.444-36.978 106.951-225.849c6.485-2.276 14.052-0.512 18.773 5.291 18.892 23.134 47.415 37.787 79.36 37.787s60.468-14.653 79.215-37.603l0.145-0.184c3.122-3.801 7.822-6.206 13.084-6.206s9.962 2.405 13.061 6.177l0.023 0.029c18.892 23.114 47.402 37.752 79.332 37.752s60.44-14.638 79.187-37.569l0.145-0.183c4.779-5.86 12.516-7.566 18.944-5.12l106.951 225.678-92.444 36.978h-6.030zM711.111 647.111h-398.222v-161.678l199.111 79.645 199.111-79.644v161.678z" />
<glyph unicode="&#xe9bc;" glyph-name="break-time" d="M469.333 732.444h85.333v170.667h-85.333v-170.667zM284.444 846.222h85.333v-113.778h-85.333v113.778zM156.444 675.556h696.889c94.257 0 170.667-76.41 170.667-170.667s-76.41-170.667-170.667-170.667h-9.899l-0.522-2.532c-19.015-77.981-62.759-146.274-123.041-196.58h133.461v-85.333h-320.057l-0.679-0.982c22.212 30.587 39.449 65.021 51.139 104.519l1.946 0.659c106.628 41.066 182.292 144.484 182.317 265.581v170.667h-654.222v85.333h42.667zM853.333 419.556c47.128 0 85.333 38.205 85.333 85.333s-38.205 85.333-85.333 85.333v0-170.667zM654.222 846.222h85.333v-113.778h-85.333v113.778zM256 419.556c-94.257 0-170.667-76.41-170.667-170.667s76.41-170.667 170.667-170.667v0c94.257 0 170.667 76.41 170.667 170.667s-76.41 170.667-170.667 170.667v0zM0 248.889c0 141.385 114.615 256 256 256s256-114.615 256-256v0c0-141.385-114.615-256-256-256s-256 114.615-256 256v0zM199.111 362.667h85.333v-85.333h85.333v-85.333h-170.667v170.667z" />
<glyph unicode="&#xe9bd;" glyph-name="travel-case" d="M682.667 647.111h-341.333v-455.111h341.333v455.111zM768 647.111v-455.111h14.222c39.253 0 71.111 31.858 71.111 71.111v384h-85.333zM170.667 647.111v-384c0-39.253 31.858-71.111 71.111-71.111h14.222v455.111h-85.333zM682.667 775.111v-42.667h256v-469.333c0-86.402-70.043-156.444-156.444-156.444v0h-540.444c-86.402 0-156.444 70.043-156.444 156.444v0 469.333h256v42.667c0 70.692 57.308 128 128 128v0h85.333c70.692 0 128-57.308 128-128v0zM426.667 732.444h170.667v42.667c0 23.564-19.103 42.667-42.667 42.667h-85.333c-23.564 0-42.667-19.103-42.667-42.667v-42.667z" />
</font>
</defs>
</svg>
