<svg xmlns="http://www.w3.org/2000/svg" style="color: transparent; fill: #28282A;" viewBox="0 0 18 18"><path clip-rule="evenodd" d="M12.75 5.5H15v1.189a5.963 5.963 0 011.5.614V4h-3.487L9.47 1.164 9 .79l-.469.374L4.987 4H1.5v8.25A2.75 2.75 0 004.25 15h3.794a5.956 5.956 0 01-.461-1.5H4.25c-.69 0-1.25-.56-1.25-1.25V5.5h9.75zM8.044 10c-.216.47-.373.974-.461 1.5H5V10h3.044zm3.054-3c-.795.348-1.5.862-2.07 1.5H5V7h6.098zM9 2.71L10.612 4H7.388L9 2.71zm4.5 6.79a3 3 0 100 6 3 3 0 000-6zm-4.5 3a4.5 4.5 0 119 0 4.5 4.5 0 01-9 0zm3.5-2v3h3V12H14v-1.5h-1.5z" fill-rule="evenodd"></path></svg>