<svg xmlns="http://www.w3.org/2000/svg" style="color: transparent; fill: #28282A;" viewBox="0 0 18 18"><path clip-rule="evenodd" d="M1.729 5.733A3.15 3.15 0 017.997 6h2.007a3.15 3.15 0 016.267-.267l.722 5.418-.01.001a3.5 3.5 0 01-6.948.848h-2.07a3.5 3.5 0 01-6.948-.848l-.01-.001.722-5.418zm13.383 2.66l-.328-2.462a1.65 1.65 0 00-3.284.218v2.478a3.484 3.484 0 012-.627c.582 0 1.13.142 1.612.393zM10 10.5v-3H8v3h2zM6.5 6.15v2.477A3.484 3.484 0 004.5 8c-.581 0-1.13.142-1.612.393l.328-2.462A1.65 1.65 0 016.5 6.15zm-4 5.35a2 2 0 114 0 2 2 0 01-4 0zm9 0a2 2 0 114 0 2 2 0 01-4 0z" fill-rule="evenodd"></path></svg>