<svg xmlns="http://www.w3.org/2000/svg" style="color: transparent; fill: #28282A;" viewBox="0 0 18 18"><path clip-rule="evenodd" d="M6.25 3h-.58l-.146.56-1.39 5.328-1.662.666-.741.296.341.721 1.588 3.353c-.351.093-.68.294-.931.603a.297.297 0 01-.46 0l-.407-.5-1.164.946.406.5c.72.885 2.07.885 2.79 0a.297.297 0 01.46 0c.72.885 2.07.885 2.79 0a.297.297 0 01.46 0c.72.885 2.07.884 2.79 0a.297.297 0 01.46 0c.719.884 2.07.885 2.789-.002a.297.297 0 01.46.002 1.801 1.801 0 002.792 0l.407-.5-1.164-.946-.407.5a.301.301 0 01-.466-.002 1.786 1.786 0 00-.926-.6l1.589-3.354.341-.721-.74-.296-1.663-.666-1.39-5.327L12.329 3H6.25zm5.885 5.196L11.17 4.5H6.83l-.965 3.696 2.857-1.142L9 6.942l.279.112 2.856 1.142zm2.096 2.454l-1.88 3.968a.296.296 0 01-.333-.091 1.797 1.797 0 00-2.789 0 .297.297 0 01-.46 0 1.797 1.797 0 00-2.79 0 .297.297 0 01-.33.093l-1.88-3.97L9 8.558l5.23 2.092z" fill-rule="evenodd"></path></svg>