<svg xmlns="http://www.w3.org/2000/svg" style="color: transparent; fill: #28282A;" viewBox="0 0 18 18"><path d="M4.25 4.75a2 2 0 012-2h5.5a2 2 0 012 2v11L9 12.5l-4.75 3.25v-11z"></path><path d="M13.75 15.75l-.424.619 1.174.803V15.75h-.75zm-9.5 0H3.5v1.422l1.174-.803-.424-.619zM9 12.5l.424-.619-.424-.29-.424.29L9 12.5zm-2.75-9h5.5V2h-5.5v1.5zM13 4.75v11h1.5v-11H13zm-8 11v-11H3.5v11H5zm9.174-.619l-4.75-3.25-.848 1.238 4.75 3.25.848-1.238zm-5.598-3.25l-4.75 3.25.848 1.238 4.75-3.25-.848-1.238zM11.75 3.5c.69 0 1.25.56 1.25 1.25h1.5A2.75 2.75 0 0011.75 2v1.5zM6.25 2A2.75 2.75 0 003.5 4.75H5c0-.69.56-1.25 1.25-1.25V2z"></path></svg>