<svg xmlns="http://www.w3.org/2000/svg" style="color: transparent; fill: #28282A;" viewBox="0 0 18 18"><path clip-rule="evenodd" d="M13 2H5v5.75c0 .085.006.168.018.25H2v5.75c0 .966.784 1.75 1.75 1.75H8c.372 0 .717-.116 1-.314.283.198.628.314 1 .314h4.25A1.75 1.75 0 0016 13.75V8h-3.018c.012-.082.018-.165.018-.25V2zM8.25 8h-1.5a.25.25 0 01-.25-.25V3.5h1.75V5h1.5V3.5h1.75v4.25a.25.25 0 01-.25.25h-3zm1.5 1.5h1.75V11H13V9.5h1.5v4.25a.25.25 0 01-.25.25H10a.25.25 0 01-.25-.25V9.5zm-3 0h1.5v4.25A.25.25 0 018 14H3.75a.25.25 0 01-.25-.25V9.5H5V11h1.5V9.5h.25z" fill-rule="evenodd"></path></svg>