<svg xmlns="http://www.w3.org/2000/svg" style="color: transparent; fill: #28282A;" viewBox="0 0 18 18"><path clip-rule="evenodd" d="M4.777 4.877A1.25 1.25 0 015.97 4h6.06c.546 0 1.03.355 1.193.877L13.73 6.5H4.27l.507-1.623zM2.623 6.741l.723-2.311A2.75 2.75 0 015.97 2.5h6.06a2.75 2.75 0 012.624 1.93l.723 2.31A2.75 2.75 0 0117 9.25v5A1.75 1.75 0 0115.25 16h-.5A1.75 1.75 0 0113 14.25v-.75H5v.75A1.75 1.75 0 013.25 16h-.5A1.75 1.75 0 011 14.25v-5a2.75 2.75 0 011.623-2.51zM3.75 8c-.69 0-1.25.56-1.25 1.25V12h13V9.25c0-.69-.56-1.25-1.25-1.25H3.75zM2.5 14.25v-.75h1v.75a.25.25 0 01-.25.25h-.5a.25.25 0 01-.25-.25zm12 0v-.75h1v.75a.25.25 0 01-.25.25h-.5a.25.25 0 01-.25-.25zM5.5 10a1 1 0 11-2 0 1 1 0 012 0zm8 1a1 1 0 100-2 1 1 0 000 2z" fill-rule="evenodd"></path></svg>