<svg xmlns="http://www.w3.org/2000/svg" style="color: transparent; fill: #28282A;" viewBox="0 0 18 18"><path clip-rule="evenodd" d="M6 4H4.5v9.25c0 .69.56 1.25 1.25 1.25h2.091c.191.54.457 1.044.785 1.5H5.75A2.75 2.75 0 013 13.25V2.5h3.018A1.75 1.75 0 017.75 1h2.5a1.75 1.75 0 011.732 1.5H15v4.189a6.01 6.01 0 00-1.5-.189V4H12v2H6V4zm1.5-1.25a.25.25 0 01.25-.25h2.5a.25.25 0 01.25.25V4.5h-3V2.75zm6 6.75a3 3 0 102.892 3.8l1.446.4A4.502 4.502 0 019 12.5a4.5 4.5 0 017.5-3.354V8H18v4h-4v-1.5h1.736c-.55-.614-1.348-1-2.236-1z" fill-rule="evenodd"></path></svg>