<svg xmlns="http://www.w3.org/2000/svg" style="color: transparent; fill: #28282A;" viewBox="0 0 18 18"><path clip-rule="evenodd" d="M4 3.5a1 1 0 100 2 1 1 0 000-2zm-2.5 1a2.5 2.5 0 115 0 2.5 2.5 0 01-5 0zm11.5 0a1 1 0 112 0 1 1 0 01-2 0zM14 2a2.5 2.5 0 100 5 2.5 2.5 0 000-5zm.917 9.5a6.036 6.036 0 01.063 1.5H18v-2.25A2.75 2.75 0 0015.25 8h-.75v1.5h.75c.69 0 1.25.56 1.25 1.25v.75h-1.583zM3.021 13H0v-2.25A2.75 2.75 0 012.75 8h2.281a6.028 6.028 0 00-1.228 1.5H2.75c-.69 0-1.25.56-1.25 1.25v.75h1.583a6.04 6.04 0 00-.062 1.5zM9 9.5a3 3 0 102.892 3.8l1.446.4A4.502 4.502 0 014.5 12.5 4.5 4.5 0 0112 9.146V8h1.5v4h-4v-1.5h1.736c-.55-.614-1.348-1-2.236-1z" fill-rule="evenodd"></path></svg>