<svg xmlns="http://www.w3.org/2000/svg" style="color: transparent; fill: #28282A;" viewBox="0 0 18 18"><path clip-rule="evenodd" d="M8.328 13.88a4.13 4.13 0 01-5.116-.596 4.176 4.176 0 010-5.883l5.256-5.286L9 1.58l.532.535L14.788 7.4a4.176 4.176 0 010 5.883 4.13 4.13 0 01-5.116.596L10 16.505H8l.328-2.625zm-4.052-1.653a2.63 2.63 0 003.734 0l.458-.461.532-.535.532.535.458.46a2.63 2.63 0 003.734 0 2.676 2.676 0 000-3.767L9 3.707 4.276 8.46a2.676 2.676 0 000 3.768z" fill-rule="evenodd"></path></svg>