<svg xmlns="http://www.w3.org/2000/svg" style="color: transparent; fill: #28282A;" viewBox="0 0 18 18"><path clip-rule="evenodd" d="M12.905 3.406a1.195 1.195 0 011.69 1.689l-.215.215-1.69-1.69.215-.214zM11.63 4.68L7 9.31V11h1.69l4.63-4.63-1.69-1.69zm4.025-2.336a2.694 2.694 0 00-3.81 0L5.72 8.47l-.22.22v3.81h3.81l.22-.22 6.125-6.124a2.695 2.695 0 000-3.811zM6.568 5.5l1.5-1.5H2v9.25A2.75 2.75 0 004.75 16h6.5A2.75 2.75 0 0014 13.25V9.932l-1.5 1.5v1.818c0 .69-.56 1.25-1.25 1.25h-6.5c-.69 0-1.25-.56-1.25-1.25V5.5h3.068z" fill-rule="evenodd"></path></svg>