<svg xmlns="http://www.w3.org/2000/svg" style="color: transparent; fill: #28282A;" viewBox="0 0 18 18"><path d="M6.25 3.25H7V2.5h-.75v.75zm-3.5 0V2.5H2v.75h.75zm11.5 11.5v.75H15v-.75h-.75zm0-3.5v-.75h-.75v.75h.75zm0-4.5h-.75v.75h.75v-.75zm0-3.5H15V2.5h-.75v.75zm-3.5 0V2.5H10v.75h.75zm-4.5-.75h-3.5V4h3.5V2.5zM2 3.25v9.5h1.5v-9.5H2zm0 9.5a2.75 2.75 0 002.75 2.75V14c-.69 0-1.25-.56-1.25-1.25H2zm2.75 2.75h9.5V14h-9.5v1.5zM15 14.75v-3.5h-1.5v3.5H15zM14.25 12H15v-1.5h-.75V12zm.75 0a3 3 0 003-3h-1.5a1.5 1.5 0 01-1.5 1.5V12zm3-3a3 3 0 00-3-3v1.5A1.5 1.5 0 0116.5 9H18zm-3-3h-.75v1.5H15V6zm0 .75v-3.5h-1.5v3.5H15zm-.75-4.25h-3.5V4h3.5V2.5zM10 3.25V4h1.5v-.75H10zM10 4a1.5 1.5 0 01-1.5 1.5V7a3 3 0 003-3H10zM8.5 5.5A1.5 1.5 0 017 4H5.5a3 3 0 003 3V5.5zM7 4v-.75H5.5V4H7z"></path></svg>