<svg xmlns="http://www.w3.org/2000/svg" style="color: transparent; fill: #28282A;" viewBox="0 0 18 18"><path clip-rule="evenodd" d="M12.086 15.147A5.973 5.973 0 019 16a5.973 5.973 0 01-3.086-.853A3 3 0 013 9.9a5.998 5.998 0 013.006-5.102 3 3 0 015.986 0A5.998 5.998 0 0115 9.9a3 3 0 01-2.913 5.246zM13.472 9.5a3 3 0 00-2.534 4.562A4.482 4.482 0 019 14.5a4.482 4.482 0 01-1.938-.438A3 3 0 004.528 9.5a4.496 4.496 0 011.805-3.125 3 3 0 005.334 0A4.496 4.496 0 0113.473 9.5z" fill-rule="evenodd"></path></svg>