<svg xmlns="http://www.w3.org/2000/svg" style="color: transparent; fill: #28282A;" viewBox="0 0 18 18"><path clip-rule="evenodd" d="M6 2h10v7.25A2.75 2.75 0 0113.25 12H9.154l-.046.046-1.06-1.06 1.031-1.032a1.438 1.438 0 00-2.033-2.033L6.015 8.952l-1.06-1.06 1.03-1.032L6 6.846V2zm7.25 8.5h-2.7A2.939 2.939 0 007.5 6.054V3.5h7v5.75c0 .69-.56 1.25-1.25 1.25zm-9.298.515l-1.03 1.03a1.438 1.438 0 102.032 2.034l1.031-1.031 1.06 1.06-1.03 1.032a2.938 2.938 0 11-4.155-4.155l1.032-1.031 1.06 1.06zm.654 2.439l3.847-3.847-1.06-1.06-3.847 3.846 1.06 1.06z" fill-rule="evenodd"></path></svg>