<svg xmlns="http://www.w3.org/2000/svg" style="color: transparent; fill: #28282A;" viewBox="0 0 18 18"><path clip-rule="evenodd" d="M6.75 2H6v5.5h2V6h-.5V3.5h7v5.75c0 .69-.56 1.25-1.25 1.25H12V10h-1.5v2h2.75A2.75 2.75 0 0016 9.25V2H6.75zm-4 4H2v2.5h1.5v-1h1V6H2.75zM2 10v2h1.5v-2H2zm2.5 5.989A2.75 2.75 0 012.011 13.5h1.514c.1.49.485.876.975.975v1.514zm5-1.514c.49-.1.876-.485.975-.975h1.514A2.75 2.75 0 019.5 15.989v-1.514zm1-5.975v-1h-1V6H12v2.5h-1.5zm-4.5 6h2V16H6v-1.5z" fill-rule="evenodd"></path></svg>