<svg xmlns="http://www.w3.org/2000/svg" style="color: transparent; fill: #28282A;" viewBox="0 0 18 18"><path clip-rule="evenodd" d="M6.28 2.47l-.53-.53-.53.53-2.75 2.75-.53.53.53.53L5.19 9l-2.97 2.97-.22.22V16h3.81l.22-.22L9 12.81l2.97 2.97.53.53.53-.53 2.75-2.75.53-.53-.53-.53L12.81 9l2.345-2.345a2.695 2.695 0 10-3.81-3.81L9 5.189 6.28 2.47zm1.66 3.78L6.25 7.94 4.06 5.75l1.69-1.69.564.565L5.22 5.72l1.06 1.06 1.095-1.094.564.564zm4.56 7.94l-2.44-2.44 1.69-1.69.564.565-1.094 1.095 1.06 1.06 1.095-1.094.815.814-1.69 1.69zm-.095-10.285a1.195 1.195 0 011.69 1.69l-.72.72-1.69-1.69.72-.72zm-.09 3.47L5.188 14.5H3.5v-1.69l7.125-7.124 1.69 1.69z" fill-rule="evenodd"></path></svg>