<svg xmlns="http://www.w3.org/2000/svg" style="color: transparent; fill: #28282A;" viewBox="0 0 18 18"><path clip-rule="evenodd" d="M1.75 4H1v10h16V4H1.75zm.75 8.5v-1.372c.64.226 1.146.733 1.372 1.372H2.5zm2.925 0A3.755 3.755 0 002.5 9.575v-1.15A3.754 3.754 0 005.425 5.5h7.15A3.755 3.755 0 0015.5 8.425v1.15a3.755 3.755 0 00-2.925 2.925h-7.15zm8.703 0H15.5v-1.372a2.257 2.257 0 00-1.372 1.372zM15.5 6.872V5.5h-1.372c.226.64.733 1.146 1.372 1.372zM3.872 5.5A2.256 2.256 0 012.5 6.872V5.5h1.372zM8 9a1 1 0 112 0 1 1 0 01-2 0zm1-2.5a2.5 2.5 0 100 5 2.5 2.5 0 000-5z" fill-rule="evenodd"></path></svg>