<svg xmlns="http://www.w3.org/2000/svg" style="color: transparent; fill: #28282A;" viewBox="0 0 18 18"><path clip-rule="evenodd" d="M9.75 3.81l1.22 1.22 1.06-1.06-2.5-2.5L9 .94l-.53.53-2.5 2.5 1.06 1.06 1.22-1.22V7.5H2V9h14V7.5H9.75V3.81zM12 10h2a2 2 0 012 2v2a2 2 0 01-2 2h-2v-6zm1.5 1.5v3h.5a.5.5 0 00.5-.5v-2a.5.5 0 00-.5-.5h-.5zm-6 .375C7.5 10.84 8.34 10 9.375 10h1.875v1.5H9.375a.375.375 0 000 .75h.25a1.875 1.875 0 010 3.75H7.75v-1.5h1.875a.375.375 0 000-.75h-.25A1.875 1.875 0 017.5 11.875zM2 10l1.875 3L2 16h1.769l.99-1.585L5.75 16h1.769l-1.875-3 1.875-3H5.75l-.99 1.585L3.768 10H2z" fill-rule="evenodd"></path></svg>