<svg xmlns="http://www.w3.org/2000/svg" style="color: transparent; fill: #28282A;" viewBox="0 0 18 18"><path clip-rule="evenodd" d="M15.789 4h1.286l-.078.822-.871 9.142a2.25 2.25 0 01-2.24 2.037h-2.772a2.247 2.247 0 01-1.677-.75 2.094 2.094 0 01-1.262.7c-.55.088-1.092-.034-1.534-.186a1.972 1.972 0 00-1.282 0c-.442.152-.984.274-1.534.186-.59-.094-1.118-.42-1.501-1.019C1.702 13.96 1 12.454 1 10.595c0-.921.208-1.894.788-2.611.62-.768 1.573-1.125 2.761-.934l.739.118c-.08-.365-.302-.936-.888-1.717l1.2-.9c.808 1.077 1.123 1.945 1.206 2.602l.645-.103c.265-.043.52-.058.76-.047l-.208-2.181L7.925 4h6.357l.221-2.321 1.493.142L15.79 4zm-6.884 9.224a6.94 6.94 0 00.21-.51c.227-.62.385-1.334.385-2.12 0-.519-.086-.961-.235-1.3-.126-.281-.296-.488-.494-.614-.241-.152-.582-.23-1.083-.15l-1.095.176a3.75 3.75 0 01-1.186 0l-1.095-.175c-.73-.117-1.118.1-1.358.396-.281.348-.454.93-.454 1.668 0 1.48.56 2.705 1.087 3.529.159.248.317.32.475.346.197.032.465-.006.811-.124a3.472 3.472 0 012.254 0c.346.118.614.156.811.124.158-.025.316-.098.475-.346.164-.256.33-.55.483-.88l.01-.02zm1.447.438A7.703 7.703 0 0011 10.595c0-.647-.102-1.318-.364-1.91A2.856 2.856 0 009.77 7.55L9.575 5.5h5.85l-.792 8.32a.75.75 0 01-.747.68h-2.772a.75.75 0 01-.747-.68l-.015-.16z" fill-rule="evenodd"></path></svg>