<svg xmlns="http://www.w3.org/2000/svg" style="color: transparent; fill: #28282A;" viewBox="0 0 18 18"><path clip-rule="evenodd" d="M8.995 16.5a6.48 6.48 0 01-4.592-1.904c-2.595-2.595-2.146-6.357-.068-9.113.903-1.198 1.385-2.182 1.64-2.85.128-.333.199-.589.237-.753a2.856 2.856 0 00.042-.211v-.002L6.324 1H7c1.237 0 2.395.55 3.222 1.64.66.869 1.088 2.049 1.228 3.516.133-.127.267-.289.399-.484a4.95 4.95 0 00.504-.974l.005-.013v-.001l.396-1.122.842.842C14.895 5.703 15.5 7.636 15.5 9.5c0 1.864-.605 3.797-1.904 5.096A6.48 6.48 0 019.004 16.5h-.009zm-2.947-2.463a2.997 2.997 0 01.83-2.658L8.47 9.788l.53-.53.53.53 1.591 1.59c.723.723 1 1.723.83 2.658.205-.15.4-.316.584-.5C13.482 12.589 14 11.08 14 9.5c0-1.155-.277-2.273-.796-3.16a5.735 5.735 0 01-.112.172C12.676 7.127 11.902 8 10.75 8H10v-.75c0-1.767-.413-2.965-.973-3.703-.405-.535-.904-.852-1.446-.98a8.186 8.186 0 01-.205.603c-.305.798-.856 1.906-1.843 3.216-1.79 2.375-1.964 5.254-.069 7.15.185.184.38.351.584.5zm1.891-1.598a1.5 1.5 0 102.122 0L9 11.38l-1.06 1.06z" fill-rule="evenodd"></path></svg>