<svg xmlns="http://www.w3.org/2000/svg" style="color: transparent; fill: #28282A;" viewBox="0 0 18 18"><path clip-rule="evenodd" d="M2 2h5.273A2.75 2.75 0 019.9 3.941L11.458 9H12.5V2H14v10.5h3V14h-4.014a2.25 2.25 0 01-4.472 0H5.486a2.25 2.25 0 01-4.472 0H1V8h1V2zm.5 9.628a2.248 2.248 0 012.621.872H8.88a2.248 2.248 0 013.621-.164V10.5H7.073l-.158-.08-1.842-.92H2.5v2.128zm5.968-7.246L9.888 9h-2.46l-1.843-.92L5.427 8H3.5V3.5h3.773a1.25 1.25 0 011.195.882zM10.75 13a.75.75 0 100 1.5.75.75 0 000-1.5zm-8.25.75a.75.75 0 111.5 0 .75.75 0 01-1.5 0z" fill-rule="evenodd"></path></svg>