<svg xmlns="http://www.w3.org/2000/svg" style="color: transparent; fill: #28282A;" viewBox="0 0 18 18"><path clip-rule="evenodd" d="M4.5 1.5v3.7a3.75 3.75 0 001.985 3.309L7.406 9l-.92.491A3.75 3.75 0 004.5 12.8v3.7H6v-1h6v1h1.5v-3.7a3.75 3.75 0 00-1.985-3.309L10.594 9l.92-.491A3.75 3.75 0 0013.5 5.2V1.5H12v1H6v-1H4.5zM12 4H6v1h6V4zm-.414 2.5H6.414c.198.281.462.517.777.685L9 8.15l1.809-.965c.315-.168.579-.404.777-.685zM9 9.85l-1.809.965a2.248 2.248 0 00-.777.685h5.172a2.247 2.247 0 00-.777-.685L9 9.85zM6 13v1h6v-1H6z" fill-rule="evenodd"></path></svg>