<svg xmlns="http://www.w3.org/2000/svg" style="color: transparent; fill: #28282A;" viewBox="0 0 18 18"><path clip-rule="evenodd" d="M1.5 14V4H3v4.25h4V4h1.5v10H7V9.75H3V14H1.5zm8-7.25A2.75 2.75 0 0112.25 4h1.34a2.91 2.91 0 012.91 2.91V7c0 .788-.331 1.499-.863 2 .532.501.863 1.212.863 2v.09A2.909 2.909 0 0113.59 14h-1.34a2.75 2.75 0 01-2.75-2.75V11H11v.25c0 .69.56 1.25 1.25 1.25h1.34c.78 0 1.41-.63 1.41-1.41V11c0-.69-.56-1.25-1.25-1.25H12v-1.5h1.75C14.44 8.25 15 7.69 15 7v-.09c0-.78-.63-1.41-1.41-1.41h-1.34c-.69 0-1.25.56-1.25 1.25V7H9.5v-.25z" fill-rule="evenodd"></path></svg>