<svg xmlns="http://www.w3.org/2000/svg" style="color: transparent; fill: #28282A;" viewBox="0 0 18 18"><path clip-rule="evenodd" d="M14.53 1.47L14 .94l-.53.53-1.22 1.22-.97-.97-.284-.284-.393.079-5 1-1.374.275.99.99 2.97 2.97-6.22 6.22a2.164 2.164 0 103.061 3.06l6.22-6.22 1.47 1.47.53.53.53-.53 3-3 .53-.53-.53-.53-1.47-1.47 1.22-1.22.53-.53-.53-.53-2-2zM9.25 7.81l.94.94-6.22 6.22a.664.664 0 11-.94-.94l-.53-.53.53.53 6.22-6.22zm3.06.94l.94.94 1.94-1.94-4.686-4.686-3.233.647 1.98 1.979.53.53 2 2 .53.53zm1.94-4.06l-.94-.94.69-.69.94.94-.69.69z" fill-rule="evenodd"></path></svg>