<svg xmlns="http://www.w3.org/2000/svg" style="color: transparent; fill: #28282A;" viewBox="0 0 18 18"><path clip-rule="evenodd" d="M9 11.25A2.25 2.25 0 0011.25 9H16v3.75A2.25 2.25 0 0113.75 15h-9.5A2.25 2.25 0 012 12.75V9h4.75A2.25 2.25 0 009 11.25z" fill-rule="evenodd" opacity=".15"></path><path clip-rule="evenodd" d="M3.177 2.5L1.5 8.5v4.25a2.75 2.75 0 002.75 2.75h9.5a2.75 2.75 0 002.75-2.75V8.5l-1.677-6H3.177zm11.763 6L13.677 4H4.323L3.06 8.5h4.375l.074.668a1.5 1.5 0 002.982 0l.074-.668h4.375zM3 12.75V10h3.17a3 3 0 005.66 0H15v2.75c0 .69-.56 1.25-1.25 1.25h-9.5C3.56 14 3 13.44 3 12.75z" fill-rule="evenodd"></path></svg>