<svg xmlns="http://www.w3.org/2000/svg" style="color: transparent; fill: #28282A;" viewBox="0 0 18 18"><path clip-rule="evenodd" d="M2.25 2.5H1.5v10.75a2.25 2.25 0 002.25 2.25H7c.69 0 1.25.56 1.25 1.25h1.5c0-.69.56-1.25 1.25-1.25h3.25a2.25 2.25 0 002.25-2.25V2.5H11c-.788 0-1.499.331-2 .863A2.742 2.742 0 007 2.5H2.25zm6 2.75C8.25 4.56 7.69 4 7 4H3v9.25c0 .414.336.75.75.75H7c.45 0 .875.108 1.25.3V5.25zm1.5 9.05c.375-.192.8-.3 1.25-.3h3.25a.75.75 0 00.75-.75V4h-4c-.69 0-1.25.56-1.25 1.25v9.05zM7 6.5H4V5h3v1.5zm-3 3h3V8H4v1.5zm3 3H4V11h3v1.5zm4-6h3V5h-3v1.5zm3 3h-3V8h3v1.5zm-3 3h3V11h-3v1.5z" fill-rule="evenodd"></path></svg>