<svg xmlns="http://www.w3.org/2000/svg" style="color: transparent; fill: #28282A;" viewBox="0 0 18 18"><path clip-rule="evenodd" d="M4 1H2.5v.75a1 1 0 01-1 1H1v1.5h.5a1 1 0 011 1V6H4v-.75a1 1 0 011-1h.5v-1.5H5a1 1 0 01-1-1V1zm3.382 3.2l.53.53 7.425 7.425a2.25 2.25 0 11-3.182 3.182L4.73 7.912l-.53-.53.53-.53L6.851 4.73l.53-.53zM6.32 7.382L7.939 9 9 7.94 7.383 6.32 6.32 7.382zm6.894 6.894L9 10.061 10.06 9l4.216 4.215a.75.75 0 01-1.06 1.06zM2.5 9H4v.75a1 1 0 001 1h.5v1.5H5a1 1 0 00-1 1V14H2.5v-.75a1 1 0 00-1-1H1v-1.5h.5a1 1 0 001-1V9zm8-8H12v.75a1 1 0 001 1h.5v1.5H13a1 1 0 00-1 1V6h-1.5v-.75a1 1 0 00-1-1H9v-1.5h.5a1 1 0 001-1V1z" fill-rule="evenodd"></path></svg>