<svg xmlns="http://www.w3.org/2000/svg" style="color: transparent; fill: #28282A;" viewBox="0 0 18 18"><path clip-rule="evenodd" d="M9.53 1.97L9 1.44l-.53.53-2.5 2.5 1.06 1.06 1.22-1.22v3.94H4.31l1.22-1.22-1.06-1.06-2.5 2.5-.53.53.53.53 2.5 2.5 1.06-1.06-1.22-1.22h3.94v3.94l-1.22-1.22-1.06 1.06 2.5 2.5.53.53.53-.53 2.5-2.5-1.06-1.06-1.22 1.22V9.75h3.94l-1.22 1.22 1.06 1.06 2.5-2.5.53-.53-.53-.53-2.5-2.5-1.06 1.06 1.22 1.22H9.75V4.31l1.22 1.22 1.06-1.06-2.5-2.5z" fill-rule="evenodd"></path></svg>