<svg xmlns="http://www.w3.org/2000/svg" style="color: transparent; fill: #28282A;" viewBox="0 0 18 18"><path clip-rule="evenodd" d="M2 1l.739.13 2.462.434.738.13-.13.74-.217 1.23 9.848 1.737-.26 1.477-4.6-.811 2.952 8.433H16V16H2v-1.5h2.468l3.135-8.958-2.271-.4-.304 1.723-.13.738-.74-.13-.492-.087a2.75 2.75 0 01-2.23-3.185l.434-2.462L2 1zm1.217 1.738L2.913 4.46a1.25 1.25 0 00.772 1.38l.517-2.93-.985-.173zM11.943 14.5l-.525-1.5H6.582l-.525 1.5h5.886zm-1.05-3l-.525-1.5H7.632l-.525 1.5h3.786zm-1.05-3L9 6.092 8.157 8.5h1.686z" fill-rule="evenodd"></path></svg>