<svg xmlns="http://www.w3.org/2000/svg" style="color: transparent; fill: #28282A;" viewBox="0 0 18 18"><path clip-rule="evenodd" d="M12.53 4.03a1.018 1.018 0 011.44 1.44l-2.25 2.25-.53.53.53.53L12.94 10l-1.44 1.44L6.56 6.5 8 5.06l1.22 1.22.53.53.53-.53 2.25-2.25zm2.5-1.06a2.518 2.518 0 00-3.56 0L9.75 4.69 8.53 3.47 8 2.94l-.53.53L5.5 5.44l-.53.53-.53.53-2.97 2.97-.53.53.53.53 6 6 .53.53.53-.53 2.97-2.97.53-.53.53-.53 1.97-1.97.53-.53-.53-.53-1.22-1.22 1.72-1.72a2.518 2.518 0 000-3.56zm-4.59 9.53L5.5 7.56 3.06 10l.94.94.47-.47 1.06 1.06-.47.47.94.94 1.47-1.47 1.06 1.06L7.06 14l.94.94 2.44-2.44z" fill-rule="evenodd"></path></svg>