<svg xmlns="http://www.w3.org/2000/svg" style="color: transparent; fill: #28282A;" viewBox="0 0 18 18"><path clip-rule="evenodd" d="M9 3a6 6 0 00-4.812 9.585A3.745 3.745 0 017.25 11h3.5c1.264 0 2.383.626 3.062 1.585A6 6 0 009 3zm0 12a5.974 5.974 0 01-3.737-1.306A2.25 2.25 0 017.25 12.5h3.5c.861 0 1.61.484 1.987 1.194A5.975 5.975 0 019 15zM1.5 9a7.5 7.5 0 1115 0 7.5 7.5 0 01-15 0zm6.25-1.75a1.25 1.25 0 112.5 0 1.25 1.25 0 01-2.5 0zM9 4.5A2.75 2.75 0 109 10a2.75 2.75 0 000-5.5z" fill-rule="evenodd"></path></svg>