<svg xmlns="http://www.w3.org/2000/svg" style="color: transparent; fill: #28282A;" viewBox="0 0 18 18"><path clip-rule="evenodd" d="M5 7.5a4 4 0 116.593 3.046l-.137.079.013.023A3.983 3.983 0 019 11.5a3.983 3.983 0 01-2.469-.852l.013-.023-.137-.08A3.991 3.991 0 015 7.5zm-.337 3.383a5.5 5.5 0 118.674 0l1.813 3.14.71 1.231-1.417-.108-1.603-.123-.695 1.45-.615 1.281-.71-1.231L9 13.37l-1.82 3.152-.71 1.231-.615-1.282-.695-1.45-1.603.124-1.417.108.71-1.231 1.813-3.14zm1.113 1.073l-.916 1.585.697-.053.512-.04.221.464.303.63.995-1.725a5.475 5.475 0 01-1.812-.86zm4.636.861l.995 1.724.303-.63.221-.462.512.039.697.053-.916-1.585a5.474 5.474 0 01-1.812.861z" fill-rule="evenodd"></path></svg>