<svg xmlns="http://www.w3.org/2000/svg" style="color: transparent; fill: #28282A;" viewBox="0 0 18 18"><path clip-rule="evenodd" d="M10.916 2.93c-.878-1.427-2.954-1.427-3.832 0L5.86 4.918l1.278.786L8.36 3.717a.75.75 0 011.278 0L11.4 6.579l-1.652-.412-.363 1.456 3.43.855.728.181.182-.727.855-3.43-1.456-.364-.422 1.695-1.786-2.902zm-7.87 9.425L4.7 9.664l.424 1.698L6.58 11l-.855-3.43-.182-.728-.727.181-3.43.856.362 1.455 1.649-.41-1.629 2.646c-.922 1.499.156 3.429 1.916 3.429H6v-1.5H3.684a.75.75 0 01-.638-1.143zm10.815-1.777l1.093 1.777a.75.75 0 01-.638 1.143H10.81l1.22-1.22-1.061-1.06-2.5 2.5-.53.53.53.53 2.5 2.5 1.06-1.06-1.22-1.22h3.506c1.76 0 2.838-1.93 1.916-3.43l-1.093-1.776-1.278.786z" fill-rule="evenodd"></path></svg>