<svg xmlns="http://www.w3.org/2000/svg" style="color: transparent; fill: #28282A;" viewBox="0 0 18 18"><path clip-rule="evenodd" d="M9 1.12l.393.241 1.347.829A4.75 4.75 0 0113 6.235v1.282a2.75 2.75 0 012.357 2.066l.62 2.485.234.932H1.79l.233-.932.62-2.485A2.75 2.75 0 015 7.517V6.235c0-1.65.856-3.18 2.26-4.045l1.347-.829L9 1.119zm4 10.38V9.04c.436.111.788.454.901.907l.389 1.553H13zm-1.5-5.265V11.5h-5V6.235a3.25 3.25 0 011.547-2.768L9 2.88l.953.587A3.25 3.25 0 0111.5 6.235zM5 9.039a1.25 1.25 0 00-.901.908L3.711 11.5H5V9.04zM7 14v2H5.5v-2H7zm2.75 0v3h-1.5v-3h1.5zm2.75 2v-2H11v2h1.5zM9 7a1 1 0 100-2 1 1 0 000 2z" fill-rule="evenodd"></path></svg>