<svg xmlns="http://www.w3.org/2000/svg" style="color: transparent; fill: #28282A;" viewBox="0 0 18 18"><path clip-rule="evenodd" d="M2 2h11.56l.22.22 2 2 .22.22V16H5.93l1.5-1.5h4.07v-2.75a.75.75 0 00-.75-.75h-3.5a.749.749 0 00-.591.289l-1.064-1.063c.411-.447 1-.726 1.655-.726h3.5A2.25 2.25 0 0113 11.75v2.75h1.5V5.06L13 3.56v2.69a2.25 2.25 0 01-2.25 2.25h-3.5A2.25 2.25 0 015 6.25V3.5H3.5v8.566l-.002.002L2 10.57V2zm4.5 1.5v2.75c0 .414.336.75.75.75h3.5a.75.75 0 00.75-.75V3.5h-5zm.03 9.78l-2.5 2.5-.53.53-.53-.53-2.5-2.5 1.06-1.06 1.97 1.97 1.97-1.97 1.06 1.06z" fill-rule="evenodd"></path></svg>