<svg xmlns="http://www.w3.org/2000/svg" style="color: transparent; fill: #28282A;" viewBox="0 0 18 18"><path clip-rule="evenodd" d="M2 2h11.56l.22.22 2 2 .22.22V16H5.292c.134-.306.208-.644.208-1 0-.563-.186-1.082-.5-1.5.314-.418.5-.937.5-1.5 0-.428-.108-.832-.298-1.184A2.25 2.25 0 017.25 9.5h3.5A2.25 2.25 0 0113 11.75v2.75h1.5V5.06L13 3.56v2.69a2.25 2.25 0 01-2.25 2.25h-3.5A2.25 2.25 0 015 6.25V3.5H3.5v3.05a2.512 2.512 0 00-1.5.158V2zm4.5 1.5v2.75c0 .414.336.75.75.75h3.5a.75.75 0 00.75-.75V3.5h-5zm5 11h-5v-2.75a.75.75 0 01.75-.75h3.5a.75.75 0 01.75.75v2.75zM2 15a1 1 0 102 0 1 1 0 00-2 0zm1-2a1 1 0 110-2 1 1 0 010 2zM2 9a1 1 0 102 0 1 1 0 00-2 0z" fill-rule="evenodd"></path></svg>