<svg xmlns="http://www.w3.org/2000/svg" style="color: transparent; fill: #28282A;" viewBox="0 0 18 18"><path clip-rule="evenodd" d="M1.47 2.53l14 14 1.06-1.06-2.714-2.715C14.771 11.53 15.5 9.89 15.5 7.75V3.17l-.56-.146-5.75-1.5-.19-.05-.19.05-4.937 1.288L2.53 1.47 1.47 2.53zm3.632 1.512L9 3.025l5 1.304V7.75c0 1.66-.528 2.947-1.254 3.935L5.102 4.042zm5.415 9.657l1.085 1.085c-.51.34-.992.597-1.384.781a9.61 9.61 0 01-.913.375l-.06.019-.017.006-.006.001-.002.001c-.001 0-.002 0-.22-.717a70.67 70.67 0 01-.22.717h-.002l-.006-.002-.017-.006-.06-.02a9.613 9.613 0 01-.913-.374 10.7 10.7 0 01-2.127-1.324C4.095 12.986 2.5 10.914 2.5 7.75V5.682l1.5 1.5v.568c0 2.586 1.28 4.264 2.595 5.322A9.2 9.2 0 009 14.455a9.396 9.396 0 001.517-.756zM9 15.25l.218.717-.218.067-.218-.066L9 15.25z" fill-rule="evenodd"></path></svg>