<svg xmlns="http://www.w3.org/2000/svg" style="color: transparent; fill: #28282A;" viewBox="0 0 18 18"><path clip-rule="evenodd" d="M9.19 1.524L9 1.475l-.19.05-5.75 1.5-.56.146v4.58c0 3.163 1.595 5.235 3.155 6.49a10.695 10.695 0 002.834 1.625 6.322 6.322 0 00.266.093l.017.006.006.002h.002c.001 0 .002 0 .22-.717l-.218.718.218.066.218-.066L9 15.25c.218.718.219.718.22.717h.002l.006-.002.017-.006a6.322 6.322 0 00.266-.093 10.694 10.694 0 002.834-1.625c1.56-1.255 3.155-3.327 3.155-6.49V3.17l-.56-.147-5.75-1.5zm.389 12.684c-.24.113-.439.194-.579.247a9.198 9.198 0 01-2.405-1.383C5.28 12.014 4 10.336 4 7.75V4.33l5-1.305 5 1.305v3.42c0 2.586-1.28 4.264-2.595 5.322-.661.532-1.326.9-1.826 1.136zm2.951-7.427l-3.5 3.5-.53.53-.53-.53-2-2L7.03 7.22 8.5 8.69l2.97-2.97 1.06 1.06z" fill-rule="evenodd"></path></svg>