<svg xmlns="http://www.w3.org/2000/svg" style="color: transparent; fill: #28282A;" viewBox="0 0 18 18"><path clip-rule="evenodd" d="M2.25 3H1.5v10.25a2.25 2.25 0 002.25 2.25h10.5a2.25 2.25 0 002.25-2.25V3H2.25zM15 7.25V4.5H3v3.25c0 .414.336.75.75.75h10.5a.75.75 0 00.75-.75v-.5zm0 2.622a2.246 2.246 0 01-.75.128H3.75c-.263 0-.515-.045-.75-.128v3.378c0 .414.336.75.75.75h10.5a.75.75 0 00.75-.75V9.872zM8 5.5h5.5V7H8V5.5zm5.5 5.5H8v1.5h5.5V11zm-9-5.5H6V7H4.5V5.5zM6 11H4.5v1.5H6V11z" fill-rule="evenodd"></path></svg>