<svg xmlns="http://www.w3.org/2000/svg" style="color: transparent; fill: #28282A;" viewBox="0 0 18 18"><path clip-rule="evenodd" d="M9 13.5c-2.778 0-5.242-1.792-6.459-4.5C3.758 6.292 6.221 4.5 9 4.5c2.778 0 5.242 1.792 6.459 4.5-1.217 2.708-3.68 4.5-6.459 4.5zM9 3C5.417 3 2.39 5.385 1.031 8.717L.915 9l.116.283C2.39 12.615 5.417 15 9.001 15c3.582 0 6.609-2.385 7.968-5.717L17.085 9l-.116-.283C15.61 5.385 12.583 3 9 3zM7.5 9a1.5 1.5 0 113 0 1.5 1.5 0 01-3 0zM9 6a3 3 0 100 6 3 3 0 000-6z" fill-rule="evenodd"></path></svg>