<svg xmlns="http://www.w3.org/2000/svg" style="color: transparent; fill: #28282A;" viewBox="0 0 18 18"><path clip-rule="evenodd" d="M12.75 3.5a.25.25 0 00-.25.25v.75h1v-.75a.25.25 0 00-.25-.25h-.5zM13.5 6v2H15V3.75A1.75 1.75 0 0013.25 2h-.5A1.75 1.75 0 0011 3.75V8h1.5V6h1zM6 3v10.19l2.22-2.22 1.06 1.06-3.5 3.5-.53.53-.53-.53-3.5-3.5 1.06-1.06 2.22 2.22V3H6zm8.056 7a.944.944 0 01.8 1.445L12.947 14.5h1.803V16h-2.806a.944.944 0 01-.8-1.445l1.91-3.055H11.25V10h2.806z" fill-rule="evenodd"></path></svg>