<svg xmlns="http://www.w3.org/2000/svg" style="color: transparent; fill: #28282A;" viewBox="0 0 18 18"><path clip-rule="evenodd" d="M4.75 3.75h8.5v3.5h-8.5v-3.5zm-2 6h12.5v4.5H2.75v-4.5z" fill-rule="evenodd"></path><path d="M13.25 3.75H14V3h-.75v.75zm-8.5 0V3H4v.75h.75zm8.5 3.5V8H14v-.75h-.75zm-8.5 0H4V8h.75v-.75zm10.5 2.5H16V9h-.75v.75zm-12.5 0V9H2v.75h.75zm12.5 4.5V15H16v-.75h-.75zm-12.5 0H2V15h.75v-.75zM13.25 3h-8.5v1.5h8.5V3zM14 7.25v-3.5h-1.5v3.5H14zM4.75 8h8.5V6.5h-8.5V8zM4 3.75v3.5h1.5v-3.5H4zM15.25 9H2.75v1.5h12.5V9zm.75 5.25v-4.5h-1.5v4.5H16zM2.75 15h12.5v-1.5H2.75V15zM2 9.75v4.5h1.5v-4.5H2z"></path></svg>