<svg xmlns="http://www.w3.org/2000/svg" style="color: transparent; fill: #28282A;" viewBox="0 0 18 18"><path clip-rule="evenodd" d="M7.91 3.5A2.91 2.91 0 005 6.41v.43c0 .512.132.993.363 1.41H2.5v1.5h7.59c.78 0 1.41.63 1.41 1.41v.43c0 .78-.63 1.41-1.41 1.41H7.75c-.69 0-1.25-.56-1.25-1.25v-.25H5v.25a2.75 2.75 0 002.75 2.75h2.34A2.909 2.909 0 0013 11.59v-.43c0-.512-.132-.992-.363-1.41H15.5v-1.5H7.91A1.41 1.41 0 016.5 6.84v-.43C6.5 5.63 7.13 5 7.91 5h2.34c.69 0 1.25.56 1.25 1.25v.25H13v-.25a2.75 2.75 0 00-2.75-2.75H7.91z" fill-rule="evenodd"></path></svg>