<svg xmlns="http://www.w3.org/2000/svg" style="color: transparent; fill: #28282A;" viewBox="0 0 18 18"><path clip-rule="evenodd" d="M14.25 12a1.25 1.25 0 110 2.5 1.25 1.25 0 010-2.5zM17 13.25c0-1.259-.846-2.32-2-2.646v-.354A2.25 2.25 0 0012.75 8H10.5a.75.75 0 01-.75-.75V7h1.75V2h-5v5h1.75v.25A.75.75 0 017.5 8H5.25A2.25 2.25 0 003 10.25v.354a2.751 2.751 0 101.5 0v-.354a.75.75 0 01.75-.75H7.5c.576 0 1.102-.217 1.5-.573.398.356.924.573 1.5.573h2.25a.75.75 0 01.75.75v.354A2.751 2.751 0 1017 13.25zM10 3.5H8v2h2v-2zm-5 9.75a1.25 1.25 0 10-2.5 0 1.25 1.25 0 002.5 0z" fill-rule="evenodd"></path></svg>