<svg xmlns="http://www.w3.org/2000/svg" style="color: transparent; fill: #28282A;" viewBox="0 0 18 18"><g clip-path="url(#syringe-clip0_111_16093)"><path clip-rule="evenodd" d="M14 5.06l1.97 1.97 1.06-1.06-5-5-1.06 1.06L12.94 4 11.5 5.44l-1.47-1.47-.53-.53-.97-.97-1.06 1.06.97.97-5.056 5.056a2.75 2.75 0 000 3.889l.055.055-2.47 2.47 1.061 1.06 2.47-2.47.056.056a2.75 2.75 0 003.889 0L13.5 9.561l.97.97 1.06-1.061-.97-.97-.53-.53-1.47-1.47L14 5.06zm-4.5.5l-5.055 5.056a1.25 1.25 0 000 1.768l1.171 1.171a1.25 1.25 0 001.768 0L12.439 8.5 9.5 5.56z" fill-rule="evenodd"></path></g></svg>