<svg xmlns="http://www.w3.org/2000/svg" style="color: transparent; fill: #28282A;" viewBox="0 0 18 18"><path clip-rule="evenodd" d="M10.214 3.675L8.8 2.26 9.86 1.2l1.414 1.414.53.53 3.183 3.182.53.53 1.414 1.415-1.06 1.06-1.415-1.414-2.33 2.33a2.75 2.75 0 01-.321 3.504l-1.415 1.414-.53.53-.53-.53-2.652-2.651-3.005 3.005-1.06-1.061 3.005-3.005L2.966 8.8l-.53-.53.53-.53L4.38 6.325a2.75 2.75 0 013.504-.321l2.33-2.33zm1.06 1.06L8.446 7.564l-.53.53-.53-.53-.177-.177a1.25 1.25 0 00-1.768 0l-.884.884 5.303 5.303.884-.884a1.25 1.25 0 000-1.768l-.177-.176-.53-.53.53-.531 2.829-2.828-2.122-2.122z" fill-rule="evenodd"></path></svg>