<svg xmlns="http://www.w3.org/2000/svg" style="color: transparent; fill: #28282A;" viewBox="0 0 18 18"><path clip-rule="evenodd" d="M7 2.75H2.5v4.5H7v-4.5zm8 0h-4.5v4.5H15v-4.5zm-4.5 8H15v4.5h-4.5v-4.5zm-3.5 0H2.5v4.5H7v-4.5z" fill-rule="evenodd"></path><path d="M2.5 2.75V2h-.75v.75h.75zm4.5 0h.75V2H7v.75zm-4.5 4.5h-.75V8h.75v-.75zm4.5 0V8h.75v-.75H7zm3.5-4.5V2h-.75v.75h.75zm4.5 0h.75V2H15v.75zm-4.5 4.5h-.75V8h.75v-.75zm4.5 0V8h.75v-.75H15zm0 3.5h.75V10H15v.75zm-4.5 0V10h-.75v.75h.75zm4.5 4.5V16h.75v-.75H15zm-4.5 0h-.75V16h.75v-.75zm-8-4.5V10h-.75v.75h.75zm4.5 0h.75V10H7v.75zm-4.5 4.5h-.75V16h.75v-.75zm4.5 0V16h.75v-.75H7zM2.5 3.5H7V2H2.5v1.5zm.75 3.75v-4.5h-1.5v4.5h1.5zM7 6.5H2.5V8H7V6.5zm-.75-3.75v4.5h1.5v-4.5h-1.5zm4.25.75H15V2h-4.5v1.5zm.75 3.75v-4.5h-1.5v4.5h1.5zM15 6.5h-4.5V8H15V6.5zm-.75-3.75v4.5h1.5v-4.5h-1.5zM15 10h-4.5v1.5H15V10zm.75 5.25v-4.5h-1.5v4.5h1.5zM10.5 16H15v-1.5h-4.5V16zm-.75-5.25v4.5h1.5v-4.5h-1.5zm-7.25.75H7V10H2.5v1.5zm.75 3.75v-4.5h-1.5v4.5h1.5zM7 14.5H2.5V16H7v-1.5zm-.75-3.75v4.5h1.5v-4.5h-1.5z"></path></svg>