<svg xmlns="http://www.w3.org/2000/svg" style="color: transparent; fill: #28282A;" viewBox="0 0 18 18"><path clip-rule="evenodd" d="M3.062 2H14.938l.06.685.81 9.327a2.751 2.751 0 01-2.22 2.94l.82 2.048h-1.616l-.8-2H6.008l-.8 2H3.592l.82-2.049a2.75 2.75 0 01-2.22-2.94l.81-9.326.06-.685zm1.376 1.5L4.133 7h9.734l-.305-3.5H4.438zm-.752 8.642L4.003 8.5h9.994l.317 3.642a1.25 1.25 0 01-1.246 1.358H4.931a1.25 1.25 0 01-1.245-1.358zM7.5 11a1 1 0 11-2 0 1 1 0 012 0zm4 1a1 1 0 100-2 1 1 0 000 2z" fill-rule="evenodd"></path></svg>