<svg xmlns="http://www.w3.org/2000/svg" style="color: transparent; fill: #28282A;" viewBox="0 0 18 18"><path clip-rule="evenodd" d="M4.75 2.5A3.25 3.25 0 001.5 5.75v6.75h3.01a3.25 3.25 0 003.24 3h8.75V9.75a3.25 3.25 0 00-3-3.24v-.76a3.25 3.25 0 00-3.25-3.25h-5.5zm8.75 5.518V9.25a3.25 3.25 0 01-3.25 3.25H6.018c.121.848.85 1.5 1.732 1.5H15V9.75a1.75 1.75 0 00-1.5-1.732zM12 6.5v-.75A1.75 1.75 0 0010.25 4h-5.5A1.75 1.75 0 003 5.75V11h7.25A1.75 1.75 0 0012 9.25V6.5zM6.504 5l-1.923 5h1.607l.385-1h1.854l.385 1h1.607L8.496 5H6.504zM7.5 6.59l.35.91h-.7l.35-.91z" fill-rule="evenodd"></path></svg>