<svg xmlns="http://www.w3.org/2000/svg" style="color: transparent; fill: #28282A;" viewBox="0 0 18 18"><path clip-rule="evenodd" d="M3 1.5h6.81l.22.22 4.75 4.75.22.22V9h-1.5V8h-5V3h-4v6H3V1.5zm7 2.31l2.69 2.69H10V3.81zM8.75 16H8v-6h1.5v4.5h2V16H8.75zm3.75-4.125c0-1.036.84-1.875 1.875-1.875h1.875v1.5h-1.875a.375.375 0 000 .75h.25a1.875 1.875 0 010 3.75H12.75v-1.5h1.875a.375.375 0 000-.75h-.25a1.875 1.875 0 01-1.875-1.875zM1.58 10l1.874 3-1.875 3h1.769l.99-1.585L5.33 16h1.769l-1.875-3 1.875-3H5.329l-.99 1.585L3.348 10H1.579z" fill-rule="evenodd"></path></svg>