<svg xmlns="http://www.w3.org/2000/svg" style="color: transparent; fill: #28282A;" viewBox="0 0 18 18"><path clip-rule="evenodd" d="M3 1.5h6.81l.22.22 4.75 4.75.22.22V9h-1.5V8h-5V3h-4v6H3V1.5zm7 2.31l2.69 2.69H10V3.81zM3.5 16v-3.37l.386.55.614.878.614-.878.386-.55V16H7v-4.957c0-.978-1.259-1.374-1.82-.573l-.68.972-.68-.972c-.561-.801-1.82-.405-1.82.573V16h1.5zm4-4.125C7.5 10.839 8.34 10 9.375 10h1.875v1.5H9.375a.375.375 0 000 .75h.25a1.875 1.875 0 010 3.75H7.75v-1.5h1.875a.375.375 0 000-.75h-.25A1.875 1.875 0 017.5 11.875zM13.25 10c-.69 0-1.25.56-1.25 1.25v3.5c0 .69.56 1.25 1.25 1.25h2c.69 0 1.25-.56 1.25-1.25V12.5H14V14h1v.5h-1.5v-3H15v.5h1.5v-.75c0-.69-.56-1.25-1.25-1.25h-2z" fill-rule="evenodd"></path></svg>