<svg xmlns="http://www.w3.org/2000/svg" style="color: transparent; fill: #28282A;" viewBox="0 0 18 18"><path clip-rule="evenodd" d="M2.75 1.5H2V9h1.5V3h4v5h5v1H14V6.69l-.22-.22-4.75-4.75-.22-.22H2.75zm8.94 5L9 3.81V6.5h2.69zm.81 9.5v-6H14v6h-1.5zm-3.964-.021L6.623 10h1.574l1.053 3.29L10.303 10h1.574l-1.913 5.979-.007.021H8.543l-.007-.021zM3.75 11.5a.25.25 0 00-.25.25v.75h1v-.75a.25.25 0 00-.25-.25h-.5zM4.5 16v-2h-1v2H2v-4.25c0-.966.784-1.75 1.75-1.75h.5c.966 0 1.75.784 1.75 1.75V16H4.5z" fill-rule="evenodd"></path></svg>