<svg xmlns="http://www.w3.org/2000/svg" style="color: transparent; fill: #28282A;" viewBox="0 0 18 18"><path clip-rule="evenodd" d="M2.75 1.5H2V9h1.5V3h4v5h5v1H14V6.69l-.22-.22-4.75-4.75-.22-.22H2.75zM9 6.5V3.81l2.69 2.69H9zM1.75 10H1v6h2.5a2 2 0 001.329-3.495A1.75 1.75 0 003.25 10h-1.5zm1.5 2a.25.25 0 100-.5H2.5v.5h.75zm-.75 1.5v1h1a.5.5 0 000-1h-1zm5-.87V16H6v-4.957c0-.978 1.259-1.374 1.82-.573l.68.972.68-.972c.561-.801 1.82-.405 1.82.573V16H9.5v-3.37l-.386.55-.614.878-.614-.878-.386-.55zM12.75 10H12v6h1.5v-2h.5a2 2 0 100-4h-1.25zM14 12.5h-.5v-1h.5a.5.5 0 010 1z" fill-rule="evenodd"></path></svg>