<svg xmlns="http://www.w3.org/2000/svg" style="color: transparent; fill: #28282A;" viewBox="0 0 18 18"><path clip-rule="evenodd" d="M3 1.5h6.81l.22.22 4.75 4.75.22.22V9h-1.5V8h-5V3h-4v6H3V1.5zm7 2.31l2.69 2.69H10V3.81zM3.75 10H3v6h1.5v-2H5a2 2 0 100-4H3.75zM5 12.5h-.5v-1H5a.5.5 0 010 1zm8-2.5h3v4.25A1.75 1.75 0 0114.25 16h-.5A1.75 1.75 0 0112 14.25V13h1.5v1.25c0 .138.112.25.25.25h.5a.25.25 0 00.25-.25V11.5H13V10zm-5.5 0h2a2 2 0 011.067 3.692L11.742 16h-1.684L9.04 14H9v2H7.5v-6zm2.5 2a.5.5 0 01-.5.5H9v-1h.5a.5.5 0 01.5.5z" fill-rule="evenodd"></path></svg>