<svg xmlns="http://www.w3.org/2000/svg" style="color: transparent; fill: #28282A;" viewBox="0 0 18 18"><path clip-rule="evenodd" d="M3.75 1.5H3V9h1.5V3h4v5h5v1H15V6.69l-.22-.22-4.75-4.75-.22-.22H3.75zm8.94 5L10 3.81V6.5h2.69zM3.5 12.63V16H2v-4.957c0-.978 1.259-1.374 1.82-.573l.68.972.68-.972c.561-.801 1.82-.405 1.82.573V16H5.5v-3.37l-.386.55-.614.878-.614-.878-.386-.55zM8.75 10H8v6h1.5v-2h.5a2 2 0 100-4H8.75zM10 12.5h-.5v-1h.5a.5.5 0 010 1zm2.5-2.5h1.75c.966 0 1.75.784 1.75 1.75v2.5A1.75 1.75 0 0114.25 16H12.5v-1.5h1.75a.25.25 0 00.25-.25v-.5h-2v-1.5h2v-.5a.25.25 0 00-.25-.25H12.5V10z" fill-rule="evenodd"></path></svg>