<svg xmlns="http://www.w3.org/2000/svg" style="color: transparent; fill: #28282A;" viewBox="0 0 18 18"><path clip-rule="evenodd" d="M2 1.5h6.81l.22.22 4.75 4.75.22.22V9h-1.5V8h-5V3h-4v6H2V1.5zm7 2.31l2.69 2.69H9V3.81zM0 10l1.875 3L0 16h1.769l.99-1.585L3.75 16h1.769l-1.875-3 1.875-3H3.75l-.99 1.585L1.768 10H0zm7.5 2.63V16H6v-4.957c0-.978 1.259-1.374 1.82-.573l.68.972.68-.972c.561-.801 1.82-.405 1.82.573V16H9.5v-3.37l-.386.55-.614.878-.614-.878-.386-.55zM12.75 16H12v-6h1.5v4.5h2V16h-2.75z" fill-rule="evenodd"></path></svg>