<svg xmlns="http://www.w3.org/2000/svg" style="color: transparent; fill: #28282A;" viewBox="0 0 18 18"><path clip-rule="evenodd" d="M3 1.5h6.81l.22.22 4.75 4.75.22.22V9h-1.5V8h-5V3h-4v6H3V1.5zm7 2.31l2.69 2.69H10V3.81zM8.5 16v-2.83l1.097 2.303c.458.963 1.903.636 1.903-.43V10H10v2.83l-1.097-2.303C8.445 9.564 7 9.89 7 10.957V16h1.5zm3.5-4.75c0-.69.56-1.25 1.25-1.25h2c.69 0 1.25.56 1.25 1.25V12H15v-.5h-1.5v3H15V14h-1v-1.5h2.5v2.25c0 .69-.56 1.25-1.25 1.25h-2c-.69 0-1.25-.56-1.25-1.25v-3.5zM3.25 10H2.5v6H4v-2h.5a2 2 0 100-4H3.25zm1.25 2.5H4v-1h.5a.5.5 0 010 1z" fill-rule="evenodd"></path></svg>