<svg xmlns="http://www.w3.org/2000/svg" style="color: transparent; fill: #28282A;" viewBox="0 0 18 18"><path clip-rule="evenodd" d="M3.75 2H3v4.5H2v6.25a2.75 2.75 0 002.75 2.75H8.5v-.25c0-.438.075-.859.213-1.25H4.75c-.69 0-1.25-.56-1.25-1.25V8h7.627A3.496 3.496 0 0114 6.5h1V4H9.896A2.751 2.751 0 007.25 2h-3.5zm9.75 4.5v-1h-5v-.75c0-.69-.56-1.25-1.25-1.25H4.5v3h9zm.5 3a.5.5 0 100 1 .5.5 0 000-1zm-2 .5a2 2 0 114 0 2 2 0 01-4 0zm-.5 5.25a.75.75 0 01.75-.75h3.5a.75.75 0 01.75.75v.25h-5v-.25zm.75-2.25A2.25 2.25 0 0010 15.25V17h8v-1.75A2.25 2.25 0 0015.75 13h-3.5z" fill-rule="evenodd"></path></svg>