<svg xmlns="http://www.w3.org/2000/svg" style="color: transparent; fill: #28282A;" viewBox="0 0 18 18"><path clip-rule="evenodd" d="M9 8.25a2.75 2.75 0 100-5.5 2.75 2.75 0 000 5.5zm6.25 6v1H2.75v-1a3 3 0 013-3h6.5a3 3 0 013 3z" fill-rule="evenodd"></path><path d="M15.25 15.25V16H16v-.75h-.75zm-12.5 0H2V16h.75v-.75zM11 5.5a2 2 0 01-2 2V9a3.5 3.5 0 003.5-3.5H11zm-2-2a2 2 0 012 2h1.5A3.5 3.5 0 009 2v1.5zm-2 2a2 2 0 012-2V2a3.5 3.5 0 00-3.5 3.5H7zm2 2a2 2 0 01-2-2H5.5A3.5 3.5 0 009 9V7.5zm7 7.75v-1h-1.5v1H16zM2.75 16h12.5v-1.5H2.75V16zM2 14.25v1h1.5v-1H2zm3.75-3.75A3.75 3.75 0 002 14.25h1.5A2.25 2.25 0 015.75 12v-1.5zm6.5 0h-6.5V12h6.5v-1.5zM16 14.25a3.75 3.75 0 00-3.75-3.75V12a2.25 2.25 0 012.25 2.25H16z"></path></svg>