<svg xmlns="http://www.w3.org/2000/svg" style="color: transparent; fill: #28282A;" viewBox="0 0 18 18"><path clip-rule="evenodd" d="M9.25 6.5h5.25c.52 0 1.042.189 1.5.517V5h-6v-.25A2.75 2.75 0 007.25 2H2v10.25A2.75 2.75 0 004.75 15h3.758c.036-.54.185-1.047.425-1.5H4.75c-.69 0-1.25-.56-1.25-1.25V6.5h5.75zM8.5 4.75V5h-5V3.5h3.75c.69 0 1.25.56 1.25 1.25zM14 9.5a.5.5 0 100 1 .5.5 0 000-1zm-2 .5a2 2 0 114 0 2 2 0 01-4 0zm-.5 5.25a.75.75 0 01.75-.75h3.5a.75.75 0 01.75.75v.25h-5v-.25zm.75-2.25A2.25 2.25 0 0010 15.25V17h8v-1.75A2.25 2.25 0 0015.75 13h-3.5z" fill-rule="evenodd"></path></svg>