<svg xmlns="http://www.w3.org/2000/svg" style="color: transparent; fill: #28282A;" viewBox="0 0 18 18"><path clip-rule="evenodd" d="M9.453 4.6a8.186 8.186 0 00-.581-1.005c.113.026.222.057.325.092.65.22 1.16.615 1.558 1.063.371.419.635.874.812 1.247l-1.394.374-.026-.077A14.351 14.351 0 009.453 4.6zM13.29 6.31l-.724.195.724-.194.194.724-.724.194-2.173.583-.725.194-1.207.323 1.653 6.17H15.5V16h-13v-1.5h6.256l-1.55-5.782L6 9.042l-.724.194-2.173.582-.725.195-.194-.725.725-.194-.725.193v-.003L2.18 9.28l-.005-.016a3.27 3.27 0 01-.051-.237 6.882 6.882 0 01-.09-.634 6.893 6.893 0 01.094-2.025c.16-.782.498-1.635 1.16-2.389.667-.758 1.626-1.375 2.96-1.732 1.334-.358 2.473-.303 3.429.02.95.322 1.67.892 2.2 1.49a6.894 6.894 0 011.094 1.705 6.85 6.85 0 01.297.773l.015.052.005.016.001.006v.002l.001.001zM8.108 5.265c.26.524.468 1.07.613 1.495l-2.356.631a12.82 12.82 0 01-.217-1.601c-.039-.605-.014-1.156.102-1.56.114-.398.264-.502.387-.535.123-.033.306-.019.604.27.301.291.599.757.867 1.3zM4.898 7.7l.016.08-1.395.374a5.351 5.351 0 01.08-1.486c.12-.587.364-1.184.818-1.7.072-.082.15-.163.235-.242-.031.391-.025.789 0 1.16.043.68.15 1.335.246 1.814zm6.945-.998z" fill-rule="evenodd"></path></svg>