<svg xmlns="http://www.w3.org/2000/svg" style="color: transparent; fill: #28282A;" viewBox="0 0 18 18"><path clip-rule="evenodd" d="M13 4.75a1.25 1.25 0 112.5 0 1.25 1.25 0 01-2.5 0zM14.25 2c-1.259 0-2.32.846-2.646 2H10.25A2.25 2.25 0 008 6.25V7.5a.75.75 0 01-.75.75H6V6.5H1v5h5V9.75h1.25a.75.75 0 01.75.75v1.25A2.25 2.25 0 0010.25 14h1.354a2.751 2.751 0 100-1.5H10.25a.75.75 0 01-.75-.75V10.5c0-.576-.217-1.102-.573-1.5.356-.398.573-.924.573-1.5V6.25a.75.75 0 01.75-.75h1.354A2.751 2.751 0 1014.25 2zM2.5 8v2h2V8h-2zm11.75 4a1.25 1.25 0 100 2.5 1.25 1.25 0 000-2.5z" fill-rule="evenodd"></path></svg>