<svg xmlns="http://www.w3.org/2000/svg" style="color: transparent; fill: #28282A;" viewBox="0 0 18 18"><path clip-rule="evenodd" d="M12.5 5.5H3v2h7.182A6.033 6.033 0 008.626 9H3v3.25c0 .69.56 1.25 1.25 1.25h3.333c.088.526.245 1.03.461 1.5H4.25a2.75 2.75 0 01-2.75-2.75V4h4v-.75A2.25 2.25 0 017.75 1h2.5a2.25 2.25 0 012.25 2.25V4h4v3.303a5.963 5.963 0 00-1.5-.614V5.5h-2.5zM7 4v-.75a.75.75 0 01.75-.75h2.5a.75.75 0 01.75.75V4H7zm6.5 5.5a3 3 0 100 6 3 3 0 000-6zm-4.5 3a4.5 4.5 0 119 0 4.5 4.5 0 01-9 0zm3.5-2v3h3V12H14v-1.5h-1.5z" fill-rule="evenodd"></path></svg>